<?xml version="1.0" encoding="utf-8"?>
<!-- Generator: Adobe Illustrator 16.0.0, SVG Export Plug-In . SVG Version: 6.00 Build 0)  -->
<!DOCTYPE svg PUBLIC "-//W3C//DTD SVG 1.1//EN" "http://www.w3.org/Graphics/SVG/1.1/DTD/svg11.dtd">

<svg version="1.1" id="Layer_1" xmlns="http://www.w3.org/2000/svg" xmlns:xlink="http://www.w3.org/1999/xlink"
	 width="100%" height="100%" viewBox="0 0 141.73 141.73" >
<style>

</style>
<g>
	<g>
		<g>
			<path fill="currentColor" d="M80.91,69.611c-0.56-5.152-2.794-10.129-3.7-15.279c-1.065-6.058-2.836-12.322-5.026-18.068
				c-0.478-1.252-2.685-0.717-2.881,0.483c-1.852,11.31-3.257,22.673-4.2,34.096c-0.126,1.521,2.792,1.142,2.902-0.199
				c0.943-11.422,2.349-22.786,4.201-34.096c-0.961,0.161-1.921,0.322-2.882,0.483c2.002,5.25,3.572,10.915,4.721,16.413
				c0.57,2.732,0.964,5.486,1.614,8.204c0.714,2.983,2.057,5.641,2.393,8.73C78.198,71.74,81.064,71.029,80.91,69.611L80.91,69.611z
				"/>
		</g>
	</g>
	<g>
		<g>
			<path fill="currentColor" d="M81.21,70.454c-3.781-3.415-11.119-3.319-15.211-0.506c-1.602,1.101,0.835,1.645,1.809,0.976
				c2.868-1.971,8.165-1.652,10.756,0.689C79.37,72.34,82.062,71.225,81.21,70.454L81.21,70.454z"/>
		</g>
	</g>
	<g>
		<g>
			<path fill="currentColor" d="M79.443,71.854c-2.346,5.04-8.573,3.885-10.881-0.61c-0.564-1.098-3.361-0.209-2.86,0.766
				c3.342,6.509,13.242,6.894,16.437,0.027C82.777,70.666,79.899,70.874,79.443,71.854L79.443,71.854z"/>
		</g>
	</g>
	<g>
		<g>
			<path fill="currentColor" d="M69.836,69.696c2.658-8.464,3.617-17.304,3.392-26.153c-0.022-0.892-2.647-0.111-2.855,0.582
				c-1.942,6.469-1.676,13.217-2.732,19.837c0.95-0.132,1.9-0.265,2.85-0.397c0.481-7.378,1.48-14.701,2.257-22.051
				c-0.951,0.194-1.903,0.388-2.854,0.582c2.016,8.959,6.704,17.235,7.159,26.526c0.772-0.37,1.546-0.739,2.319-1.109
				c-3.022-0.538-5.515-1.564-8.578-0.999c-1.276,0.235-2.437,1.749-0.429,1.443c6.347-0.966,7.604-13.389,5.621-18.161
				c-0.354-0.853-2.707-0.22-2.854,0.582c-0.96,5.208-1.134,10.513-2.238,15.697c-0.047,0.22,0.073,0.378,0.277,0.457
				c1.715,0.661,3.571,1.296,5.305,0.305c2.058-1.175,0.511-4.646,0.112-6.287c-0.215-0.887-2.741-0.182-2.854,0.582
				c-0.277,1.873-0.459,3.746-0.615,5.633c-0.088,1.062,2.777,0.478,2.85-0.397c0.156-1.887,0.338-3.759,0.615-5.633
				c-0.951,0.194-1.903,0.388-2.854,0.582c0.261,1.077,0.521,2.15,0.748,3.235c0.448,2.142-0.174-1.752-0.08-2.316
				c0.679-4.067,0.836-8.193,1.585-12.254c-0.951,0.194-1.903,0.388-2.854,0.582c0.981,2.361,0.562,5.329,0.3,7.782
				c-0.135,1.252-0.92,7.908-2.633,8.168c-0.143,0.481-0.286,0.962-0.429,1.443c2.528-0.467,4.791,0.573,7.228,1.007
				c0.646,0.115,2.364-0.199,2.319-1.109c-0.455-9.292-5.143-17.566-7.158-26.526c-0.197-0.875-2.773-0.191-2.855,0.582
				c-0.777,7.35-1.776,14.673-2.258,22.051c-0.07,1.071,2.712,0.465,2.85-0.397c1.057-6.62,0.791-13.368,2.732-19.837
				c-0.951,0.194-1.903,0.388-2.854,0.582c0.222,8.73-0.761,17.438-3.381,25.784C66.705,70.992,69.555,70.592,69.836,69.696
				L69.836,69.696z"/>
		</g>
	</g>
	<g>
		<g>
			<path fill="currentColor" d="M76.062,67.48c-0.434,0.083-0.499-0.109-0.258,0.067c0.105,0.077,0.132,0.195,0.17,0.313
				c0.24,0.756,3.083-0.064,2.859-0.767c-0.306-0.962-1.444-0.966-2.275-0.807c-0.492,0.094-1.439,0.288-1.664,0.83
				C74.68,67.638,75.87,67.517,76.062,67.48L76.062,67.48z"/>
		</g>
	</g>
	<g>
		<g>
			<path fill="currentColor" d="M68.048,72.816c2.539,0.485,4.969,1.646,7.609,1.515c2.095-0.104,4.807-1.408,4.204-3.945
				c-0.447-1.88-3.41-2.101-4.905-2.131c-2.098-0.042-4.527,0.231-6.345,1.359c-0.576,0.357-0.773,1.246,0.069,1.415
				c1.219,0.245,2.434,0.233,3.672,0.227c1.166-0.006,3.008-0.222,3.911,0.679c0.239-0.438,0.479-0.876,0.718-1.315
				c-0.98,0.408-1.787,0.998-2.565,1.714c-0.349,0.321-0.663,0.685-1.03,0.986c-0.427,0.352-1.477-0.717-1.828-1.006
				c-0.297,0.537-0.594,1.075-0.892,1.612c1.707-0.602,4.577-0.543,5.34-2.569c0.226-0.599-0.195-1.025-0.825-1.028
				c-1.564-0.007-2.86,0.357-4.042,1.402c-0.24,0.212-0.404,0.66-0.146,0.927c1.337,1.384,3.043,1.805,4.881,2.154
				c0.703,0.134,1.503-0.009,2.022-0.542c0.412-0.424,0.32-1.082-0.323-1.204c-1.435-0.273-2.885-0.504-3.943-1.6
				c-0.049,0.309-0.098,0.618-0.146,0.927c0.216-0.068,0.432-0.138,0.648-0.207c-0.275-0.342-0.551-0.685-0.825-1.028
				c-0.284,0.755-2.362,0.805-3.097,1.064c-0.664,0.233-1.742,0.913-0.892,1.612c1.403,1.155,2.987,1.885,4.786,1.182
				c1.629-0.636,2.484-2.297,4.078-2.959c0.394-0.164,1.208-0.826,0.718-1.315c-2.203-2.201-5.802-0.915-8.521-1.461
				c0.023,0.472,0.046,0.943,0.069,1.415c1.406-0.873,5.324-1.104,6.462,0.269c0.26,0.313,0.194,1.303-0.24,1.45
				c-0.745,0.25-1.791-0.042-2.524-0.194c-1.485-0.309-2.909-0.868-4.399-1.152c-0.703-0.134-1.503,0.009-2.022,0.542
				C67.312,72.036,67.405,72.693,68.048,72.816L68.048,72.816z"/>
		</g>
	</g>
	<g>
		<g>
			<path fill="#111" d="M66.609,71.937c2.42,1.175,3.732,3.733,6.735,3.617c2.784-0.108,4.888-1.546,6.531-3.734
				c0.626-0.834-0.899-1.146-1.369-0.521c-1.697,2.26-4.342,3.969-7.149,2.354c-1.397-0.804-2.341-2.131-3.824-2.851
				C66.827,70.458,65.67,71.481,66.609,71.937L66.609,71.937z"/>
		</g>
	</g>
	<g>
		<g>
			<path fill="#111" d="M80.168,70.625c-1.591-1.49-2.296-2.92-4.378-3.848c-1.322-0.589-2.727-0.762-4.152-0.666
				c-2.82,0.19-4.462,2.703-5.658,4.953c-0.144,0.27,1.377,0.151,1.603-0.272c1.309-2.461,2.632-4.576,6.036-3.669
				c2.472,0.658,3.313,2.465,5.026,4.069C78.973,71.499,80.452,70.891,80.168,70.625L80.168,70.625z"/>
		</g>
	</g>
	<g>
		<g>
			<path fill="#111" d="M72.84,74.5c3.126,0.14,3.409-2.593,2.65-4.984c-0.27-0.851-0.745-2.06-1.667-2.384
				c-0.988-0.349-2.054,0.443-2.368,1.319c-0.438,1.22-1.004,6.539,0.848,6.637c3.417,0.181,4.22-6.212,1.775-7.734
				c-0.308-0.191-1.452,0.021-1.563,0.419c-0.604,2.16-0.869,4.495-0.543,6.722c0.06,0.407,1.395-0.095,1.546-0.271
				c0.799-0.926,1.002-2.451,1.204-3.609c0.193-1.108,0.544-2.83-0.418-3.672c-0.591-0.517-1.837,0.118-2.159,0.676
				c-0.48,0.831-0.49,2.243-0.444,3.176c0.015,0.307,1.644,0.032,1.621-0.435c-0.032-0.669,0.04-1.356,0.143-2.017
				c0.054-0.346,0.143-0.682,0.281-1.003c-0.322,0.054-0.645,0.108-0.968,0.163c0.13,0.095,0.231,0.215,0.305,0.361
				c0.096,0.167,0.121,0.38,0.154,0.565c0.201,1.101-0.067,2.324-0.297,3.398c-0.166,0.775-0.355,1.882-0.893,2.506
				c0.515-0.091,1.03-0.182,1.546-0.271c-0.318-2.184-0.068-4.45,0.523-6.567c-0.521,0.14-1.043,0.279-1.563,0.419
				c1.152,0.717,1.257,2.265,1.219,3.494c-0.021,0.671-0.166,1.329-0.383,1.961c-0.078,0.228-0.192,0.436-0.313,0.642
				c-0.115,0.17-0.244,0.327-0.39,0.473c0.707,0.093,0.918,0.05,0.634-0.128c-0.546-0.396-0.509-1.757-0.543-2.336
				c-0.053-0.871-0.029-1.753,0.038-2.623c0.027-0.351,0.098-0.692,0.184-1.033c0.045-0.176,0.111-0.344,0.183-0.511
				c0.275-0.645-0.59-0.034-0.612-0.045c0.563,0.282,0.875,1.07,1.104,1.612c0.324,0.769,0.512,1.599,0.583,2.428
				c0.038,0.433,0.013,0.869-0.089,1.292c-0.035,0.145-0.095,0.28-0.157,0.415c-0.131,0.28-0.356,0.258-0.124,0.269
				C73.531,73.805,72.025,74.464,72.84,74.5L72.84,74.5z"/>
		</g>
	</g>
	<g>
		<g>
			<path fill="currentColor" d="M74.511,77.888c1.315,6.738,3.948,13.426,5.945,20c0.238,0.785,2.631,0.116,2.4-0.643c-1.997-6.574-4.63-13.263-5.945-20
				C76.762,76.481,74.351,77.07,74.511,77.888L74.511,77.888z"/>
		</g>
	</g>
	<g>
		<g>
			<path fill="currentColor" d="M88.966,96.938c-4.995,0.021-9.985,0.273-14.98,0.295c-0.912,0.004-2.377,1.394-0.85,1.387
				c4.995-0.021,9.985-0.273,14.98-0.295C89.028,98.32,90.494,96.931,88.966,96.938L88.966,96.938z"/>
		</g>
	</g>
	<g>
		<g>
			<path fill="currentColor" d="M67.76,97.91c0.478-7.249,3.638-14.578,5.261-21.666c0.198-0.867-2.215-0.481-2.397,0.312
				c-1.623,7.089-4.784,14.418-5.261,21.666C65.301,99.175,67.709,98.686,67.76,97.91L67.76,97.91z"/>
		</g>
	</g>
	<g>
		<g>
			<path fill="currentColor" d="M69.48,96.745c-0.33-3.27,1.568-6.517,2.801-9.438c1.373-3.253,1.5-6.777,2.541-10.121
				c-0.789,0.142-1.578,0.284-2.367,0.426c-1.477,5.885-5.898,10.481-5.754,16.871c0.09,3.975,8.529,2.525,10.799,2.394
				c3.634-0.211,4.158-1.317,2.501-4.706c-1.621-3.315-7.324-9.552-4.366-13.316c-0.795,0.178-1.589,0.356-2.384,0.534
				c0.923,3.825,2.527,7.694,2.609,11.666c0.041,1.983-0.795,4.356,1.662,4.975c0.413,0.104,2.234-0.147,2.188-0.783
				c-0.166-2.275-1.673-4.088-2.978-5.864c-1.996-2.72-2.722-5.479-3.843-8.636c-0.181-0.51-2.307,0.058-2.383,0.534
				c-0.785,4.944-1.25,9.918-2.923,14.666c-0.203,0.576,2.078-0.069,2.366-0.426c2.013-2.49,3.605-5.139,5.034-8
				c-0.795,0.178-1.589,0.356-2.384,0.534c0.297,2.891-0.628,5.376-1.931,7.892c-0.265,0.512,1.888-0.034,2.101-0.182
				c1.721-1.192,3.403-2.294,4.876-3.791c-0.762,0.139-1.524,0.277-2.286,0.415c0.188,1.787-0.372,2.977-0.958,4.558
				c0.795-0.178,1.589-0.356,2.384-0.534c-0.417-2.271-0.343-4.535-0.322-6.834c0.003-0.383-2.367-0.033-2.4,0.643
				c-0.078,1.584-0.309,3.171-0.639,4.72c-0.22,1.03-3.834,2.727-1.684,0.387c0.677-0.736,1.009-1.43,1.458-2.307
				c0.174-0.339-2.057-0.18-2.367,0.426c-0.77,1.502-1.807,2.683-2.987,3.881c-0.146,0.148-0.156,0.337,0.099,0.368
				c2.042,0.252,4.549-0.287,6.311-1.368c2.173-1.333,2.095-4.424,2.209-6.749c-0.8,0.214-1.601,0.429-2.4,0.643
				c-0.021,2.3-0.095,4.563,0.322,6.834c0.099,0.539,2.226-0.107,2.384-0.534c0.618-1.668,1.179-3.001,0.991-4.774
				c-0.061-0.572-2.067,0.192-2.286,0.415c-1.365,1.388-2.947,2.438-4.54,3.541c0.701-0.061,1.401-0.121,2.101-0.182
				c1.342-2.591,2.267-5.173,1.965-8.108c-0.057-0.55-2.192,0.151-2.384,0.534c-1.428,2.861-3.021,5.51-5.033,8
				c0.789-0.142,1.578-0.284,2.366-0.426c1.676-4.757,2.137-9.715,2.923-14.666c-0.794,0.178-1.589,0.356-2.383,0.534
				c0.97,2.733,1.54,5.396,3.224,7.792c1.448,2.062,3.404,4.083,3.596,6.708c0.729-0.261,1.458-0.522,2.188-0.783
				c-2.191-0.551-1.218-3.815-1.25-5.359c-0.076-3.688-1.739-7.447-2.596-11c-0.154-0.642-2.143,0.228-2.384,0.534
				c-1.994,2.539,0.032,5.947,1.34,8.338c0.831,1.52,5.124,6.849,3.957,8.787c0.47-0.217,0.938-0.435,1.408-0.651
				c-2.255,0.495-4.682,0.149-6.973,0.167c-2.513,0.02-3.857-0.248-3.918-2.947c-0.132-5.854,4.385-10.387,5.74-15.787
				c0.129-0.514-2.188-0.15-2.367,0.426c-1.154,3.711-1.427,7.483-2.954,11.1c-1.154,2.733-2.729,5.622-2.422,8.677
				C67.125,97.836,69.544,97.379,69.48,96.745L69.48,96.745z"/>
		</g>
	</g>
	<g>
		<g>
			<path fill="#111" d="M73.194,81.584c0.536,0,2.746-1.035,1.541-1.035C74.199,80.549,71.989,81.584,73.194,81.584
				L73.194,81.584z"/>
		</g>
	</g>
	<g>
		<g>
			<path fill="#111" d="M73.782,86.098c0.702,0,2.616-1.062,1.014-1.062C74.094,85.035,72.18,86.098,73.782,86.098L73.782,86.098
				z"/>
		</g>
	</g>
	<g>
		<g>
			<path fill="#111" d="M73.51,90.385c0.497,0,2.733-0.973,1.559-0.973C74.571,89.412,72.335,90.385,73.51,90.385L73.51,90.385z"
				/>
		</g>
	</g>
	<g>
		<g>
			<path fill="#111" d="M73.799,94.158c0.78,0,2.594-1.184,0.98-1.184C73.999,92.975,72.186,94.158,73.799,94.158L73.799,94.158z
				"/>
		</g>
	</g>
	<g>
		<g>
			<path fill="currentColor" d="M99.019,99.427c-5.106-0.106-9.979,1.608-15.001-0.135c-3.876-1.345-7.516-3.478-11.409-4.879
				c-6.3-2.268-13.043-3.61-19.344-0.739c-1.326,0.604-0.145,1.743,0.94,1.248c8.001-3.646,18.255,0.724,25.594,4.421
				c1.923,0.969,4.017,2.02,6.183,2.299c4.139,0.533,8.146-0.76,12.301-0.674C99.302,100.989,100.456,99.456,99.019,99.427
				L99.019,99.427z"/>
		</g>
	</g>
	<g>
		<g>
			<path fill="currentColor" d="M95.167,97.926c-6.126,0.479-12.578-2.139-18.462,0.456c-1.42,0.626-0.152,1.772,0.984,1.271
				c5.242-2.312,11.717,0.299,17.261-0.134C96.197,99.422,96.711,97.806,95.167,97.926L95.167,97.926z"/>
		</g>
	</g>
	<g>
		<g>
			<path fill="currentColor" d="M52.68,93.383c-2.136,2.656-4.798,4.158-8.029,5.116c-1.343,0.398-1.043,1.57,0.312,1.168
				c3.938-1.168,7.223-2.98,9.826-6.218C55.434,92.647,53.149,92.799,52.68,93.383L52.68,93.383z"/>
		</g>
	</g>
	<g>
		<g>
			<path fill="currentColor" d="M53.317,93.3c-1.804-0.153-3.457,0.171-5.154,0.77c-2.636,0.93-4.864,2.953-7.802,2.896
				c-0.461-0.009-2.576,0.879-1.472,0.9c1.81,0.035,3.47-0.325,5.154-0.979c2.601-1.01,4.837-2.938,7.802-2.687
				C52.313,94.24,54.436,93.395,53.317,93.3L53.317,93.3z"/>
		</g>
	</g>
	<g>
		<g>
			<path fill="currentColor" d="M53.899,91.826c-2.53,0.499-4.937-0.651-7.458-0.176c-2.276,0.429-4.188,1.897-6.381,2.571
				c-1.326,0.407-1.06,1.47,0.283,1.057c1.706-0.523,3.225-1.325,4.838-2.075c2.409-1.12,5.77,0.319,8.39-0.197
				C54.6,92.804,55.457,91.519,53.899,91.826L53.899,91.826z"/>
		</g>
	</g>
	<g>
		<g>
			<path fill="currentColor" d="M54.625,91.501c-3.034-1.376-5.574-4.473-9.104-4.452c-3.519,0.021-5.121,4.325-8.351,4.333
				c-0.922,0.003-2.376,1.406-0.847,1.402c2.453-0.007,4.114-1.011,5.899-2.634c3.9-3.547,6.974,0.859,10.622,2.515
				C53.583,93,55.633,91.959,54.625,91.501L54.625,91.501z"/>
		</g>
	</g>
	<g>
		<g>
			<path fill="currentColor" d="M54.121,92.404c-2.9-0.98-5.86-3.929-9.181-2.833c-3.817,1.258-6.347,4.569-10.104,5.959
				c-1.471,0.544-0.145,1.507,0.94,1.105c2.341-0.865,4.221-2.286,6.176-3.809c4.077-3.175,7.003-0.355,10.818,0.935
				C53.593,94.04,55.432,92.848,54.121,92.404L54.121,92.404z"/>
		</g>
	</g>
	<g>
		<g>
			<path fill="currentColor" d="M92.189,99.663c-3.287,0.392-6.279,0.737-9.468-0.386c-2.247-0.792-4.194-3.099-6.127-4.457
				c-2.313-1.625-5.446-2.243-8.156-2.847c-4.51-1.003-10.937-1.801-14.682,1.6c-0.747,0.679,0.558,0.697,0.969,0.609
				c3.098-0.657,5.653-2.404,9-2.003c3.608,0.434,6.888,0.911,9.748,3.405c0.551-0.313,1.102-0.626,1.653-0.938
				c-2.138-0.465-4.917-2.273-7.091-2.035c-0.292,0.032-1.575,0.429-1.151,0.935c0.134,0.159,1.505,1.447,1.626,1.196
				c-0.111,0.229,0.241,0.375,0.397,0.389c3.888,0.348,6.134,2,9.209,4.293c2.683,2,6.054,1.421,9.165,1.327
				c0.459-0.014,2.273-0.97,1.089-1.091c-0.96-0.099-1.92-0.196-2.879-0.294c-0.363,0.363-0.726,0.728-1.089,1.091
				c7.208-0.075,14.386-0.81,21.594-0.886c0.195-0.362,0.392-0.725,0.587-1.088c-3.852,0.533-7.713,2.663-11.688,1.524
				c-0.6-0.172-2.515,0.74-1.707,0.971c4.698,1.347,8.404-0.781,13.074-1.427c0.65-0.091,1.935-1.103,0.587-1.088
				c-7.208,0.075-14.386,0.81-21.594,0.886c-0.477,0.005-2.262,0.972-1.089,1.091c0.96,0.099,1.92,0.196,2.879,0.294
				c0.363-0.363,0.726-0.728,1.089-1.091c-3.323,0.1-6.287,0.282-9.107-1.82c-1.094-0.815-2.062-1.926-3.311-2.522
				c-1.188-0.567-4.63-1.805-5.076-0.883c0.028-0.098,0.006-0.183-0.067-0.253c-0.594-0.444-1.228-0.85-1.707-1.421
				c-0.384,0.312-0.768,0.623-1.151,0.935c1.379-0.151,4.444,1.686,6.086,2.042c0.308,0.067,2.249-0.419,1.653-0.938
				c-3.008-2.622-6.517-3.3-10.407-3.677c-4.102-0.398-6.631,1.29-10.578,2.128c0.323,0.203,0.646,0.406,0.969,0.609
				c4.875-4.427,16.857-0.187,21.247,3.34c4.951,3.978,8.956,4.289,15.183,3.549C92.855,100.614,93.671,99.487,92.189,99.663
				L92.189,99.663z"/>
		</g>
	</g>
	<g>
		<g>
			<path fill="currentColor" d="M63.047,91.002c-1.915,0.22-3.661,0.057-5.367-0.876c-0.463,0.46-0.927,0.92-1.39,1.38c1.515,0,3.031,0,4.546,0
				c0.646,0,2.604-1.166,1.166-1.469c-1.398-0.295-2.825-0.372-4.222-0.666c-0.389,0.489-0.777,0.979-1.166,1.469
				c0.937,0.006,1.728,0.047,2.651,0.29c0.389-0.489,0.777-0.979,1.166-1.469c-0.974,0-1.949,0-2.923,0
				c-0.196,0.502-0.392,1.003-0.588,1.504c4.035-0.476,7.896,3.035,10.074,6.078c0.535,0.747,2.85-0.102,2.217-0.986
				c-2.672-3.732-7.185-7.156-12.008-6.588c-0.877,0.104-2.109,1.504-0.588,1.504c0.974,0,1.949,0,2.923,0
				c0.647,0,2.602-1.091,1.166-1.469c-1.067-0.281-2.09-0.367-3.195-0.376c-0.653-0.004-2.599,1.167-1.166,1.469
				c1.398,0.294,2.825,0.372,4.222,0.666c0.389-0.489,0.777-0.979,1.166-1.469c-1.515,0-3.031,0-4.546,0
				c-0.459,0-2.496,0.775-1.39,1.38c2.178,1.191,4.536,1.402,6.971,1.124C63.998,92.356,64.701,90.812,63.047,91.002L63.047,91.002z
				"/>
		</g>
	</g>
	<g>
		<g>
			<path fill="currentColor" d="M69.824,97.072c0,2.783-0.014,5.564-0.325,8.333c-0.034,0.301,2.319,0.078,2.4-0.643
				c0.311-2.769,0.325-5.551,0.325-8.333C72.225,96.046,69.824,96.389,69.824,97.072L69.824,97.072z"/>
		</g>
	</g>
	<g>
		<g>
			<path fill="currentColor" d="M76.317,98.072c-0.278,2.439-0.323,4.88-0.324,7.333c0,0.299,2.4-0.019,2.4-0.643c0.001-2.453,0.046-4.894,0.324-7.333
				C78.742,97.217,76.394,97.402,76.317,98.072L76.317,98.072z"/>
		</g>
	</g>
	<g>
		<g>
			<path fill="currentColor" d="M89.142,97.853c-1.867,0-3.734,0-5.602,0c-0.629,0-1.486,0.229-1.896,0.748c-0.421,0.532,0.357,0.715,0.742,0.715
				c1.867,0,3.734,0,5.602,0c0.629,0,1.486-0.229,1.896-0.748C90.305,98.035,89.526,97.853,89.142,97.853L89.142,97.853z"/>
		</g>
	</g>
	<g>
		<g>
			<path fill="currentColor" d="M67.132,91.016c-2.615-0.177-4.943-1.692-7.617-1.549c-2.425,0.129-4.438,1.116-6.665,1.992
				c-1.822,0.717-0.212,2.338,1.284,1.75c2.417-0.95,4.384-1.958,7.067-1.298c1.697,0.417,3.189,1.121,4.956,1.241
				C67.587,93.249,69.067,91.146,67.132,91.016L67.132,91.016z"/>
		</g>
	</g>
</g>
</svg>
