<?xml version="1.0" encoding="utf-8"?>
<!-- Generator: Adobe Illustrator 16.0.0, SVG Export Plug-In . SVG Version: 6.00 Build 0)  -->
<!DOCTYPE svg PUBLIC "-//W3C//DTD SVG 1.1//EN" "http://www.w3.org/Graphics/SVG/1.1/DTD/svg11.dtd">
<svg version="1.1" id="Layer_1" xmlns="http://www.w3.org/2000/svg" xmlns:xlink="http://www.w3.org/1999/xlink"
	 width="100%" height="100%" viewBox="0 0 141.73 141.73" xml:space="preserve">
<g>
	<g>
		<g>
			<path fill="currentColor" d="M68.761,62.819c2.178-3.27,3.245-9.785,8.488-8.683c3.472,0.729,3.355,6.362,4.237,8.977
				c0.178,0.527,2.273-0.098,2.115-0.567c-0.834-2.475-0.85-5.269-2.217-7.541c-1.185-1.966-3.748-2.076-5.767-1.849
				c-5.473,0.618-6.385,6.175-8.948,10.023C66.492,63.446,68.41,63.345,68.761,62.819L68.761,62.819z"/>
		</g>
	</g>
	<g>
		<g>
			<path fill="currentColor" d="M67.511,63.443c5.158,1.667,11.744,3.652,15.988-0.945c0.566-0.614-1.536-0.43-1.953,0.021
				c-3.121,3.38-8.642,1.159-12.333-0.035C68.627,62.295,66.711,63.184,67.511,63.443L67.511,63.443z"/>
		</g>
	</g>
	<g>
		<g>
			<path fill="currentColor" d="M74.984,64.185c0.214-3.216-0.361-6.457,0.434-9.633c0.236-0.941,0.474-1.337,1.27-0.571
				c0.732,0.704,0.749,2.102,0.749,3.022c0,1.407-0.31,5.127-1.768,5.899c0.507,0.106,1.014,0.212,1.521,0.318
				c-0.741-2.792-1.595-6.68,0.058-9.289c-0.66,0.117-1.319,0.234-1.979,0.351c1.48,2.861,1.546,6.439,1.095,9.562
				c0.48-0.279,0.961-0.558,1.442-0.836c-0.61-0.04-0.739-0.513-1.079-0.909c-0.61-0.71-2.624,0.124-1.941,0.92
				c0.779,0.907,1.002,1.404,2.276,1.487c0.533,0.035,1.352-0.206,1.442-0.836c0.493-3.417,0.314-7.197-1.294-10.308
				c-0.382-0.736-1.681-0.122-1.979,0.351c-1.792,2.831-0.959,7.05-0.155,10.075c0.159,0.602,1.102,0.54,1.521,0.318
				c3.32-1.76,5.034-12.315-0.418-12.127c-4.885,0.168-3.134,9.388-3.333,12.38C72.772,65.434,74.923,65.112,74.984,64.185
				L74.984,64.185z"/>
		</g>
	</g>
	<g>
		<g>
			<path fill="currentColor" d="M75.735,58.268c0.319,0.836,0.415,1.667,0.462,2.556c0.017,0.33,2.145-0.015,2.115-0.567
				c-0.046-0.888-0.142-1.719-0.462-2.556C77.671,57.229,75.594,57.9,75.735,58.268L75.735,58.268z"/>
		</g>
	</g>
	<g>
		<g>
			<path fill="currentColor" d="M67.117,55.944c2.808-1.37,5.001-4.129,8.209-4.527c2.96-0.367,5.3,2.468,7.751,3.675
				c0.869,0.428,2.432-0.828,1.223-1.423c-3.243-1.596-4.957-3.79-8.784-3.796c-3.724-0.007-6.243,3.32-9.334,4.828
				C64.88,55.335,66.044,56.467,67.117,55.944L67.117,55.944z"/>
		</g>
	</g>
	<g>
		<g>
			<path fill="currentColor" d="M69.023,66.691c3.556-0.439,7.12-0.115,10.688-0.265c0.728-0.031,2.266-1.183,0.844-1.123
				c-3.748,0.158-7.484-0.158-11.22,0.303C68.347,65.728,67.551,66.873,69.023,66.691L69.023,66.691z"/>
		</g>
	</g>
	<g>
		<g>
			<path fill="currentColor" d="M74.575,66.507c0.894,0,2.213-1.356,0.781-1.356C74.463,65.151,73.144,66.507,74.575,66.507L74.575,66.507z"/>
		</g>
	</g>
	<g>
		<g>
			<path fill="currentColor" d="M68.118,65.503c4.927,0.769,11.688,4.433,15.852-0.176c0.482-0.535-1.567-0.285-1.928,0.114
				c-2.781,3.08-9.112-0.326-12.568-0.865C68.977,64.5,67.02,65.332,68.118,65.503L68.118,65.503z"/>
		</g>
	</g>
	<g>
		<g>
			<path fill="currentColor" d="M74.394,68.256c5.115,3.399,10.965,4.693,17.011,3.525c0.985-0.19,1.749-1.437,0.293-1.155
				c-5.626,1.087-10.893-0.245-15.618-3.385C75.513,66.864,73.552,67.697,74.394,68.256L74.394,68.256z"/>
		</g>
	</g>
	<g>
		<g>
			<path fill="currentColor" d="M71.713,67.41c2.185,0.121,3.945,0.624,5.944,1.489c0.655,0.284,2.584-0.656,1.678-1.049
				c-2.276-0.985-4.323-1.546-6.81-1.683C71.692,66.121,70.28,67.331,71.713,67.41L71.713,67.41z"/>
		</g>
	</g>
	<g>
		<g>
			<path fill="currentColor" d="M73.162,67.122c0.814,6.446-0.761,12.859-0.551,19.318c0.037,1.166,2.184,0.884,2.15-0.133
				c-0.214-6.612,1.351-13.15,0.516-19.752C75.146,65.511,73.025,66.046,73.162,67.122L73.162,67.122z"/>
		</g>
	</g>
	<g>
		<g>
			<path fill="currentColor" d="M72.838,86.332c-2.013,1.725-3.569,3.53-4.604,5.984c-1.421,3.371-0.56,7.703-3.529,10.267
				c-0.944,0.814,1.156,0.889,1.713,0.408c2.168-1.871,2.438-4.056,2.913-6.762c0.701-3.993,2.108-6.822,5.22-9.489
				C75.497,85.93,73.396,85.854,72.838,86.332L72.838,86.332z"/>
		</g>
	</g>
	<g>
		<g>
			<path fill="currentColor" d="M73.436,87.318c6.602-0.608,1.173,12.457,3.551,15.574c0.581,0.763,2.597-0.065,1.938-0.93
				c-0.87-1.142-0.364-3.423-0.263-4.739c0.16-2.082,0.353-4.157,0.228-6.247c-0.195-3.268-1.801-5.52-5.264-5.201
				C72.443,85.885,71.991,87.451,73.436,87.318L73.436,87.318z"/>
		</g>
	</g>
	<g>
		<g>
			<path fill="currentColor" d="M74.188,67.088c-4.903,0.615-10.333,1.17-14.836-1.281c-4.019-2.188-4.847-8.782-5.155-12.838
				c-0.012-0.155-1.077,0.026-1.058,0.283c0.398,5.253,1.547,11.431,6.857,13.697c4.144,1.768,9.398,1.062,13.721,0.52
				C73.963,67.439,74.876,67.002,74.188,67.088L74.188,67.088z"/>
		</g>
	</g>
	<g>
		<g>
			<path fill="currentColor" d="M56.127,55.387c-1.564-2.698-2.528-5.743-4.383-8.27c-0.196-0.268-1.219,0.084-0.986,0.401
				c1.826,2.488,2.771,5.496,4.312,8.152C55.264,56.005,56.274,55.64,56.127,55.387L56.127,55.387z"/>
		</g>
	</g>
	<g>
		<g>
			<path fill="currentColor" d="M50.751,47.229c0.5,0.034,1.273-0.181,1.406,0.451c0.247,1.174,0.696,2.312,1.116,3.432
				c0.761,2.029,1.529,4.001,1.797,6.165c0.337-0.126,0.675-0.252,1.012-0.378c-1.94-3.135-3.766-6.263-4.622-9.886
				c-0.312,0.151-0.623,0.302-0.935,0.453c1.141,0.945,1.598,2.812,2.267,4.106c1.049,2.032,2.478,3.581,3.084,5.868
				c0.133,0.504,1.191,0.221,1.058-0.283c-0.624-2.356-2.005-3.982-3.175-6.057c-0.753-1.336-1.198-3.244-2.421-4.256
				c-0.293-0.243-1.039,0.015-0.935,0.453c0.872,3.694,2.732,6.876,4.712,10.075c0.25,0.404,1.068,0.074,1.012-0.378
				c-0.446-3.599-2.32-6.773-3.061-10.301c-0.042-0.198-0.312-0.28-0.485-0.257c-0.491,0.055-0.98,0.056-1.47,0.004
				C50.584,46.404,50.035,47.18,50.751,47.229L50.751,47.229z"/>
		</g>
	</g>
	<g>
		<g>
			<path fill="currentColor" d="M52.102,46.766c-2.727,0.203-0.467-6.345-0.964-7.964c-0.155-0.508-1.094-0.206-1.058,0.283
				c0.215,2.944,5.896,6.341,2.271,8.957c-0.583,0.421,0.278,0.791,0.702,0.485c4.343-3.133-1.666-6.322-1.916-9.725
				c-0.353,0.094-0.705,0.189-1.058,0.283c0.679,2.214-2.423,8.781,1.928,8.458C52.604,47.499,52.823,46.712,52.102,46.766
				L52.102,46.766z"/>
		</g>
	</g>
	<g>
		<g>
			<path fill="currentColor" d="M52.747,46.853c0-0.591,0-1.183,0-1.773c-0.353,0.094-0.705,0.189-1.058,0.283c0.467,0.975,0.634,1.989,0.644,3.063
				c0.001,0.178,1.061,0.02,1.058-0.283c-0.01-1.075-0.176-2.089-0.644-3.063c-0.114-0.239-1.058,0.023-1.058,0.283
				c0,0.591,0,1.183,0,1.773C51.689,47.311,52.747,47.158,52.747,46.853L52.747,46.853z"/>
		</g>
	</g>
</g>
</svg>
