<?xml version="1.0" encoding="utf-8"?>
<!-- Generator: Adobe Illustrator 16.0.0, SVG Export Plug-In . SVG Version: 6.00 Build 0)  -->
<!DOCTYPE svg PUBLIC "-//W3C//DTD SVG 1.1//EN" "http://www.w3.org/Graphics/SVG/1.1/DTD/svg11.dtd">
<svg version="1.1" id="Layer_1" xmlns="http://www.w3.org/2000/svg" xmlns:xlink="http://www.w3.org/1999/xlink"
	 width="100%" height="100%" viewBox="0 0 141.73 141.73" xml:space="preserve">
<g>
	<g>
		<g>
			<path fill="currentColor" d="M59.391,65.097c1.643-0.29,2.57-0.946,3.538-2.333c0.562-0.806,0.922-1.836,1.312-2.724
				c1.522-3.467,7.078-7.34,10.041-3.558c2.379,3.037,2.026,7.608,6.943,7.281c0.805-0.055,1.367-0.973,0.229-0.896
				c-5.094,0.339-3.768-8.899-9.546-9.008c-1.99-0.037-4.176,0.777-5.722,2.022c-1.256,1.012-2.371,2.019-3.155,3.44
				c-0.832,1.511-1.343,4.513-3.408,4.877C58.848,64.336,58.258,65.297,59.391,65.097L59.391,65.097z"/>
		</g>
	</g>
	<g>
		<g>
			<path fill="currentColor" d="M59.815,64.517c4.409,0.669,7.321,3.334,11.987,3.112c0.88-0.041,1.907-0.232,2.711-0.61
				c1.137-0.533,3.661-3.398,4.634-3.335c0.394,0.024,1.9-0.682,1.048-0.736c-1.748-0.112-2.863,0.368-4.039,1.703
				c-4.792,5.441-10.136-0.087-15.292-0.87C60.465,63.721,58.954,64.386,59.815,64.517L59.815,64.517z"/>
		</g>
	</g>
	<g>
		<g>
			<path fill="currentColor" d="M70.782,66.519c-5.055,0.753-3.838-7.247-2.099-9.678c1.812-2.532,3.667,0.02,4.246,1.928
				c0.382,1.259,1.46,7.303-0.813,7.583c-0.801,0.1-1.356,1.066-0.219,0.928c3.633-0.448,3.424-4.982,2.963-7.708
				c-0.478-2.823-2.176-5.747-5.484-4.476c-5.104,1.962-5.777,13.387,1.187,12.351C71.356,67.328,71.917,66.35,70.782,66.519
				L70.782,66.519z"/>
		</g>
	</g>
	<g>
		<g>
			<path fill="currentColor" d="M62.706,58.856c2.089,0.021,4.129-0.861,6.021-1.656c2.338-0.981,4.806-2.149,6.808-3.731
				c0.877-0.692-0.477-1.102-1.061-0.641c-1.458,1.152-3.156,1.987-4.82,2.792c-1.865,0.902-4.226,2.175-6.351,2.152
				C62.588,57.765,61.594,58.846,62.706,58.856L62.706,58.856z"/>
		</g>
	</g>
	<g>
		<g>
			<path fill="currentColor" d="M63.993,57.595c-1.922-4.573-6.28-1.46-7.597,1.83c0.511-0.096,1.021-0.19,1.533-0.285
				c-1.515-2.614,2.636-8.228,5.317-5.481c0.463,0.475,2.025-0.163,1.516-0.686c-1.889-1.932-4.432-1.275-6.3,0.32
				c-1.69,1.443-3.293,4.38-2.048,6.531c0.267,0.459,1.371,0.123,1.533-0.285c0.39-0.973,0.931-1.835,1.666-2.585
				c1.254-1.277,2.17-0.271,2.738,1.081C62.628,58.693,64.252,58.208,63.993,57.595L63.993,57.595z"/>
		</g>
	</g>
	<g>
		<g>
			<path fill="currentColor" d="M64.993,52.928c-0.319-3.307-2.431-6.686-1.481-10.045c0.251-0.832,0.894-1.188,1.924-1.07
				c0.165,0.354,0.068,0.829,0.029,1.201c-0.06,0.582-0.201,1.154-0.281,1.734c-0.292,2.11,0.822,3.819,2.06,5.391
				c0.355,0.451,1.938-0.124,1.524-0.647c-1.242-1.576-1.994-2.893-1.94-4.942c0.022-0.863,0.387-1.693,0.332-2.569
				c-0.123-2.009-2.205-1.411-3.479-0.843c-4.435,1.976-0.644,8.979-0.328,12.231C63.405,53.925,65.055,53.562,64.993,52.928
				L64.993,52.928z"/>
		</g>
	</g>
	<g>
		<g>
			<path fill="currentColor" d="M69.54,50.314c3.087-1.331,6.57-4.634,9.833-2.018c0.233-0.366,0.467-0.732,0.701-1.099
				c-1.617,0.249-3.129,0.595-4.297,1.806c-1.199,1.24-1.428,3.322-2.463,4.725c-0.625,0.846,0.922,1.128,1.381,0.507
				c0.695-0.94,1.201-1.917,1.616-3.01c0.703-1.852,1.585-2.48,3.625-2.794c0.464-0.071,1.318-0.604,0.7-1.099
				c-3.986-3.194-8.029,0.345-11.832,1.982C67.771,49.761,68.687,50.682,69.54,50.314L69.54,50.314z"/>
		</g>
	</g>
	<g>
		<g>
			<path fill="currentColor" d="M79.18,48.359c1.239,0.507,2.539,0.729,3.871,0.54c0.164-0.023,1.137-0.291,0.943-0.638
				c-0.68-1.221-2.019-1.524-3.326-1.545c-0.219,0.288-0.438,0.575-0.657,0.863c0.394-0.026,0.776-0.139,1.167-0.166
				c0.373-0.025,0.845-0.114,1.088-0.435c0.229-0.3-0.193-0.446-0.432-0.43c-0.394,0.026-0.775,0.14-1.166,0.167
				c-0.373,0.024-0.846,0.114-1.088,0.435c-0.238,0.312,0.201,0.426,0.431,0.43c0.917,0.016,1.864,0.268,2.341,1.122
				c0.314-0.212,0.629-0.425,0.943-0.638c-0.969,0.138-1.903-0.094-2.797-0.46c-0.356-0.146-0.842-0.015-1.159,0.168
				C79.139,47.886,78.818,48.211,79.18,48.359L79.18,48.359z"/>
		</g>
	</g>
	<g>
		<g>
			<path fill="currentColor" d="M55.247,60.317c-0.14,0.22-0.086,0.759-0.226,0.891c0.491-0.038,0.981-0.074,1.472-0.112
				c-0.047-0.19-0.108-0.39-0.098-0.588c-0.943,0.092-1.195,0.215-0.753,0.367c0.149,0.073,0.293,0.156,0.431,0.25
				c0.365-0.246,0.729-0.493,1.096-0.74c-0.428-0.013-0.766-0.166-1.17-0.279c-0.004,0.161-0.006,0.322-0.008,0.482
				c0.398-0.368,0.617-0.466,0.86,0.113c0.169-0.173,0.338-0.346,0.507-0.518c-1.082,0.503-2.184,0.534-3.357,0.535
				c-0.363,0-0.854,0.13-1.088,0.434c-0.236,0.31,0.201,0.428,0.431,0.428c1.606-0.001,3.166-0.111,4.644-0.799
				c0.141-0.066,0.608-0.276,0.506-0.519c-0.674-1.609-2.859-0.76-3.806,0.113c-0.137,0.127-0.297,0.402-0.008,0.483
				c0.634,0.178,1.16,0.369,1.83,0.387c0.161,0.005,1.571-0.435,1.095-0.741c-0.63-0.404-1.227-0.71-1.988-0.48
				c-0.816,0.246-0.963,0.739-0.766,1.512c0.126,0.496,1.257,0.091,1.473-0.112c0.113-0.108,0.286-0.229,0.342-0.388
				c0.074-0.205-0.01-0.552,0.1-0.723C57.149,59.702,55.509,59.901,55.247,60.317L55.247,60.317z"/>
		</g>
	</g>
	<g>
		<g>
			<path fill="currentColor" d="M63.452,67.145c2.457,0.642,4.383,2.048,7.002,1.993c2.753-0.058,3.88-2.248,6.197-3.239
				c1.061-0.454,0.078-0.885-0.625-0.584c-2.191,0.938-3.406,3.193-6.136,2.938c-1.855-0.173-3.605-1.461-5.414-1.934
				C64.01,66.197,62.551,66.908,63.452,67.145L63.452,67.145z"/>
		</g>
	</g>
	<g>
		<g>
			<path fill="currentColor" d="M63.843,68.326c4.3,1.263,8.586,1.794,12.287-1.187c0.747-0.604-0.892-0.671-1.33-0.316
				c-2.997,2.414-6.6,1.55-9.962,0.563C64.276,67.223,62.898,68.049,63.843,68.326L63.843,68.326z"/>
		</g>
	</g>
	<g>
		<g>
			<path fill="currentColor" d="M62.952,90.507c7.233,0.029,15.648,0.521,20.082-6.327c0.424-0.653-1.233-0.508-1.531-0.047
				c-3.981,6.149-11.483,5.449-17.917,5.423C62.958,89.553,61.839,90.502,62.952,90.507L62.952,90.507z"/>
		</g>
	</g>
	<g>
		<g>
			<path fill="currentColor" d="M72.046,73.476c-0.471,0.021-1.639-0.351-2.258-0.638c-0.2-0.094-0.777-0.342-0.785-0.624
				c-0.008-0.255,1.263,0.627,1.396,0.808c0.386,0.525,1.443,0.125,1.584-0.424c0.125-0.485,0.619-1.798,1.213-1.86
				c-0.246-0.116-0.492-0.231-0.74-0.349c0.379,1.451-0.498,2.483-1.484,3.438c-0.275,0.267-0.139,0.64,0.201,0.747
				c0.406,0.13,0.863-0.023,1.162-0.312c1.215-1.172,2.225-2.552,1.765-4.312c-0.079-0.302-0.479-0.376-0.739-0.349
				c-1.611,0.17-2.66,1.669-3.037,3.14c0.528-0.141,1.057-0.282,1.584-0.424c-0.666-0.905-1.93-1.468-3.045-1.24
				c-0.736,0.15-1.843,0.826-1.438,1.733c0.571,1.288,3.194,1.856,4.461,1.803C72.789,74.573,73.169,73.427,72.046,73.476
				L72.046,73.476z"/>
		</g>
	</g>
	<g>
		<g>
			<path fill="currentColor" d="M76.326,66.014c6.16,0.837,12.861-2.18,14.455-8.525c0.133-0.525-1.508-0.269-1.635,0.235
				c-1.328,5.29-6.488,8.194-11.794,7.475C76.895,65.137,75.427,65.893,76.326,66.014L76.326,66.014z"/>
		</g>
	</g>
	<g>
		<g>
			<path fill="currentColor" d="M92.285,61.887c-0.037-3.881-0.463-7.744-0.5-11.625c-0.002-0.222-1.647,0.008-1.644,0.439
				c0.037,3.881,0.463,7.744,0.5,11.625C90.645,62.548,92.289,62.318,92.285,61.887L92.285,61.887z"/>
		</g>
	</g>
	<g>
		<g>
			<path fill="currentColor" d="M94.279,49.976c-1.5,0.002-3.634,0.181-4.718-1.079c-1.626-1.892,1.431-3.475,3-3.416
				c0.407,0.015,0.884-0.102,1.067-0.514c0.158-0.355-0.143-0.721-0.512-0.734c-2.119-0.08-6.142,1.268-5.6,4.094
				c0.573,2.99,4.257,2.915,6.631,2.911C95.109,51.236,95.391,49.974,94.279,49.976L94.279,49.976z"/>
		</g>
	</g>
	<g>
		<g>
			<path fill="currentColor" d="M92.924,44.301c-1.753,0.123-3,1.325-2.436,3.117c0.572,1.819,2.416,2.953,4.266,2.87
				c0.896-0.041,1.295-1.163,0.17-1.111c-1.119,0.05-2.028-0.805-2.571-1.699c-0.419-0.691-0.688-1.987,0.401-2.063
				C93.646,45.351,94.051,44.222,92.924,44.301L92.924,44.301z"/>
		</g>
	</g>
	<g>
		<g>
			<path fill="currentColor" d="M62.5,68.468c-5.258,2.594-11.397-1.731-14.777-5.572c-0.417-0.474-1.988,0.138-1.518,0.672
				c4.039,4.589,10.897,8.674,16.972,5.678C64.196,68.743,63.267,68.09,62.5,68.468L62.5,68.468z"/>
		</g>
	</g>
	<g>
		<g>
			<path fill="currentColor" d="M63.014,69.194c-0.02,3.343-0.117,6.683-0.042,10.025c0.08,3.564,0.769,6.973-0.208,10.475
				c-0.188,0.669,1.479,0.439,1.65-0.176c0.73-2.618,0.617-5.085,0.371-7.757c-0.39-4.23-0.146-8.503-0.121-12.743
				C64.669,68.262,63.017,68.582,63.014,69.194L63.014,69.194z"/>
		</g>
	</g>
	<g>
		<g>
			<path fill="currentColor" d="M75.638,67.566c-0.302,3.237,0.95,6.113,2.29,8.994c1.159,2.493,1.593,6.091,3.777,7.886
				c0.502,0.411,2.041-0.249,1.517-0.68c-1.924-1.58-2.2-4.54-3.216-6.727c-1.428-3.069-3.041-6.154-2.715-9.645
				C77.361,66.644,75.697,66.929,75.638,67.566L75.638,67.566z"/>
		</g>
	</g>
	<g>
		<g>
			<path fill="currentColor" d="M70.518,90.701c0.116,1.108,0.148,2.224,0.625,3.25c0.235,0.508,1.833-0.025,1.642-0.438
				c-0.477-1.027-0.508-2.144-0.625-3.25C72.113,89.803,70.459,90.148,70.518,90.701L70.518,90.701z"/>
		</g>
	</g>
	<g>
		<g>
			<path fill="currentColor" d="M71.81,93.155c-3.05,1.122-4.36,3.906-6.894,5.69c-0.912,0.643,0.424,1.245,1.096,0.771
				c2.207-1.555,3.486-4.347,6.105-5.31C73.089,93.95,72.807,92.789,71.81,93.155L71.81,93.155z"/>
		</g>
	</g>
	<g>
		<g>
			<path fill="currentColor" d="M78.518,87.201c0.615,2.16,2.028,3.933,2.727,6.061c0.802,2.44-0.935,5.215-1.347,7.592
				c-0.094,0.538,1.55,0.243,1.634-0.242c0.414-2.384,1.553-4.516,1.504-6.974c-0.047-2.43-2.222-4.584-2.875-6.875
				C80.021,86.271,78.381,86.721,78.518,87.201L78.518,87.201z"/>
		</g>
	</g>
	<g>
		<g>
			<path fill="currentColor" d="M69.243,80.558c-0.338,0.062-0.689-0.352-0.799-0.622c-0.049-0.118-0.07-0.251-0.013-0.367
				c-0.259,0.527-1.51,0.15-0.97,0.384c0.174,0.075,0.328,0.194,0.479,0.309c0.34,0.258,1.25-0.1,1.518-0.344
				c0.05-0.044,0.099-0.087,0.146-0.131c-0.312,0.081-0.398,0.109-0.258,0.086c0.198-0.023,0.395-0.05,0.589-0.092
				c-0.223-0.026-0.444-0.053-0.667-0.079c0.061,0.354-0.102,0.521-0.4,0.676c-0.123,0.063-0.576,0.34-0.205,0.421
				c0.357,0.078,0.832-0.05,1.148-0.212c0.539-0.276,1.219-0.614,1.1-1.323c-0.033-0.196-0.567-0.102-0.668-0.079
				c-0.836,0.179-1.608,0.26-2.271,0.863c0.506-0.114,1.012-0.229,1.518-0.344c-0.483-0.367-0.938-0.521-1.545-0.411
				c-0.455,0.082-1.139,0.271-1.189,0.815c-0.032,0.339,0.268,0.674,0.52,0.855c0.467,0.339,1.131,0.288,1.663,0.191
				c0.276-0.05,0.817-0.159,0.964-0.443C70.034,80.447,69.316,80.545,69.243,80.558L69.243,80.558z"/>
		</g>
	</g>
	<g>
		<g>
			<path fill="currentColor" d="M75.49,78.979c-0.74-0.116-0.983-0.803-1.08-1.467c-0.43,0.266-0.858,0.531-1.289,0.799
				c0.52,0.229,0.836,0.751,1.021,1.266c0.236,0.657,1.393,0.489,1.611-0.106c0.183-0.498,0.518-0.725,0.888-1.082
				c-0.458-0.062-0.916-0.123-1.374-0.187c0.167,0.582,0.037,1.073-0.373,1.514c-0.273,0.294-0.122,0.712,0.227,0.847
				c0.41,0.157,0.875-0.002,1.162-0.312c0.635-0.683,0.886-1.588,0.627-2.487c-0.154-0.543-1.035-0.516-1.373-0.187
				c-0.545,0.527-1.092,0.93-1.362,1.668c0.537-0.034,1.073-0.07,1.61-0.106c-0.315-0.881-0.859-1.597-1.729-1.984
				c-0.525-0.232-1.38,0.166-1.289,0.799c0.176,1.222,0.932,2.09,2.17,2.283c0.396,0.062,0.897-0.133,1.066-0.516
				C76.175,79.333,75.849,79.035,75.49,78.979L75.49,78.979z"/>
		</g>
	</g>
	<g>
		<g>
			<path fill="currentColor" d="M69.978,80.827c-1.187-0.29-1.94-1.584-2.192-2.689c-0.316,0.206-0.633,0.412-0.949,0.617
				c-0.084-0.014-0.074-0.001,0.031,0.036c0.095,0.061,0.166,0.155,0.236,0.241c0.168,0.209,0.262,0.496,0.359,0.742
				c0.195,0.488,0.373,0.992,0.732,1.388c0.332,0.365,1.422-0.022,1.584-0.424c0.268-0.656,0.414-1.651,1.055-2.063
				c-0.439,0.01-0.879,0.019-1.317,0.026c0.474,0.952,0.129,2.081-0.437,2.918c-0.385,0.571,1.25,0.367,1.515-0.024
				c0.636-0.941,1.106-2.243,0.563-3.332c-0.198-0.401-1.045-0.148-1.316,0.026c-1.028,0.662-1.258,1.611-1.696,2.687
				c0.528-0.142,1.056-0.282,1.584-0.424c-0.461-0.508-0.589-1.241-0.905-1.836c-0.367-0.692-0.988-0.86-1.733-0.757
				c-0.239,0.033-1.036,0.234-0.949,0.617c0.33,1.453,1.333,2.699,2.808,3.061C69.405,81.747,70.874,81.045,69.978,80.827
				L69.978,80.827z"/>
		</g>
	</g>
	<g>
		<g>
			<path fill="currentColor" d="M73.926,85.807c-0.777,0.03-3.185-1.823-2.054-2.497c-0.451-0.036-0.902-0.072-1.354-0.108
				c0.304,0.735,0.664,1.441,1.065,2.128c0.3,0.514,1.517,0.108,1.583-0.425c0.078-0.634,0.092-1.809,0.771-2.115
				c-0.391-0.07-0.781-0.142-1.171-0.213c0.565,1.121,0.519,2.441,0.043,3.589c-0.345,0.832,1.306,0.741,1.558,0.134
				c0.543-1.314,0.701-2.856,0.043-4.161c-0.217-0.431-0.789-0.386-1.172-0.213c-1.303,0.591-1.565,1.833-1.727,3.135
				c0.528-0.143,1.055-0.283,1.583-0.425c-0.354-0.604-0.666-1.227-0.935-1.872c-0.22-0.533-0.983-0.329-1.354-0.108
				c-2.632,1.567,1.129,4.323,2.945,4.253C74.646,86.871,75.051,85.764,73.926,85.807L73.926,85.807z"/>
		</g>
	</g>
	<g>
		<g>
			<path fill="currentColor" d="M71.036,62.762c-0.121-1.378-0.199-2.725,0.011-4.095c-0.528,0.142-1.056,0.283-1.584,0.425
				c1.393,1.757-0.905,4.799,1.243,6.235c0.365,0.244,1.064,0.142,1.32-0.231c1.506-2.192,2.157-7.9-1.21-8.79
				c-0.531-0.141-1.347,0.107-1.296,0.771c0.121,1.583,1.054,2.749,1.701,4.148c0.673,1.453,0.319,3.31,0.039,4.82
				c-0.157,0.841,1.485,0.56,1.664-0.127c0.468-1.812,1.258-3.573,0.489-5.406c-0.307-0.731-1.936-0.26-1.643,0.438
				c0.725,1.73-0.071,3.396-0.511,5.095c0.555-0.042,1.109-0.086,1.664-0.127c0.287-1.537,0.472-3.117,0.113-4.656
				c-0.387-1.668-1.738-2.844-1.875-4.625c-0.432,0.257-0.863,0.514-1.295,0.771c2.47,0.652,1.89,5.606,0.789,7.21
				c0.439-0.078,0.879-0.154,1.319-0.231c-1.575-1.056,0.252-4.423-1.006-6.015c-0.394-0.496-1.489-0.197-1.584,0.425
				c-0.226,1.471-0.118,2.932,0.011,4.405C69.458,63.947,71.104,63.551,71.036,62.762L71.036,62.762z"/>
		</g>
	</g>
</g>
</svg>
