<?xml version="1.0" encoding="utf-8"?>
<!-- Generator: Adobe Illustrator 16.0.0, SVG Export Plug-In . SVG Version: 6.00 Build 0)  -->
<!DOCTYPE svg PUBLIC "-//W3C//DTD SVG 1.1//EN" "http://www.w3.org/Graphics/SVG/1.1/DTD/svg11.dtd">
<svg version="1.1" id="Layer_1" xmlns="http://www.w3.org/2000/svg" xmlns:xlink="http://www.w3.org/1999/xlink"
     width="100%" height="100%" viewBox="0 0 141.73 141.73" >
<g>
	<g>
		<g>
			<path fill="currentColor" d="M71.16,76.383c5.799-1.713,10.561-5.432,15.888-8.146c0.691-0.352,0.073-1.026-0.52-0.724
				c-5.227,2.664-9.901,6.354-15.592,8.034C70.235,75.755,70.454,76.591,71.16,76.383L71.16,76.383z"/>
		</g>
	</g>
	<g>
		<g>
			<path fill="currentColor" d="M71.35,75.368c-1.085-1.83-2.918-2.834-4.71-3.871c-3.109-1.799-4.856-4.291-6.619-7.364
				c-0.182-0.317-1.135,0.025-0.996,0.267c1.337,2.332,2.686,4.581,4.818,6.278c2.152,1.712,5.038,2.472,6.511,4.958
				C70.541,75.951,71.491,75.605,71.35,75.368L71.35,75.368z"/>
		</g>
	</g>
	<g>
		<g>
			<path fill="currentColor" d="M70.55,73.363c0.267,3.655-1.224,7.082-1.468,10.693c-0.03,0.439,0.858,0.304,0.884-0.074
				c0.248-3.672,1.729-7.136,1.458-10.854C71.396,72.749,70.52,72.955,70.55,73.363L70.55,73.363z"/>
		</g>
	</g>
	<g>
		<g>
			<path fill="currentColor" d="M68.712,83.607c-1.409,1.832-2.798,3.671-4.075,5.598c-0.075,0.112-0.019,0.263,0.088,0.329
				c1.619,0.999,3.384,1.208,5.244,1.41c2.68,0.29,5.334,0.809,8.004,1.178c0.475,0.065,1.044-0.606,0.361-0.701
				c-2.672-0.368-5.326-0.859-8.005-1.177c-0.516-0.062-5.084-0.408-4.203-1.738c1.06-1.599,2.258-3.11,3.426-4.629
				C69.941,83.371,68.977,83.263,68.712,83.607L68.712,83.607z"/>
		</g>
	</g>
	<g>
		<g>
			<path fill="currentColor" d="M68.954,84.836c0.451,3.041-0.238,6.028-1.439,8.821c-0.115,0.269,0.104,0.456,0.352,0.496
				c3.403,0.545,6.953,0.551,10.279-0.421c0.7-0.204,0.489-1.011-0.215-0.805c-3.14,0.917-6.466,0.891-9.675,0.376
				c0.117,0.166,0.234,0.331,0.352,0.496c1.263-2.938,1.959-6.074,1.486-9.269C70.014,83.988,68.871,84.276,68.954,84.836
				L68.954,84.836z"/>
		</g>
	</g>
	<g>
		<g>
			<path fill="currentColor" d="M65.51,67.809c2.788-2.321,5.669-4.74,9.513-2.946c2.368,1.105,2.83,4.228,2.953,6.508c0.016,0.3,0.951,0.108,0.932-0.25
				c-0.184-3.417-1.572-7.172-5.54-7.438c-3.717-0.249-5.879,1.704-8.604,3.973C64.35,68,65.28,68,65.51,67.809L65.51,67.809z"/>
		</g>
	</g>
	<g>
		<g>
			<path fill="currentColor" d="M64.824,68.183c1.452,5.951,9.735,6.657,13.801,3.17c0.48-0.412-0.27-0.695-0.611-0.401
				c-3.672,3.147-10.966,2.276-12.258-3.019C65.654,67.518,64.721,67.764,64.824,68.183L64.824,68.183z"/>
		</g>
	</g>
	<g>
		<g>
			<path fill="currentColor" d="M67.611,70.673c-1.596-1.601,0.468-4.23,1.501-5.569c0.222-0.288-0.698-0.177-0.855,0.026
				c-1.12,1.451-3.227,4.168-1.518,5.882C66.938,71.212,67.809,70.872,67.611,70.673L67.611,70.673z"/>
		</g>
	</g>
	<g>
		<g>
			<path fill="currentColor" d="M76.17,72.423c1.051-1.684,3.159-4.085,1.45-6.009c-0.223-0.251-1.113,0.089-0.863,0.37
				c1.578,1.776-0.491,4.06-1.458,5.609C75.062,72.773,76.002,72.691,76.17,72.423L76.17,72.423z"/>
		</g>
	</g>
	<g>
		<g>
			<path fill="currentColor" d="M70.632,67.106c0.323,0,1-0.491,0.372-0.491C70.681,66.615,70.003,67.106,70.632,67.106L70.632,67.106z"/>
		</g>
	</g>
	<g>
		<g>
			<path fill="currentColor" d="M66.874,64.954c2.829-1.262,5.455-2.733,8.662-1.672c2.07,0.684,3.026,3.019,3.632,4.902
				c0.082,0.255,1.008-0.013,0.932-0.25c-0.829-2.58-2.263-5.065-5.223-5.408c-3.229-0.373-5.684,0.973-8.553,2.253
				C65.757,65.031,66.626,65.064,66.874,64.954L66.874,64.954z"/>
		</g>
	</g>
	<g>
		<g>
			<path fill="currentColor" d="M71.755,66.205c-0.473-0.156-0.85-0.032-1.281,0.159c0.172-0.046,0.344-0.092,0.516-0.138
				c-0.014,0.002-0.028,0.004-0.042,0.006c0.27,0.104,0.54,0.209,0.81,0.313c-0.006-0.009-0.012-0.017-0.018-0.026
				c0.034,0.126,0.067,0.251,0.101,0.377c0.004-0.023,0.009-0.046,0.013-0.069c-0.182,0.226-0.364,0.451-0.545,0.676
				c0.306-0.187,0.543-0.382,0.798-0.632c-0.602-0.085-1.204-0.169-1.806-0.254c0,0.114,0,0.227-0.009,0.341
				c0.009-0.106,0.265-0.383,0.09-0.214c0.542,0.074,1.083,0.147,1.624,0.221c-0.044-0.084-0.078-0.173-0.102-0.265
				c0.021,0.068-0.097,0.22-0.093,0.218c0.345-0.214,0.753-0.623,0.444-1.053c-0.273-0.381-0.952-0.408-1.326-0.175
				c-0.672,0.418-1.237,0.957-0.864,1.794c0.263,0.59,1.169,0.662,1.624,0.221c0.391-0.379,0.583-0.656,0.584-1.213
				c0.003-1.004-1.346-0.706-1.806-0.254c-0.323,0.317-0.857,0.657-0.479,1.185c0.169,0.237,0.528,0.353,0.81,0.313
				c0.21-0.03,0.362-0.057,0.558-0.144c0.08-0.036,0.258-0.07-0.005-0.008c-0.248-0.008-0.495-0.016-0.742-0.023
				c0.014,0.004,0.028,0.009,0.042,0.014c0.473,0.156,1.051,0.031,1.372-0.368C72.306,66.857,72.203,66.352,71.755,66.205
				L71.755,66.205z"/>
		</g>
	</g>
	<g>
		<g>
			<path fill="currentColor" d="M70.25,84.33c0.025-1.393,0.212-2.721,0.521-4.077c0.361-1.588,0.404-3.205,0.735-4.796
				c0.102-0.489-1.017-0.326-1.107,0.109c-0.288,1.384-0.312,2.799-0.586,4.186c-0.312,1.583-0.641,3.062-0.67,4.688
				C69.133,84.965,70.243,84.764,70.25,84.33L70.25,84.33z"/>
		</g>
	</g>
	<g>
		<g>
			<path fill="currentColor" d="M59.376,64.032c-1.599,0.152-3.325,0.031-4.545-1.13c-1.26-1.199-0.623-3.201,0.078-4.501
				c0.403-0.748,1.048-1.373,1.726-1.865c1.252-0.91,2.403-0.126,3.027,1.062c0.684,1.302,0.836,2.911,0.417,4.312
				c-0.621,2.076-3.11,2.315-4.568,0.922c-1.073-1.025-0.869-2.826-0.46-4.085c0.213-0.658,1.025-2.653,2.059-2.007
				c0.759,0.474,1.095,1.535,1.323,2.345c0.229,0.81,0.32,1.697,0.101,2.515c-0.343,1.279-1.504-0.197-1.666-0.544
				c-0.186-0.399,0.141-1.212,0.225-0.464c0.032,0.283,1.139,0.054,1.101-0.295c-0.186-1.655-2.803-0.55-2.425,1.054
				c0.239,1.016,1.558,1.455,2.467,1.211c1.113-0.298,1.492-1.045,1.53-2.151c0.065-1.885-1.163-5.192-3.583-4.253
				c-2.13,0.826-2.99,4.081-2.32,6.08c0.698,2.084,3.593,2.446,5.354,1.642c2.12-0.968,2.488-3.345,1.981-5.42
				c-1.507-6.172-9.468-0.776-8.003,3.883c0.697,2.219,3.859,2.394,5.729,2.216C59.253,64.524,60.106,63.962,59.376,64.032
				L59.376,64.032z"/>
		</g>
	</g>
	<g>
		<g>
			<path fill="currentColor" d="M56.76,55.653c0.056-0.074,0.102-0.207,0.174-0.266c-0.201,0.078-0.402,0.157-0.603,0.235
				c0.038-0.006,0.077-0.013,0.115-0.019c-0.147-0.012-0.295-0.024-0.442-0.036c0.111,0.214,0.566-0.136,0.172,0.019
				c-0.097,0.039-0.192,0.096-0.247,0.187c-0.094,0.158,0.397,0.087,0.433,0.081c0.186-0.035,0.541-0.104,0.649-0.286
				c0.006-0.01,0.012-0.02,0.018-0.03c-0.077,0.052-0.153,0.104-0.229,0.157c-0.094,0.037,0.223-0.094,0.27-0.139
				c0.107-0.102,0.103-0.151,0.035-0.284c-0.063-0.122-0.347-0.051-0.442-0.036c-0.221,0.036-0.445,0.087-0.64,0.201
				c-0.18,0.105-0.224,0.262-0.344,0.42c-0.11,0.146,0.409,0.085,0.433,0.081C56.318,55.899,56.624,55.832,56.76,55.653
				L56.76,55.653z"/>
		</g>
	</g>
	<g>
		<g>
			<path fill="currentColor" d="M53.31,58.685c-0.037-0.063-0.026-0.07,0.034-0.021c0.207,0.165,0.433-0.221,0.552-0.313
				c0.186-0.144,0.115-0.335-0.101-0.376c-0.268-0.051-0.566,0.044-0.778,0.208c-0.312,0.241-0.615,0.666-0.185,0.94
				c0.405,0.259,1.164-0.11,1.472-0.374c0.342-0.293,0.03-0.645-0.322-0.698c-0.57-0.085-1.117,0.088-1.551,0.465
				c-0.173,0.15-0.125,0.333,0.101,0.376C52.79,58.943,53.112,58.857,53.31,58.685L53.31,58.685z"/>
		</g>
	</g>
	<g>
		<g>
			<path fill="currentColor" d="M52.94,63.67c0.084-0.034,0.166-0.073,0.246-0.115c0.267-0.134-0.352-0.234-0.151,0.052
				c0.089-0.177,0.179-0.355,0.269-0.533c-0.196,0.107-0.397,0.14-0.61,0.2c-0.67,0.188-0.486,0.889,0.188,0.699
				c0.31-0.087,0.611-0.147,0.896-0.304c0.184-0.101,0.43-0.303,0.269-0.533c-0.425-0.606-1.032-0.304-1.579-0.063
				c-0.183,0.081-0.437,0.321-0.269,0.533C52.367,63.821,52.727,63.765,52.94,63.67L52.94,63.67z"/>
		</g>
	</g>
	<g>
		<g>
			<path fill="currentColor" d="M61.091,60.524c0.085-0.001,0.168-0.01,0.251-0.027c0.12-0.03,0.14-0.03,0.061,0.002
				c0.054-0.137,0.107-0.274,0.161-0.411c0.313,0.087,0.397,0.087,0.252-0.002c-0.073-0.06-0.147-0.118-0.223-0.175
				c-0.315-0.235-1.323,0.223-0.868,0.562c0.514,0.382,0.995,0.375,1.535-0.009c0.097-0.069,0.321-0.281,0.161-0.411
				c-0.39-0.316-0.729-0.223-1.194-0.193C60.66,59.896,60.332,60.573,61.091,60.524L61.091,60.524z"/>
		</g>
	</g>
	<g>
		<g>
			<path fill="currentColor" d="M59.707,56.043c0.234-0.063,0.418-0.16,0.62-0.291c-0.174,0.065-0.347,0.131-0.521,0.196
				c0.026-0.004,0.053-0.008,0.08-0.013c-0.141-0.013-0.282-0.026-0.422-0.039c0.03,0.018,0.061,0.037,0.091,0.055
				c0.064-0.099,0.127-0.199,0.191-0.298c-0.036,0.018-0.071,0.035-0.106,0.052c0.185-0.05,0.37-0.099,0.555-0.149
				c-0.025,0-0.051,0-0.076,0.001c0.095,0.018,0.19,0.036,0.285,0.054c-0.109-0.06-0.177-0.139-0.304-0.17
				c-0.251-0.063-0.547,0.013-0.772,0.128c-0.098,0.05-0.377,0.268-0.123,0.332c0.175,0.044,0.242,0.159,0.452,0.157
				c0.268-0.003,0.5-0.085,0.738-0.202c0.056-0.027,0.343-0.206,0.191-0.298c-0.2-0.121-0.363-0.119-0.594-0.082
				c-0.144,0.023-0.288,0.067-0.418,0.134c-0.142,0.073-0.351,0.125,0.023,0.024c-0.112,0.03-0.547,0.16-0.496,0.351
				C59.153,56.178,59.594,56.074,59.707,56.043L59.707,56.043z"/>
		</g>
	</g>
	<g>
		<g>
			<path fill="currentColor" d="M56.418,64.68c-0.022,0.072-0.031,0.146-0.025,0.221c-0.009,0.113,0.008,0.112,0.052-0.004
				c0.17-0.077,0.341-0.154,0.512-0.231c-0.031,0.004-0.062,0.009-0.094,0.014c0.164,0.074,0.328,0.147,0.492,0.221
				c-0.085,0.013-0.095-0.008-0.03-0.062c0.065-0.088,0.093-0.156,0.119-0.261c0.122-0.493-0.999-0.343-1.109,0.103
				c0.039-0.158-0.066,0.073-0.103,0.14c-0.068,0.124-0.033,0.259,0.023,0.375c0.09,0.185,0.292,0.25,0.492,0.221
				c0.263-0.038,0.451-0.103,0.648-0.284c0.154-0.142,0.095-0.374,0.132-0.555C57.631,64.072,56.51,64.23,56.418,64.68L56.418,64.68
				z"/>
		</g>
	</g>
	<g>
		<g>
			<path fill="currentColor" d="M78.046,91.751c0.512,0.243,1.052,0.408,1.59,0.586c0.25,0.083,0.552,0.014,0.775-0.113
				c0.119-0.067,0.361-0.305,0.107-0.389c-0.537-0.178-1.077-0.343-1.59-0.586C78.634,91.108,77.619,91.549,78.046,91.751
				L78.046,91.751z"/>
		</g>
	</g>
	<g>
		<g>
			<path fill="currentColor" d="M77.899,93.915c0.366,0.358,0.758,0.685,1.166,0.995c0.378,0.286,1.349-0.247,0.852-0.625
				c-0.352-0.266-0.694-0.541-1.01-0.849C78.56,93.097,77.52,93.544,77.899,93.915L77.899,93.915z"/>
		</g>
	</g>
	<g>
		<g>
			<path fill="currentColor" d="M56.746,52.973c0.35-0.54,1.276-1.212,1.817-0.575c0.325,0.383,1.37-0.057,1.007-0.485
				c-1.121-1.322-3.116-0.24-3.876,0.933c-0.154,0.238,0.134,0.44,0.336,0.464C56.319,53.346,56.589,53.214,56.746,52.973
				L56.746,52.973z"/>
		</g>
	</g>
	<g>
		<g>
			<path fill="currentColor" d="M53.327,66.797c-0.677,0.209-0.933-0.863-0.91-1.312c0.008-0.17-1.083-0.035-1.101,0.295
				c-0.065,1.28,1.017,1.703,2.104,1.366c0.095-0.029,0.55-0.148,0.503-0.322C53.878,66.655,53.421,66.768,53.327,66.797
				L53.327,66.797z"/>
		</g>
	</g>
	<g>
		<g>
			<path fill="currentColor" d="M83.964,57.159c0.673,8.792,4.423,17.255,5.357,26.034c0.041,0.386,1.146,0.139,1.1-0.295
				c-0.935-8.777-4.684-17.242-5.357-26.034C85.034,56.483,83.93,56.722,83.964,57.159L83.964,57.159z"/>
		</g>
	</g>
	<g>
		<g>
			<path fill="currentColor" d="M84.447,56.661c-1.628-1.384,0.626-3.077-0.375-4.699c-0.615-0.997-2.342-1.436-2.189-2.799
				c0.013-0.113-1.064-0.021-1.1,0.295c-0.153,1.365,1.719,2.037,2.342,3.046c0.969,1.57-1.453,3.046,0.283,4.522
				C83.625,57.21,84.588,56.78,84.447,56.661L84.447,56.661z"/>
		</g>
	</g>
	<g>
		<g>
			<path fill="currentColor" d="M85.231,56.78c-0.486-1.01-1.073-1.874-1.851-2.688c-0.274-0.289-0.536-0.47-0.852-0.693
				c-0.86-0.607-0.387-1.44,0.053-2.156c0.919-1.496,1.932-2.871,0.431-4.335c-0.308-0.301-1.351,0.125-1.016,0.452
				c1.854,1.81-0.811,3.65-1.145,5.564c-0.078,0.446,0.189,0.697,0.525,0.901c1.274,0.774,2.112,1.917,2.754,3.25
				C84.334,57.496,85.413,57.157,85.231,56.78L85.231,56.78z"/>
		</g>
	</g>
</g>
</svg>
