<?xml version="1.0" encoding="utf-8"?>
<!-- Generator: Adobe Illustrator 16.0.0, SVG Export Plug-In . SVG Version: 6.00 Build 0)  -->
<!DOCTYPE svg PUBLIC "-//W3C//DTD SVG 1.1//EN" "http://www.w3.org/Graphics/SVG/1.1/DTD/svg11.dtd">
<svg version="1.1" id="Layer_1" xmlns="http://www.w3.org/2000/svg" xmlns:xlink="http://www.w3.org/1999/xlink"
	 width="100%" height="100%" >
<g>
	<g>
		<g>
			<path fill="currentColor" d="M46.032,59.266c1.569-2.606,4.389-6.824,7.97-5.967c3.083,0.737,4.55,4.64,5.441,7.268
				c0.19,0.561,2.141-0.016,1.968-0.527c-1.311-3.869-3.592-8.203-8.294-7.772c-4.138,0.379-7.056,4.014-9.037,7.303
				C43.861,59.934,45.713,59.795,46.032,59.266L46.032,59.266z"/>
		</g>
	</g>
	<g>
		<g>
			<path fill="currentColor" d="M44.829,62.053c2.696,1.799,5.497,3.864,8.835,4.104c3.153,0.227,5.573-2.048,7.324-4.38
				c0.754-1.005-1.104-1.321-1.65-0.593c-1.919,2.557-4.006,4.159-7.265,3.058c-2.065-0.698-3.933-2.135-5.729-3.333
				C45.61,60.42,43.891,61.427,44.829,62.053L44.829,62.053z"/>
		</g>
	</g>
	<g>
		<g>
			<path fill="currentColor" d="M54.159,59.178c-0.077-0.514-0.184-1.556,0.269-1.85c-0.546-0.064-1.092-0.127-1.638-0.191
				c0.196,0.461,0.238,0.891,0.137,1.381c-0.033,0.163-0.116,0.292-0.177,0.363c0.208-0.244,0.855-0.418,1.053-0.179
				c-0.068-0.083-0.095-0.178-0.131-0.278c-0.127-0.355-0.168-0.839,0.028-1.128c0.015-0.021,0.213-0.206,0.079-0.097
				c-0.216,0.175-0.587,0.165-0.82,0.041c-0.056-0.03-0.038-0.096,0.016,0.033c0.048,0.114,0.063,0.242,0.082,0.362
				c0.141,0.92,2.113,0.423,1.968-0.527c-0.173-1.132-1.291-1.53-2.27-0.996c-0.957,0.523-1.378,1.646-1.095,2.683
				c0.147,0.537,0.398,0.979,0.922,1.206c0.599,0.259,1.329-0.058,1.762-0.474c0.741-0.713,0.796-2.022,0.416-2.917
				c-0.282-0.664-1.148-0.509-1.638-0.191c-1.079,0.7-1.099,2.151-0.928,3.287C52.329,60.625,54.302,60.129,54.159,59.178
				L54.159,59.178z"/>
		</g>
	</g>
	<g>
		<g>
			<path fill="currentColor" d="M50.349,66.341c2.167,0.331,4.402,1.96,6.317,0.012c0.237-0.241-0.057-0.351-0.267-0.381
				c-0.917-0.131-1.782-0.066-2.703,0.034c-1.861,0.204-3.217-0.789-4.722-1.688c-0.438-0.262-2.24,0.386-1.848,0.693
				c2.462,1.927,4.478,3.508,7.816,2.678c1.373-0.342,4.736-1.339,4.272-3.288c-0.118-0.494-2.091,0.01-1.968,0.527
				c0.52,2.179-3.95,2.089-4.947,1.82c-1.255-0.339-2.334-1.654-3.326-2.431c-0.616,0.231-1.232,0.462-1.848,0.693
				c1.122,0.67,2.203,1.381,3.449,1.797c1.439,0.48,3.086-0.182,4.564,0.029c-0.089-0.127-0.178-0.254-0.267-0.381
				c-0.171,0.174-2.791-0.908-3.265-0.98C51.143,65.405,49.326,66.185,50.349,66.341L50.349,66.341z"/>
		</g>
	</g>
	<g>
		<g>
			<path fill="currentColor" d="M52.05,68.076c-0.009,5.358-0.124,10.717-0.133,16.075c-0.001,0.95,1.981,0.591,1.982-0.191
				c0.009-5.358,0.124-10.716,0.133-16.074C54.034,66.935,52.051,67.294,52.05,68.076L52.05,68.076z"/>
		</g>
	</g>
	<g>
		<g>
			<path fill="currentColor" d="M54.169,72.278c2.542-0.097,4.713-0.699,6.546-2.537c1.36-1.364,3.116-2.375,4.408-3.771
				c1.418-1.531,2.607-3.246,3.992-4.805c0.504-0.567-1.442-0.372-1.81,0.042c-1.531,1.722-2.765,3.749-4.53,5.25
				c-2.158,1.834-4.896,4.738-7.803,4.848C54.341,71.329,52.851,72.327,54.169,72.278L54.169,72.278z"/>
		</g>
	</g>
	<g>
		<g>
			<path fill="currentColor" d="M52.767,71.625c-3.348,0.332-6.016-0.138-8.109-2.963c-1.929-2.603-2.98-5.943-3.076-9.15
				c-0.021-0.68-1.992-0.274-1.968,0.527c0.117,3.908,1.726,8.224,4.585,10.978c2.197,2.115,5.505,2.047,8.317,1.769
				C53.507,72.688,54.126,71.491,52.767,71.625L52.767,71.625z"/>
		</g>
	</g>
	<g>
		<g>
			<path fill="currentColor" d="M51.99,83.655c0.87,1.676,1.228,3.524,2.156,5.214c1.261,2.294,1.661,4.719,1.903,7.3
				c0.06,0.636,2.037,0.211,1.968-0.527c-0.218-2.315-0.542-4.549-1.562-6.66c-0.429-0.888-0.942-1.729-1.366-2.621
				c-0.497-1.043-0.597-2.201-1.132-3.232C53.612,82.463,51.705,83.106,51.99,83.655L51.99,83.655z"/>
		</g>
	</g>
	<g>
		<g>
			<path fill="currentColor" d="M51.191,83.737c0.015,0.68-1.041,0.649-1.57,0.885c-0.856,0.381-1.331,0.937-1.681,1.789
				c-1.13,2.754-0.117,5.882-1.324,8.6c-0.111,0.251,1.723,0.111,1.936-0.367c1.188-2.676,0.505-5.796,1.323-8.601
				c0.488-1.671,3.321-1.073,3.284-2.833C53.153,82.939,51.18,83.226,51.191,83.737L51.191,83.737z"/>
		</g>
	</g>
	<g>
		<g>
			<path fill="currentColor" d="M69.578,84.441c-0.052-16.024-1.28-32.015-1.331-48.039c-0.003-1.087-2.004-0.833-2.001,0.122
				c0.052,16.024,1.28,32.016,1.331,48.04C67.58,85.651,69.581,85.396,69.578,84.441L69.578,84.441z"/>
		</g>
	</g>
	<g>
		<g>
			<path fill="currentColor" d="M67.298,36.731c-0.007-1.446-0.059-2.837,0.66-4.141c-0.654,0.137-1.308,0.273-1.961,0.41
				c0.538,1.245,0.922,2.533,1.197,3.859c0.117,0.563,2.093,0.078,1.968-0.527c-0.275-1.327-0.659-2.615-1.197-3.859
				c-0.273-0.632-1.731-0.007-1.961,0.41c-0.753,1.367-0.68,2.863-0.672,4.375C65.333,37.741,67.302,37.404,67.298,36.731
				L67.298,36.731z"/>
		</g>
	</g>
	<g>
		<g>
			<path fill="currentColor" d="M64.474,41.698c1.898,0.188,3.79,0.486,5.518-0.534c0.281-0.166,0.582-0.587,0.165-0.797
				c-0.427-0.215-1.01-0.051-1.395,0.176c-0.944,0.558-2.503,0.103-3.531,0.001C64.451,40.468,63.146,41.567,64.474,41.698
				L64.474,41.698z"/>
		</g>
	</g>
	<g>
		<g>
			<path fill="currentColor" d="M64.095,45.558c1.641,0,3.283,0,4.924,0c1.117,0,1.517-1.419,0.181-1.419c-1.641,0-3.283,0-4.924,0
				C63.159,44.139,62.759,45.558,64.095,45.558L64.095,45.558z"/>
		</g>
	</g>
	<g>
		<g>
			<path fill="currentColor" d="M76.121,63.727c1.553-2.579,4.379-6.835,7.967-5.976c3.084,0.738,4.557,4.662,5.446,7.287
				c0.174,0.515,2.124-0.065,1.967-0.527c-1.314-3.88-3.582-8.171-8.284-7.74c-4.132,0.378-7.062,3.993-9.043,7.281
				C73.988,64.359,75.813,64.236,76.121,63.727L76.121,63.727z"/>
		</g>
	</g>
	<g>
		<g>
			<path fill="currentColor" d="M74.749,66.28c2.814,1.878,5.775,4.109,9.319,3.989c3.089-0.105,5.393-2.151,7.153-4.498
				c0.103-0.137-1.595-0.096-1.938,0.361c-2.061,2.747-4.101,4.009-7.392,2.663c-1.889-0.773-3.599-2.045-5.286-3.172
				C76.156,65.323,74.519,66.125,74.749,66.28L74.749,66.28z"/>
		</g>
	</g>
	<g>
		<g>
			<path fill="currentColor" d="M84.249,63.649c-0.074-0.497-0.198-1.599,0.259-1.894c-0.542-0.049-1.084-0.098-1.626-0.147
				c0.214,0.503,0.247,0.98,0.11,1.509c-0.062,0.239-0.295,0.338,0.071,0.129c0.25-0.025,0.5-0.049,0.751-0.074
				c0.156,0.116,0.185,0.121,0.083,0.015c-0.07-0.084-0.098-0.19-0.134-0.292c-0.156-0.436-0.154-0.85,0.083-1.252
				c-0.034,0.058,0.147-0.128,0.012-0.017c-0.193,0.157-0.607,0.17-0.815,0.059c0.006,0.003,0.085,0.295,0.104,0.421
				c0.13,0.853,2.104,0.365,1.967-0.527c-0.172-1.127-1.298-1.469-2.256-0.946c-0.949,0.519-1.394,1.591-1.108,2.633
				c0.147,0.541,0.389,0.942,0.911,1.169c0.573,0.249,1.344-0.071,1.762-0.474c0.739-0.71,0.808-1.983,0.426-2.881
				c-0.27-0.635-1.172-0.44-1.626-0.147c-1.078,0.697-1.111,2.102-0.94,3.243C82.409,65.029,84.383,64.542,84.249,63.649
				L84.249,63.649z"/>
		</g>
	</g>
	<g>
		<g>
			<path fill="currentColor" d="M80.259,70.748c2.151,0.329,4.567,1.995,6.49,0.042c0.121-0.124,0.13-0.252-0.076-0.282
				c-0.979-0.141-1.885-0.079-2.868,0.029c-1.878,0.207-3.219-0.824-4.733-1.731c-0.412-0.247-2.136,0.439-1.857,0.657
				c1.095,0.856,2.176,2.152,3.564,2.527c1.339,0.361,2.881,0.438,4.238,0.101c1.341-0.333,4.747-1.306,4.29-3.22
				c-0.095-0.397-2.068,0.103-1.967,0.527c0.492,2.066-3.268,2.135-4.327,2.02c-1.534-0.166-2.803-1.721-3.941-2.612
				c-0.619,0.219-1.238,0.438-1.857,0.657c1.605,0.961,2.963,1.884,4.879,1.884c0.406,0,3.694-0.189,2.31-0.561
				c-0.858-0.23-1.636-0.641-2.521-0.777C81.431,69.942,79.758,70.671,80.259,70.748L80.259,70.748z"/>
		</g>
	</g>
	<g>
		<g>
			<path fill="currentColor" d="M82.149,72.716c-0.01,5.358-0.124,10.716-0.133,16.074c-0.001,0.498,1.966,0.16,1.967-0.527
				c0.01-5.358,0.124-10.716,0.133-16.074C84.117,71.69,82.15,72.028,82.149,72.716L82.149,72.716z"/>
		</g>
	</g>
	<g>
		<g>
			<path fill="currentColor" d="M84.275,76.805c2.897-0.11,4.908-0.915,6.959-2.972c1.229-1.231,2.819-2.097,3.989-3.36
				c1.419-1.531,2.607-3.246,3.992-4.805c0.556-0.625-1.42-0.48-1.826-0.022c-1.532,1.724-2.767,3.734-4.534,5.237
				c-2.198,1.87-4.757,4.723-7.807,4.838C84.346,75.748,82.951,76.854,84.275,76.805L84.275,76.805z"/>
		</g>
	</g>
	<g>
		<g>
			<path fill="currentColor" d="M82.083,88.126c0.782,1.514,1.044,3.193,1.879,4.714c1.38,2.51,1.912,4.958,2.18,7.8c0.069,0.74,2.045,0.294,1.967-0.527
				c-0.218-2.315-0.541-4.549-1.561-6.66c-0.429-0.888-0.942-1.73-1.367-2.621c-0.496-1.042-0.598-2.201-1.131-3.232
				C83.67,86.862,81.749,87.481,82.083,88.126L82.083,88.126z"/>
		</g>
	</g>
	<g>
		<g>
			<path fill="currentColor" d="M81.283,88.208c0.012,0.558-1.161,0.592-1.59,0.81c-0.847,0.428-1.311,0.97-1.668,1.841
				c-1.13,2.754-0.116,5.883-1.323,8.6c-0.18,0.403,1.71,0.214,1.947-0.32c1.188-2.673,0.508-5.801,1.323-8.601
				c0.491-1.685,3.317-0.977,3.277-2.856C83.242,87.271,81.27,87.596,81.283,88.208L81.283,88.208z"/>
		</g>
	</g>
	<g>
		<g>
			<path fill="currentColor" d="M81.271,75.474c-1.825,0.605-3.261,1.604-3.192,3.681c0.071,2.145,1.517,4.096,2.024,6.146
				c0.116,0.472,2.088-0.039,1.967-0.527c-0.632-2.555-4.131-7.467-0.105-8.803C83.295,75.528,82.037,75.22,81.271,75.474
				L81.271,75.474z"/>
		</g>
	</g>
	<g>
		<g>
			<path fill="currentColor" d="M100.705,69.629c0.53-3.239-0.69-6.95-2.001-9.875c-0.191,0.246-0.384,0.492-0.576,0.738
				c0.686-0.261,2.644-0.743,3.021,0.292c0.34,0.93-0.125,2.314-0.341,3.23c-0.624,2.646-1.44,5.348-1.417,8.083
				c0.009,0.914,1.984,0.527,1.979-0.208c-0.034-3.886,2.281-7.785,1.747-11.633c-0.324-2.333-4.483-1.217-5.804-0.713
				c-0.223,0.084-0.717,0.425-0.576,0.738c1.259,2.81,2.499,6.45,1.989,9.555C98.585,70.701,100.581,70.382,100.705,69.629
				L100.705,69.629z"/>
		</g>
	</g>
	<g>
		<g>
			<path fill="currentColor" d="M98.462,58.329c-2.924-0.103-0.674-2.991-0.328-3.768c0.253-0.569,0.201-1.532-0.178-2.058
				c-0.764-1.06-1.93-1.67-2.651-2.852c-1.091-1.788-1.551-4.138-1.643-6.2c-0.584,0.217-1.168,0.435-1.752,0.652
				c2.164,1.85,3.579,4.715,6.314,5.826c2.367,0.961,4.075-2.013,4.966-3.619c-0.644,0.044-1.287,0.087-1.93,0.131
				c0.277,1.708,0.552,3.386,0.518,5.123c-0.03,1.48-0.573,2.682-0.385,4.191c0.165,1.331,2.771,0.789,0.173,2.864
				c-0.732,0.584-1.25,1.129-1.731,1.932c-0.581,0.969,1.425,1.044,1.893,0.265c0.994-1.658,3.776-2.47,2.611-4.828
				c-0.827-1.674-0.892-2.67-0.562-4.553c0.304-1.731-0.273-3.83-0.549-5.521c-0.152-0.939-1.638-0.396-1.93,0.131
				c-2.675,4.824-5.662-1.219-7.882-3.118c-0.466-0.398-1.785-0.079-1.752,0.652c0.155,3.508,1.206,7.454,4.225,9.548
				c-0.123-0.085-0.841,4.345-0.583,5.08c0.489,1.398,1.759,1.592,3.002,1.636C99.463,59.885,99.786,58.375,98.462,58.329
				L98.462,58.329z"/>
		</g>
	</g>
	<g>
		<g>
			<path fill="currentColor" d="M99.901,55.096c-0.5-1.89-2.229-3.161-2.662-5.057c-0.539,0.227-1.078,0.453-1.617,0.68
				c1.489,0.09,2.3,1.395,3.302,2.321c0.407,0.376,1.631-0.14,1.897-0.508c0.64-0.883,0.796-1.868,0.932-2.928
				c0.018-0.137-0.025-0.184-0.166-0.224c-1.246-0.355-2.547-0.016-3.739-0.615c-0.293-0.147-2.164,0.18-1.909,0.604
				c1.265,2.104,3.605,3.399,4.523,5.721c0.196,0.499,2.126-0.125,1.967-0.527c-0.924-2.337-3.256-3.613-4.523-5.721
				c-0.636,0.202-1.272,0.403-1.909,0.604c1.009,0.506,1.986,0.549,3.099,0.572c0.875,0.018,0.658,0.426,0.537,1.104
				c-0.116,0.649-0.37,1.214-0.754,1.745c0.632-0.169,1.265-0.339,1.897-0.508c-1.232-1.139-2.083-2.363-3.886-2.472
				c-0.277-0.017-1.73,0.185-1.617,0.68c0.432,1.896,2.161,3.167,2.662,5.057C98.059,56.094,100.027,55.569,99.901,55.096
				L99.901,55.096z"/>
		</g>
	</g>
	<g>
		<g>
			<path fill="currentColor" d="M98.87,52.788c-0.496-2.749-2.527-4.604-3.87-6.938c-0.34-0.592-1.852-0.135-1.896,0.509
				c-0.265,3.742,5.027,4.331,5.597,7.753c0.129,0.777,1.966,0.351,1.975-0.358c0.018-1.385,0.215-2.875-0.406-4.162
				c-0.37-0.768-2.287-0.245-1.967,0.527c0.475,1.145,1.031,2.226,1.874,3.147c0.453,0.496,1.799,0.211,1.896-0.509
				c0.228-1.667,0.563-3.305,0.599-4.992c0.021-0.953-1.966-0.604-1.982,0.188c-0.036,1.687-0.372,3.325-0.599,4.992
				c0.632-0.169,1.265-0.339,1.896-0.509c-0.768-0.84-1.283-1.797-1.718-2.845c-0.655,0.176-1.312,0.352-1.967,0.527
				c0.577,1.197,0.406,2.532,0.391,3.823c0.658-0.12,1.316-0.239,1.975-0.358c-0.268-1.614-1.448-2.672-2.672-3.644
				c-1.21-0.96-3.034-1.994-2.909-3.771c-0.632,0.169-1.265,0.339-1.896,0.509c1.286,2.236,3.237,4.001,3.714,6.636
				C97.052,54.136,99.024,53.642,98.87,52.788L98.87,52.788z"/>
		</g>
	</g>
	<g>
		<g>
			<path fill="currentColor" d="M53.973,83.527c-0.082-5.276-1.104-10.487-0.998-15.77c-0.666,0.043-1.332,0.087-1.998,0.131c0,5.124,0,10.247,0,15.37
				c0,1.07,1.998,0.802,1.998-0.131c0-5.123,0-10.246,0-15.37c0-1.069-1.979-0.804-1.998,0.131
				c-0.105,5.286,0.916,10.493,0.998,15.77C51.991,84.729,53.987,84.458,53.973,83.527L53.973,83.527z"/>
		</g>
	</g>
	<g>
		<g>
			<path fill="currentColor" d="M84.697,86.856c0.117-5.048,1.682-10.101,0.399-15.105c-0.17-0.663-2.139-0.143-1.967,0.527
				c1.259,4.913-0.282,9.88-0.397,14.836C82.714,87.906,84.683,87.482,84.697,86.856L84.697,86.856z"/>
		</g>
	</g>
	<g>
		<g>
			<path fill="currentColor" d="M82.532,62.098c0.332,0.922,0.244,1.928-0.325,2.74c0.608-0.126,1.218-0.252,1.826-0.378
				c-0.658-0.47-1.283-1.459-0.321-1.986c0.236-0.13,0.624-0.514,0.194-0.686c-0.429-0.172-1.004-0.004-1.388,0.206
				c-0.587,0.322-1.151,0.781-1.273,1.474c-0.127,0.724,0.408,1.342,0.952,1.731c0.465,0.332,1.506,0.078,1.826-0.378
				c0.67-0.957,0.875-2.14,0.476-3.249C84.275,60.949,82.327,61.531,82.532,62.098L82.532,62.098z"/>
		</g>
	</g>
	<g>
		<g>
			<path fill="currentColor" d="M76.299,60.92c2.049-1.569,3.556-3.701,5.574-5.309c3.41-2.716,7.354,4.315,8.644,6.486
				c0.333,0.562,2.191-0.15,1.967-0.527c-1.855-3.124-4.357-7.534-8.433-7.597c-4.001-0.062-6.541,4.674-9.289,6.778
				C73.924,61.394,75.898,61.227,76.299,60.92L76.299,60.92z"/>
		</g>
	</g>
	<g>
		<g>
			<path fill="currentColor" d="M47.76,54.888c2.686-6.394,3.22-13.531,6.787-19.562c-0.632,0.169-1.265,0.339-1.897,0.508
				c5.027,6.136,4.597,14.239,5.728,21.673c0.072,0.476,2.054,0.041,1.968-0.527c-1.147-7.542-0.755-15.626-5.849-21.843
				c-0.352-0.429-1.677,0.136-1.897,0.508c-3.567,6.031-4.101,13.168-6.787,19.562C45.635,55.629,47.534,55.426,47.76,54.888
				L47.76,54.888z"/>
		</g>
	</g>
	<g>
		<g>
			<path fill="currentColor" d="M48.518,51.257c3.59-1.334,6.349-4.041,9.597-5.977c0.026-0.016,0.308-0.19,0.234-0.278
				c-1.632-1.957-3.729-3.4-5.645-5.056c-0.389-0.336-2.125,0.427-1.856,0.659c1.05,0.908,2.145,1.761,3.215,2.645
				c0.53,0.438,1.029,0.905,1.522,1.384c1.07,1.039,0.255,1.084-0.5,1.591c-2.361,1.588-4.538,3.622-7.238,4.625
				C46.53,51.339,47.786,51.528,48.518,51.257L48.518,51.257z"/>
		</g>
	</g>
	<g>
		<g>
			<path fill="currentColor" d="M47.681,86.583c0.391,3.893-0.678,7.37-2.335,10.86c0.636-0.07,1.272-0.14,1.909-0.21
				c-0.297-4.898,3.374-10.905,6.128-14.653c-0.636,0.07-1.272,0.14-1.909,0.21c2.134,6.511,3.842,13.14,5.589,19.762
				c0.189,0.718,1.957,0.299,1.972-0.37c0.074-3.113-0.429-5.978-1.402-8.94c-0.252-0.769-2.212-0.217-1.968,0.527
				c0.945,2.878,1.465,5.571,1.393,8.626c0.657-0.124,1.314-0.247,1.972-0.37c-1.747-6.622-3.455-13.25-5.589-19.762
				c-0.253-0.771-1.598-0.213-1.909,0.21c-2.922,3.977-6.56,10.122-6.247,15.288c0.045,0.747,1.706,0.218,1.909-0.21
				c1.744-3.671,2.865-7.397,2.454-11.495C49.574,85.312,47.599,85.762,47.681,86.583L47.681,86.583z"/>
		</g>
	</g>
	<g>
		<g>
			<path fill="currentColor" d="M39.095,60.106c0.466,0,0.932,0,1.397,0c0.406,0,0.858-0.126,1.172-0.393c0.322-0.273,0.215-0.571-0.176-0.658
				c-0.625-0.139-0.622-0.825-0.822-1.346c-0.201,0.214-0.401,0.428-0.602,0.643c0.386-0.182-0.155,0.005-0.323-0.109
				c0.08,0.054,0.107,0.131,0.141,0.215c0.122,0.305,0.152,0.655,0.214,0.976c0.125,0.642,2.101,0.159,1.968-0.527
				c-0.091-0.47-0.12-1.069-0.491-1.419c-0.572-0.541-1.675-0.175-2.272,0.107c-0.187,0.088-0.719,0.338-0.602,0.643
				c0.146,0.379,0.214,0.806,0.411,1.163c0.242,0.44,0.7,0.583,1.164,0.687c0.332-0.35,0.664-0.7,0.996-1.051
				c-0.466,0-0.932,0-1.397,0c-0.439,0-1.027,0.151-1.301,0.528C38.296,59.94,38.802,60.106,39.095,60.106L39.095,60.106z"/>
		</g>
	</g>
	<g>
		<g>
			<path fill="currentColor" d="M67.044,61.629c0.215,0.365,0.73,0.626,0.612,1.107c0.536-0.192,1.072-0.385,1.607-0.578c-0.466,0-0.932,0-1.397,0
				c-0.185,0.239-0.369,0.477-0.554,0.716c0.105-0.026,0.21-0.052,0.315-0.077c0.023-0.005,0.195-0.031,0.078-0.017
				c0.287-0.035-0.235-0.05-0.017,0c-0.048-0.011,0.072,0.058,0.075,0.06c0.217,0.175,0.339,0.551,0.477,0.785
				c0.139-0.133,0.277-0.266,0.416-0.398c-0.417,0.225-0.784,0.471-1.121,0.806c-0.317,0.315,0.279,0.344,0.467,0.33
				c0.423-0.034,1.002-0.16,1.316-0.472c0.146-0.145,0.292-0.295,0.475-0.394c0.068-0.037,0.508-0.241,0.416-0.398
				c-0.224-0.379-0.398-0.911-0.85-1.066c-0.676-0.232-1.555,0.061-2.213,0.223c-0.275,0.068-0.598,0.183-0.809,0.381
				c-0.23,0.217,0.045,0.334,0.255,0.334c0.466,0,0.932,0,1.397,0c0.351,0,1.495-0.12,1.607-0.578
				c0.159-0.646-0.299-0.805-0.585-1.291C68.721,60.607,66.879,61.349,67.044,61.629L67.044,61.629z"/>
		</g>
	</g>
	<g>
		<g>
			<path fill="currentColor" d="M50.075,85.038c-0.323,3.083-2.612,5.49-3.593,8.385c-1.147,3.383-0.716,7.295-1.597,10.779
				c0.656-0.127,1.312-0.254,1.969-0.381c-0.619-3.646,0.632-7.294,2.331-10.482c0.455-0.854-1.523-0.658-1.839-0.066
				c-1.807,3.393-3.117,7.205-2.46,11.076c0.126,0.741,1.831,0.167,1.969-0.381c0.896-3.542,0.876-7.206,1.597-10.779
				c0.618-3.065,3.257-5.183,3.593-8.385C52.132,83.979,50.148,84.344,50.075,85.038L50.075,85.038z"/>
		</g>
	</g>
	<g>
		<g>
			<path fill="currentColor" d="M82.436,86.8c-5.792,2.82-3.474,11.022-4.997,16.065c0.651-0.146,1.303-0.293,1.953-0.44
				c-1.583-4.702,0.346-14.455,5.54-16.496c-0.439,0.019-0.88,0.036-1.319,0.055c0.602,2.609,1.745,4.982,2.66,7.486
				c1.092,2.984,1.297,6.226,2.131,9.281c0.115,0.425,2.082-0.107,1.967-0.527c-0.736-2.7-1.061-5.483-1.797-8.184
				c-0.801-2.941-2.306-5.6-2.994-8.584c-0.078-0.342-1.155-0.011-1.319,0.055c-5.929,2.328-8.765,11.71-6.835,17.441
				c0.143,0.425,1.843-0.076,1.953-0.44c1.322-4.381-0.776-13.062,4.185-15.478C84.73,86.465,82.885,86.581,82.436,86.8L82.436,86.8
				z"/>
		</g>
	</g>
	<g>
		<g>
			<path fill="currentColor" d="M83.384,85.257c-0.191-0.516-0.539-0.919-0.799-1.396c-0.266-0.489-2.128,0.232-1.967,0.527
				c0.26,0.478,0.606,0.881,0.799,1.396C81.592,86.254,83.528,85.644,83.384,85.257L83.384,85.257z"/>
		</g>
	</g>
	<g>
		<g>
			<path fill="currentColor" d="M51.247,48.072c0.175-1.757,0.248-3.5,0.799-5.189c-0.656,0.127-1.312,0.255-1.969,0.383
				c0.234,1.037,0.552,2.028,0.998,2.994c0.292,0.631,1.867,0.26,1.969-0.383c0.178-1.131,0.197-2.252,0.2-3.395
				c-0.633,0.169-1.265,0.339-1.897,0.508c1.148,0.917,2.403,1.699,3.394,2.795c0.348-0.315,0.696-0.631,1.043-0.946
				c-3.095,0.203-4.909,2.625-7.51,3.933c-0.771,0.388-0.697,1.129,0.261,0.975c3.316-0.533,5.955-2.178,7.637-5.122
				c0.161-0.282-0.009-0.522-0.318-0.571c-1.823-0.292-2.676-1.538-3.409-3.112c-0.308-0.661-2.095-0.214-1.968,0.527
				c0.292,1.707,0.995,3.13,2.268,4.316c0.261,0.243,0.733,0.217,1.048,0.117c0.729-0.231,1.547-0.618,1.98-1.277
				c-0.634,0.031-1.269,0.062-1.903,0.092c-0.473,1.214-1.937,2.196-2.89,3.017c-1.036,0.892-2.122,1.732-3.105,2.683
				c-0.833,0.805,1.108,0.801,1.583,0.342c1.97-1.903,5.349-3.632,6.382-6.281c0.284-0.729-1.632-0.32-1.903,0.092
				c-0.134,0.112-0.272,0.219-0.415,0.321c0.349,0.039,0.699,0.078,1.048,0.117c-1.202-1.121-1.849-2.455-2.125-4.066
				c-0.656,0.176-1.312,0.352-1.968,0.527c0.887,1.904,2.012,3.326,4.177,3.673c-0.106-0.19-0.212-0.381-0.318-0.571
				c-1.252,2.191-2.998,3.653-5.539,4.062c0.087,0.325,0.174,0.65,0.261,0.975c2.116-1.064,4.028-3.493,6.464-3.653
				c0.302-0.02,1.487-0.456,1.043-0.946c-0.991-1.096-2.245-1.878-3.394-2.795c-0.393-0.313-1.896-0.184-1.897,0.508
				c-0.002,1.143-0.022,2.264-0.2,3.395c0.656-0.127,1.312-0.255,1.969-0.383c-0.447-0.966-0.764-1.957-0.998-2.994
				c-0.169-0.75-1.8-0.133-1.969,0.383c-0.551,1.69-0.623,3.433-0.799,5.189C49.196,49.124,51.178,48.752,51.247,48.072
				L51.247,48.072z"/>
		</g>
	</g>
	<g>
		<g>
			<path fill="currentColor" d="M39.115,110.214c19.895-0.11,39.605-3.39,59.5-3.5c3.244-0.018,3.199-4.826,0-5c-25.701-1.398-51.265,0.651-76.665,4.589
				c-2.884,0.447-2.042,4.833,0.665,4.911c32.174,0.931,64.328-0.96,96.5-1c3.225-0.004,3.224-4.986,0-5
				c-17.19-0.071-34.311-1.927-51.5-2c-3.225-0.014-3.224,4.982,0,5c8.536,0.047,17.061,0.57,25.594,0.104
				c7.568-0.415,14.88-3.921,22.406-3.604c3.226,0.136,3.212-4.864,0-5c-7.589-0.32-14.859,3.024-22.406,3.604
				c-8.502,0.651-17.081-0.057-25.594-0.104c0,1.667,0,3.333,0,5c17.189,0.073,34.31,1.929,51.5,2c0-1.667,0-3.333,0-5
				c-32.172,0.04-64.326,1.931-96.5,1c0.222,1.637,0.443,3.273,0.665,4.911c24.956-3.869,50.089-5.785,75.335-4.411
				c0-1.667,0-3.333,0-5c-19.895,0.11-39.605,3.39-59.5,3.5C35.892,105.231,35.89,110.231,39.115,110.214L39.115,110.214z"/>
		</g>
	</g>
</g>
</svg>
