<?xml version="1.0" encoding="UTF-8"?>
<svg width="15px" height="10px" viewBox="0 0 15 10" version="1.1" xmlns="http://www.w3.org/2000/svg" xmlns:xlink="http://www.w3.org/1999/xlink" xmlns:sketch="http://www.bohemiancoding.com/sketch/ns">
    <!-- Generator: Sketch 3.4.2 (15855) - http://www.bohemiancoding.com/sketch -->
    <title>hexe</title>
    <desc>Created with Sketch.</desc>
    <defs></defs>
    <g id="Page-1" stroke="none" stroke-width="1" fill="none" fill-rule="" sketch:type="MSPage">
        <g id="hexe" sketch:type="MSLayerGroup" transform="translate(-1.000000, 0.000000)" fill="white">
            <g id="Layer_1" sketch:type="MSShapeGroup">
                <g id="Group">
                    <path d="M1.609,5.937 C4.029,7.112 5.341,9.67 8.344,9.554 C11.128,9.446 13.232,8.008 14.875,5.82 C15.501,4.986 13.976,4.674 13.506,5.299 C11.809,7.559 9.164,9.268 6.357,7.653 C4.96,6.849 4.016,5.522 2.533,4.802 C1.827,4.458 0.67,5.481 1.609,5.937 L1.609,5.937 L1.609,5.937 Z" id="Shape"></path>
                    <path d="M15.168,4.625 C13.577,3.135 12.872,1.705 10.79,0.777 C9.468,0.188 8.063,0.015 6.638,0.111 C3.818,0.301 2.176,2.814 0.98,5.064 C0.836,5.334 2.357,5.215 2.583,4.792 C3.892,2.331 5.215,0.216 8.619,1.123 C11.091,1.781 11.932,3.588 13.645,5.192 C13.973,5.499 15.452,4.891 15.168,4.625 L15.168,4.625 L15.168,4.625 Z" id="Shape"></path>
                    <path d="M7.84,8.5 C10.966,8.64 11.249,5.907 10.49,3.516 C10.22,2.665 9.745,1.456 8.823,1.132 C7.835,0.783 6.769,1.575 6.455,2.451 C6.017,3.671 5.451,8.99 7.303,9.088 C10.72,9.269 11.523,2.876 9.078,1.354 C8.77,1.163 7.626,1.375 7.515,1.773 C6.911,3.933 6.646,6.268 6.972,8.495 C7.032,8.902 8.367,8.4 8.518,8.224 C9.317,7.298 9.52,5.773 9.722,4.615 C9.915,3.507 10.266,1.785 9.304,0.943 C8.713,0.426 7.467,1.061 7.145,1.619 C6.665,2.45 6.655,3.862 6.701,4.795 C6.716,5.102 8.345,4.827 8.322,4.36 C8.29,3.691 8.362,3.004 8.465,2.343 C8.519,1.997 8.608,1.661 8.746,1.34 C8.424,1.394 8.101,1.448 7.778,1.503 C7.908,1.598 8.009,1.718 8.083,1.864 C8.179,2.031 8.204,2.244 8.237,2.429 C8.438,3.53 8.17,4.753 7.94,5.827 C7.774,6.602 7.585,7.709 7.047,8.333 C7.562,8.242 8.077,8.151 8.593,8.062 C8.275,5.878 8.525,3.612 9.116,1.495 C8.595,1.635 8.073,1.774 7.553,1.914 C8.705,2.631 8.81,4.179 8.772,5.408 C8.751,6.079 8.606,6.737 8.389,7.369 C8.311,7.597 8.197,7.805 8.076,8.011 C7.961,8.181 7.832,8.338 7.686,8.484 C8.393,8.577 8.604,8.534 8.32,8.356 C7.774,7.96 7.811,6.599 7.777,6.02 C7.724,5.149 7.748,4.267 7.815,3.397 C7.842,3.046 7.913,2.705 7.999,2.364 C8.044,2.188 8.11,2.02 8.182,1.853 C8.457,1.208 7.592,1.819 7.57,1.808 C8.133,2.09 8.445,2.878 8.674,3.42 C8.998,4.189 9.186,5.019 9.257,5.848 C9.295,6.281 9.27,6.717 9.168,7.14 C9.133,7.285 9.073,7.42 9.011,7.555 C8.88,7.835 8.655,7.813 8.887,7.824 C8.531,7.805 7.025,8.464 7.84,8.5 L7.84,8.5 L7.84,8.5 Z" id="Shape"></path>
                </g>
            </g>
        </g>
    </g>
</svg>
