<?xml version="1.0" encoding="utf-8"?>
<!-- Generator: Adobe Illustrator 16.0.0, SVG Export Plug-In . SVG Version: 6.00 Build 0)  -->
<!DOCTYPE svg PUBLIC "-//W3C//DTD SVG 1.1//EN" "http://www.w3.org/Graphics/SVG/1.1/DTD/svg11.dtd">

<svg version="1.1" id="Layer_1" xmlns="http://www.w3.org/2000/svg" xmlns:xlink="http://www.w3.org/1999/xlink"
	 width="500px" height="500px" viewBox="0 0 141.73 141.73" >
<style>

</style>
<g>

	<g>
		<g>
			<path fill="red" d="M66.609,71.937c2.42,1.175,3.732,3.733,6.735,3.617c2.784-0.108,4.888-1.546,6.531-3.734
				c0.626-0.834-0.899-1.146-1.369-0.521c-1.697,2.26-4.342,3.969-7.149,2.354c-1.397-0.804-2.341-2.131-3.824-2.851
				C66.827,70.458,65.67,71.481,66.609,71.937L66.609,71.937z"/>
		</g>
	</g>
	<g>
		<g>
			<path fill="red" d="M80.168,70.625c-1.591-1.49-2.296-2.92-4.378-3.848c-1.322-0.589-2.727-0.762-4.152-0.666
				c-2.82,0.19-4.462,2.703-5.658,4.953c-0.144,0.27,1.377,0.151,1.603-0.272c1.309-2.461,2.632-4.576,6.036-3.669
				c2.472,0.658,3.313,2.465,5.026,4.069C78.973,71.499,80.452,70.891,80.168,70.625L80.168,70.625z"/>
		</g>
	</g>
	<g>
		<g>
			<path fill="red" d="M72.84,74.5c3.126,0.14,3.409-2.593,2.65-4.984c-0.27-0.851-0.745-2.06-1.667-2.384
				c-0.988-0.349-2.054,0.443-2.368,1.319c-0.438,1.22-1.004,6.539,0.848,6.637c3.417,0.181,4.22-6.212,1.775-7.734
				c-0.308-0.191-1.452,0.021-1.563,0.419c-0.604,2.16-0.869,4.495-0.543,6.722c0.06,0.407,1.395-0.095,1.546-0.271
				c0.799-0.926,1.002-2.451,1.204-3.609c0.193-1.108,0.544-2.83-0.418-3.672c-0.591-0.517-1.837,0.118-2.159,0.676
				c-0.48,0.831-0.49,2.243-0.444,3.176c0.015,0.307,1.644,0.032,1.621-0.435c-0.032-0.669,0.04-1.356,0.143-2.017
				c0.054-0.346,0.143-0.682,0.281-1.003c-0.322,0.054-0.645,0.108-0.968,0.163c0.13,0.095,0.231,0.215,0.305,0.361
				c0.096,0.167,0.121,0.38,0.154,0.565c0.201,1.101-0.067,2.324-0.297,3.398c-0.166,0.775-0.355,1.882-0.893,2.506
				c0.515-0.091,1.03-0.182,1.546-0.271c-0.318-2.184-0.068-4.45,0.523-6.567c-0.521,0.14-1.043,0.279-1.563,0.419
				c1.152,0.717,1.257,2.265,1.219,3.494c-0.021,0.671-0.166,1.329-0.383,1.961c-0.078,0.228-0.192,0.436-0.313,0.642
				c-0.115,0.17-0.244,0.327-0.39,0.473c0.707,0.093,0.918,0.05,0.634-0.128c-0.546-0.396-0.509-1.757-0.543-2.336
				c-0.053-0.871-0.029-1.753,0.038-2.623c0.027-0.351,0.098-0.692,0.184-1.033c0.045-0.176,0.111-0.344,0.183-0.511
				c0.275-0.645-0.59-0.034-0.612-0.045c0.563,0.282,0.875,1.07,1.104,1.612c0.324,0.769,0.512,1.599,0.583,2.428
				c0.038,0.433,0.013,0.869-0.089,1.292c-0.035,0.145-0.095,0.28-0.157,0.415c-0.131,0.28-0.356,0.258-0.124,0.269
				C73.531,73.805,72.025,74.464,72.84,74.5L72.84,74.5z"/>
		</g>
	</g>
	</g>
</svg>
