<?xml version="1.0" encoding="UTF-8"?>
<svg width="189px" height="155px" viewBox="0 0 189 155" version="1.1" xmlns="http://www.w3.org/2000/svg"
     xmlns:xlink="http://www.w3.org/1999/xlink" xmlns:sketch="http://www.bohemiancoding.com/sketch/ns">
    <!-- Generator: Sketch 3.4.2 (15855) - http://www.bohemiancoding.com/sketch -->
    <title>Slice 1</title>
    <desc>Created with Sketch.</desc>
    <defs></defs>
    <g id="Page-1" stroke="none" stroke-width="1" fill="none" sketch:type="MSPage">
        <g id="bote" sketch:type="MSLayerGroup" transform="translate(-164.000000, -46.000000)">
            <g id="Layer_1" sketch:type="MSShapeGroup">
                <rect id="Rectangle-path" stroke-width="17.0079" x="44" y="0" width="1080"
                      height="1080"></rect>
                <path
                      d="M237.665,189.247 C240.398,164.636 247.051,140.876 257.229,118.315 C267.04,96.569 280.479,76.436 294.296,57.074 L262.187,61.142 C270.122,75.161 275.933,90.473 280.962,105.736 C286.194,121.616 290.931,138.541 291.072,155.379 C300.001,150.868 308.93,146.357 317.859,141.846 C274.518,134.644 231.202,127.077 193.817,102.46 C192.854,106.817 191.891,111.174 190.928,115.531 C201.979,109.142 210.867,104.92 223.742,99.77 C226.395,98.709 229.072,97.709 231.753,96.724 C233.365,96.132 234.988,95.567 236.61,95.002 C233.291,96.158 238.653,94.359 238.799,94.312 C245.354,92.189 251.993,90.333 258.669,88.632 C280.819,82.99 306.648,79.702 330.129,79.638 C327.832,75.549 325.534,71.459 323.236,67.37 C286.415,103.931 241.866,128.512 201.918,161.608 C196.421,166.162 198.429,172.078 205.095,173.466 C213.104,175.135 222.391,172.313 228.602,167.167 C267.755,134.73 313.177,109.412 349.92,72.929 C356.583,66.313 351.205,60.639 343.027,60.661 C283.12,60.822 222.289,75.473 170.267,105.544 C164.893,108.651 161.111,114.488 167.378,118.615 C206.349,144.278 252.33,152.492 297.527,160.002 C306.254,161.452 324.41,158 324.314,146.469 C324.173,129.595 319.372,112.757 314.205,96.827 C309.252,81.558 303.353,66.231 295.43,52.232 C289.479,41.716 268.983,48.366 263.321,56.3 C233.854,97.59 210.089,142.259 204.411,193.377 C202.919,206.827 236.406,200.575 237.665,189.247 L237.665,189.247 L237.665,189.247 Z"
                      id="Shape" fill="white"></path>
            </g>
        </g>
    </g>
</svg>
