<?xml version="1.0" standalone="no"?>
<!DOCTYPE svg PUBLIC "-//W3C//DTD SVG 20010904//EN"
 "http://www.w3.org/TR/2001/REC-SVG-20010904/DTD/svg10.dtd">
<svg version="1.0" xmlns="http://www.w3.org/2000/svg"
 width="960.000000pt" height="960.000000pt" viewBox="0 0 960.000000 960.000000"
 preserveAspectRatio="xMidYMid meet">
<metadata>
Created by potrace 1.14, written by Peter Selinger 2001-2017
</metadata>
<g transform="translate(0.000000,960.000000) scale(0.100000,-0.100000)"
fill="#000000" stroke="none">
<path d="M3877 7943 c-1 0 -60 -4 -132 -7 -226 -11 -283 -17 -485 -51 -19 -3
-66 -13 -105 -21 -108 -24 -140 -32 -140 -34 0 -1 -10 -3 -23 -6 -117 -22
-508 -182 -670 -276 -46 -26 -88 -48 -93 -48 -5 0 -9 -4 -9 -10 0 -5 -4 -10
-10 -10 -18 0 -308 -197 -370 -252 -8 -7 -37 -31 -65 -52 -27 -22 -55 -45 -61
-51 -6 -5 -44 -39 -85 -75 -80 -71 -278 -267 -349 -346 -76 -84 -126 -144
-290 -344 -19 -24 -39 -50 -45 -60 -5 -9 -37 -52 -71 -96 -64 -84 -256 -361
-276 -397 -6 -12 -14 -24 -17 -27 -8 -6 -164 -256 -181 -290 -7 -14 -16 -27
-19 -30 -3 -3 -13 -18 -21 -35 -8 -16 -18 -32 -21 -35 -4 -3 -18 -27 -33 -55
-15 -27 -35 -63 -45 -80 -10 -16 -28 -48 -41 -70 -12 -22 -36 -65 -53 -95 -60
-105 -108 -195 -120 -222 -6 -16 -15 -28 -19 -28 -4 0 -8 -9 -8 -20 0 -11 -4
-20 -10 -20 -5 0 -10 -22 -10 -49 0 -48 1 -50 38 -62 49 -17 57 -18 123 -20
l57 -2 -25 -55 c-24 -55 -32 -128 -21 -182 16 -71 93 -164 167 -202 15 -7 43
-23 64 -35 20 -13 37 -20 37 -17 0 4 6 2 13 -4 6 -5 48 -29 92 -52 104 -54
214 -120 221 -131 3 -5 9 -7 13 -5 4 3 20 -6 35 -19 16 -14 37 -27 47 -30 11
-4 19 -11 19 -16 0 -5 5 -9 11 -9 13 0 121 -73 279 -189 110 -80 329 -249 340
-261 3 -3 25 -21 50 -40 25 -19 47 -37 50 -40 3 -3 41 -35 85 -70 44 -35 82
-67 85 -70 9 -9 74 -64 114 -95 21 -16 46 -37 56 -45 9 -8 36 -31 60 -50 23
-19 56 -47 74 -61 17 -14 72 -59 121 -98 50 -40 97 -77 105 -84 8 -7 56 -43
105 -80 50 -38 98 -75 108 -83 9 -8 21 -14 26 -14 5 0 11 -4 13 -8 2 -4 35
-30 73 -57 39 -27 72 -52 75 -55 3 -3 14 -11 25 -17 11 -7 76 -48 145 -91 258
-163 482 -272 735 -359 55 -19 105 -36 110 -37 6 -2 17 -5 25 -9 15 -5 86 -23
130 -33 14 -3 43 -10 65 -15 22 -4 67 -13 100 -19 33 -5 71 -12 85 -15 204
-37 683 -37 952 -1 24 3 66 8 93 11 28 4 59 8 70 9 80 13 113 19 130 22 11 2
40 7 65 10 25 3 48 8 51 10 4 2 24 7 45 10 42 7 46 8 84 17 14 4 63 16 110 27
259 63 578 171 768 260 35 17 65 30 68 30 23 0 455 230 554 295 19 12 76 49
125 80 50 32 92 62 93 66 2 5 8 9 13 9 6 0 15 4 22 10 7 5 71 53 142 106 127
95 214 163 286 227 20 18 75 66 123 107 87 76 423 412 506 506 25 29 66 76 92
105 26 30 71 83 100 119 29 36 55 67 58 70 3 3 34 41 69 85 34 44 70 89 79
100 130 160 171 283 130 389 -22 57 -45 84 -107 128 l-44 31 59 31 c85 45 134
77 134 87 0 5 5 9 11 9 24 0 79 79 79 113 0 17 -20 43 -66 88 -172 166 -370
369 -504 518 -36 40 -85 94 -110 120 -25 27 -70 77 -100 111 -30 35 -71 80
-90 101 -19 21 -60 66 -90 100 -30 34 -66 74 -80 89 -14 15 -63 69 -110 121
-109 120 -383 395 -478 479 -41 36 -79 70 -85 75 -335 299 -797 582 -1247 765
-141 57 -387 145 -434 155 -11 3 -40 11 -65 19 -25 8 -59 18 -76 22 -16 4 -34
8 -40 10 -15 4 -55 15 -95 24 -41 10 -223 49 -260 56 -14 2 -47 9 -75 14 -27
5 -68 12 -90 15 -23 3 -52 7 -65 10 -13 2 -44 7 -69 10 -25 3 -63 7 -83 10
-178 23 -423 37 -686 39 -118 0 -214 0 -215 -1z m323 -537 c19 -2 62 -7 95
-11 33 -3 75 -8 93 -12 l33 -5 -61 -34 c-64 -36 -154 -94 -180 -117 -43 -37
-123 -98 -185 -142 -94 -66 -268 -241 -337 -340 -125 -180 -171 -293 -254
-630 -4 -16 -8 -32 -9 -35 -1 -3 -5 -25 -9 -50 -8 -45 -11 -60 -21 -102 -3
-13 -7 -36 -10 -53 -2 -16 -11 -73 -19 -125 -9 -52 -18 -113 -21 -135 -3 -22
-8 -56 -12 -75 -4 -19 -7 -46 -8 -60 -2 -25 -12 -117 -20 -175 -7 -49 -14
-121 -30 -295 -3 -30 -8 -93 -10 -140 -3 -47 -8 -110 -11 -140 -7 -71 -13
-882 -7 -893 3 -5 7 -43 9 -85 3 -42 7 -97 10 -122 2 -25 6 -70 9 -100 2 -31
6 -69 9 -85 17 -108 22 -144 32 -209 l6 -49 -38 23 c-22 14 -40 28 -42 32 -2
4 -8 8 -13 8 -5 0 -37 20 -72 45 -34 24 -77 54 -95 67 -18 13 -39 28 -45 33
-7 6 -30 23 -52 40 -22 16 -45 34 -51 40 -6 6 -34 28 -62 50 -29 21 -52 43
-52 47 0 4 -5 8 -11 8 -6 0 -16 6 -23 13 -8 6 -24 21 -37 32 -43 36 -154 130
-159 135 -3 3 -54 48 -115 100 -60 52 -112 97 -115 100 -3 4 -41 37 -85 75
-44 37 -84 73 -90 79 -5 6 -50 45 -100 86 -49 41 -99 83 -110 93 -11 10 -45
37 -75 60 -30 23 -59 47 -65 53 -15 16 -184 144 -191 144 -3 0 -11 6 -19 13
-29 27 -56 47 -64 47 -5 0 -11 3 -13 8 -3 8 -254 172 -263 172 -3 0 -24 12
-48 27 -23 15 -74 43 -113 63 l-72 36 22 39 c11 22 24 41 29 43 4 2 7 12 7 22
0 10 3 20 8 22 4 2 21 30 38 63 66 126 147 271 221 398 35 60 63 110 63 112 0
2 13 23 28 47 16 24 38 59 48 78 10 19 22 39 27 45 4 5 62 93 129 195 66 102
124 187 127 190 3 3 45 57 93 120 48 63 98 127 112 142 14 15 26 29 26 32 0 8
104 119 206 221 89 88 146 141 221 202 12 10 30 26 41 35 12 9 33 25 49 35 15
9 30 20 33 24 20 23 237 154 330 200 113 54 262 115 298 123 9 1 24 5 32 8 30
11 126 38 150 42 14 3 25 5 25 6 0 1 9 3 20 5 11 1 31 5 45 8 14 2 45 8 70 12
25 4 54 9 65 11 11 3 63 7 115 11 52 3 97 7 99 9 5 4 378 -4 421 -10z m1525
-466 c150 -83 363 -225 455 -302 9 -7 34 -26 55 -42 22 -17 42 -32 45 -36 3
-3 34 -30 70 -60 170 -144 499 -473 671 -671 11 -13 48 -55 82 -93 34 -37 67
-73 72 -80 10 -12 152 -172 170 -192 37 -42 143 -161 158 -178 72 -82 230
-249 389 -411 l187 -189 -28 -26 c-15 -14 -42 -45 -61 -70 -40 -52 -35 -45
-102 -130 -28 -36 -62 -79 -77 -96 -14 -17 -46 -55 -71 -85 -25 -29 -56 -66
-70 -81 -14 -14 -52 -57 -85 -94 -74 -83 -285 -294 -366 -366 -33 -29 -83 -74
-111 -101 -29 -26 -54 -47 -57 -47 -3 0 -24 -16 -46 -35 -60 -53 -61 -53 -154
-122 -47 -36 -93 -70 -101 -76 -46 -36 -171 -117 -179 -117 -5 0 -11 -4 -13
-8 -9 -24 -377 -223 -513 -278 -33 -13 -68 -29 -78 -35 -18 -10 -227 -86 -257
-93 -8 -2 -57 -16 -109 -31 -51 -14 -96 -24 -99 -20 -3 3 -1 5 4 5 9 0 156 94
185 118 133 112 168 147 257 267 29 39 57 75 62 82 6 7 10 16 10 22 0 5 3 11
8 13 11 5 92 166 92 183 0 8 4 15 9 15 5 0 11 10 14 23 3 12 19 59 35 105 17
45 29 82 26 82 -2 0 1 12 7 28 6 15 12 34 14 42 25 110 37 171 40 200 2 19 4
35 5 35 1 0 4 16 5 35 2 19 7 62 12 95 16 119 8 557 -12 698 -2 18 -7 52 -10
77 -7 65 -15 121 -21 150 -2 14 -7 39 -9 55 -3 17 -7 41 -10 55 -4 14 -8 39
-11 55 -3 17 -10 48 -16 70 -5 22 -12 51 -14 65 -3 14 -11 48 -19 75 -8 28
-16 61 -19 75 -3 14 -14 57 -26 95 -12 39 -23 77 -25 85 -2 8 -14 47 -26 85
-13 39 -24 73 -25 78 -1 4 -3 9 -4 12 -1 3 -3 8 -5 13 -1 4 -5 14 -8 22 -3 8
-19 53 -35 100 -68 197 -240 578 -279 618 -7 7 -13 15 -13 16 0 2 -5 28 -11
57 -6 30 -12 63 -14 74 -8 45 -47 170 -64 206 -10 21 -17 40 -14 43 3 2 19 -3
36 -13 18 -10 59 -33 92 -51z"/>
</g>
</svg>
