<?xml version="1.0" standalone="no"?>
<!DOCTYPE svg PUBLIC "-//W3C//DTD SVG 20010904//EN"
 "http://www.w3.org/TR/2001/REC-SVG-20010904/DTD/svg10.dtd">
<svg version="1.0" xmlns="http://www.w3.org/2000/svg"
 width="756.000000pt" height="756.000000pt" viewBox="0 0 756.000000 756.000000"
 preserveAspectRatio="xMidYMid meet">
<metadata>
Created by potrace 1.14, written by Peter Selinger 2001-2017
</metadata>
<g transform="translate(0.000000,756.000000) scale(0.100000,-0.100000)"
fill="#000000" stroke="none">
<path d="M4728 6845 c-2 -1 -23 -5 -48 -8 -207 -25 -468 -140 -619 -273 -25
-21 -71 -75 -102 -119 -32 -44 -62 -85 -67 -91 -5 -5 -22 -30 -38 -55 -16 -24
-31 -46 -35 -49 -13 -11 -159 -232 -159 -241 0 -5 -4 -9 -8 -9 -4 0 -21 -22
-37 -50 -17 -27 -33 -50 -37 -50 -5 0 -8 -7 -8 -15 0 -8 -4 -15 -9 -15 -5 0
-11 -8 -13 -18 -4 -13 -25 -24 -69 -37 -35 -10 -71 -19 -79 -20 -18 -2 -168
-43 -190 -52 -8 -3 -19 -7 -25 -8 -51 -12 -373 -110 -417 -127 -15 -5 -29 -10
-32 -10 -3 0 -90 -29 -193 -65 -103 -35 -192 -66 -198 -67 -5 -2 -17 -6 -25
-9 -28 -12 -135 -51 -140 -52 -12 -2 -182 -68 -245 -95 -16 -7 -35 -14 -41
-16 -6 -1 -114 -45 -240 -99 -207 -88 -289 -124 -451 -201 -29 -13 -55 -25
-58 -25 -2 0 -118 -58 -257 -129 -360 -182 -382 -194 -388 -201 -3 -4 -32 -20
-65 -38 -33 -17 -80 -43 -105 -57 -25 -15 -61 -36 -80 -46 -135 -76 -236 -204
-243 -307 -4 -57 24 -128 66 -166 25 -23 125 -95 131 -95 3 0 31 -17 63 -37
32 -21 67 -43 78 -50 11 -7 50 -30 87 -52 36 -23 71 -41 77 -41 6 0 11 -4 11
-10 0 -5 4 -10 8 -10 5 0 58 -27 118 -61 96 -54 448 -229 544 -271 19 -9 62
-28 95 -43 33 -15 83 -36 110 -47 28 -10 66 -26 85 -35 19 -10 40 -18 45 -19
6 -1 51 -19 100 -39 50 -21 101 -41 115 -45 14 -5 70 -25 125 -45 83 -31 130
-47 175 -60 3 -1 17 -7 31 -13 l26 -10 -72 -218 c-73 -220 -76 -225 -140 -272
-5 -4 -24 -18 -41 -32 -17 -14 -45 -36 -64 -50 -18 -14 -38 -30 -44 -35 -6 -6
-33 -28 -61 -50 -27 -22 -55 -44 -62 -50 -6 -5 -31 -26 -55 -45 -85 -69 -144
-140 -155 -190 -26 -110 -3 -180 85 -252 42 -34 125 -65 200 -74 26 -3 48 -6
49 -8 2 -1 -4 -34 -11 -72 -13 -63 -23 -114 -31 -169 -2 -11 -6 -33 -10 -50
-3 -16 -8 -43 -10 -60 -2 -16 -7 -46 -10 -65 -3 -19 -7 -48 -9 -65 -2 -16 -7
-46 -10 -65 -4 -19 -9 -53 -11 -75 -3 -22 -8 -67 -12 -100 -15 -132 -2 -192
54 -250 40 -41 134 -89 198 -100 22 -4 94 -8 160 -10 108 -3 145 1 302 29 91
17 351 118 373 145 3 3 18 13 33 21 26 13 124 104 155 144 31 39 45 88 57 201
7 65 8 71 25 190 15 103 19 134 25 165 2 14 7 41 9 60 3 19 8 46 11 60 3 14 7
39 10 55 2 17 11 66 20 109 8 44 17 91 20 105 6 32 10 52 24 111 5 25 12 56
14 70 11 56 79 327 89 352 11 29 29 45 140 128 l67 50 98 -19 c54 -11 105 -22
113 -25 8 -3 31 -8 50 -11 40 -7 51 -9 290 -58 211 -42 251 -50 270 -53 16 -2
43 -7 130 -24 30 -6 66 -13 80 -15 28 -4 73 -12 110 -20 14 -3 41 -8 60 -11
19 -3 44 -7 55 -9 11 -2 61 -10 110 -19 50 -8 101 -18 115 -20 14 -3 79 -14
145 -25 66 -11 136 -23 155 -26 19 -4 47 -7 63 -8 15 -1 27 -4 27 -8 0 -3 19
-6 43 -6 23 -1 42 -2 42 -3 0 -10 216 -14 290 -5 37 4 84 11 145 22 59 10 174
44 186 54 8 6 14 9 14 5 0 -10 146 61 195 94 106 73 177 167 205 269 24 91 8
399 -37 691 -9 58 -17 116 -19 130 -2 14 -5 36 -9 50 -3 14 -8 39 -11 55 -3
17 -12 59 -20 95 -9 36 -17 74 -19 85 -1 11 -13 61 -25 110 -12 50 -23 98 -26
108 -2 9 -6 25 -8 35 -3 9 -23 82 -46 162 -57 202 -56 197 -79 274 -11 38 -20
71 -18 72 1 1 27 21 57 45 30 24 71 56 92 71 20 15 42 33 50 40 7 8 33 29 58
48 24 19 53 43 62 53 10 9 21 17 26 17 4 0 23 15 42 33 19 18 60 52 90 76 30
25 60 50 65 56 6 6 24 21 40 34 17 12 46 37 65 54 19 18 51 45 70 61 33 27
149 130 210 186 15 14 63 58 107 98 122 110 356 343 385 382 48 67 65 153 44
220 -24 72 -140 159 -235 175 -19 3 -38 8 -44 12 -9 6 -368 5 -572 -2 -177 -6
-521 -25 -690 -40 -33 -3 -87 -7 -120 -10 -33 -2 -78 -7 -100 -10 -48 -6 -165
-17 -216 -20 -20 -1 -40 -4 -45 -7 -27 -14 -43 5 -99 117 -33 66 -63 122 -66
125 -3 3 -9 14 -13 25 -4 11 -31 63 -61 115 -48 84 -84 131 -127 165 -35 28
-78 56 -78 50 0 -3 -14 1 -30 10 -46 24 -115 36 -222 39 -54 2 -99 2 -100 1z
m-298 -1657 c0 -9 5 -20 10 -23 6 -3 10 -16 10 -29 0 -12 4 -26 9 -31 11 -12
35 -79 122 -330 l70 -200 -24 -20 c-13 -11 -36 -29 -51 -40 -15 -11 -44 -33
-64 -48 -21 -15 -44 -33 -53 -40 -8 -7 -23 -16 -31 -22 -9 -5 -118 -84 -243
-175 -125 -91 -256 -185 -291 -210 -35 -25 -98 -69 -139 -98 -41 -29 -75 -51
-75 -48 0 3 16 41 36 83 19 43 42 94 51 113 9 19 20 42 24 50 5 8 13 25 19 37
18 42 146 298 199 398 50 93 82 152 139 250 12 22 25 48 29 58 3 9 9 17 13 17
4 0 11 11 14 25 4 14 11 25 16 25 6 0 10 4 10 9 0 9 83 152 132 229 10 15 22
38 28 51 10 23 11 23 25 5 8 -10 15 -27 15 -36z m-1451 -265 c-8 -10 -28 -43
-44 -73 -15 -30 -32 -57 -35 -60 -4 -3 -11 -16 -15 -30 -4 -14 -11 -27 -15
-30 -16 -12 -311 -586 -304 -593 2 -2 -2 -10 -11 -17 -8 -7 -15 -16 -15 -21 0
-12 -42 -102 -50 -109 -4 -3 -9 -13 -13 -23 -6 -15 -10 -16 -29 -5 -13 6 -27
13 -33 14 -9 2 -86 36 -270 119 -81 36 -356 173 -430 214 -116 64 -115 64
-103 78 6 7 14 13 19 13 5 0 49 20 99 44 50 25 93 45 95 46 3 0 35 14 71 30
83 39 393 170 400 170 3 0 24 8 47 19 23 10 80 33 127 51 47 18 94 36 105 41
41 18 301 110 324 115 14 3 32 9 40 14 9 5 25 10 35 10 17 0 18 -2 5 -17z
m1934 -1224 c2 -13 6 -31 10 -39 5 -15 55 -240 63 -290 3 -14 7 -32 9 -40 2
-8 7 -30 10 -47 5 -33 5 -33 -30 -28 -33 4 -92 14 -125 21 -8 2 -91 19 -185
39 -93 19 -177 37 -185 39 -8 2 -34 7 -57 11 -43 8 -50 28 -14 40 10 3 26 13
37 23 10 10 48 38 84 62 36 24 67 46 70 50 3 4 12 10 20 13 8 4 42 28 75 52
33 25 85 62 115 82 30 21 61 44 69 51 16 16 27 4 34 -39z"/>
</g>
</svg>
