<?xml version="1.0" encoding="utf-8"?>
<!-- Generator: Adobe Illustrator 16.0.0, SVG Export Plug-In . SVG Version: 6.00 Build 0)  -->
<!DOCTYPE svg PUBLIC "-//W3C//DTD SVG 1.1//EN" "http://www.w3.org/Graphics/SVG/1.1/DTD/svg11.dtd">
<svg version="1.1" id="Layer_1" xmlns="http://www.w3.org/2000/svg" xmlns:xlink="http://www.w3.org/1999/xlink" x="0px" y="0px"
	 width="141.73px" height="141.73px" viewBox="0 0 141.73 141.73" enable-background="new 0 0 141.73 141.73" xml:space="preserve">
<g fill="currentColor">
	<g>
		<g>
			<path d="M78.402,69.014c-0.633-5.167-3.129-10.115-4.146-15.279c-1.197-6.07-3.201-12.379-5.629-18.068
				c-0.544-1.273-2.817-0.741-3.048,0.519c-2.072,11.296-3.649,22.659-4.707,34.095c-0.146,1.576,2.94,1.157,3.068-0.226
				c1.058-11.436,2.635-22.798,4.707-34.095c-1.016,0.173-2.032,0.346-3.048,0.519c2.222,5.204,3.998,10.905,5.287,16.413
				c0.639,2.732,1.081,5.491,1.808,8.205c0.804,2.999,2.299,5.601,2.682,8.73C75.548,71.234,78.582,70.483,78.402,69.014
				L78.402,69.014z"/>
		</g>
	</g>
	<g>
		<g>
			<path d="M78.521,69.63c-4.274-3.445-12.185-3.154-16.704-0.381c-1.749,1.073,0.808,1.936,1.966,1.226
				c3.343-2.051,9.352-1.629,12.381,0.812C77.115,72.054,79.823,70.68,78.521,69.63L78.521,69.63z"/>
		</g>
	</g>
	<g>
		<g>
			<path d="M76.853,71.602c-2.726,5.208-9.711,3.504-12.283-0.956c-0.508-0.881-3.381,0.197-3.027,0.812
				c3.827,6.635,14.757,6.481,18.316-0.317C80.197,70.493,77.296,70.756,76.853,71.602L76.853,71.602z"/>
		</g>
	</g>
	<g>
		<g>
			<path d="M66.004,69.138c2.965-8.426,4.046-17.287,3.792-26.192c-0.033-1.131-2.772-0.176-3.029,0.588
				c-2.165,6.437-1.877,13.214-3.061,19.837c1.01-0.122,2.02-0.244,3.03-0.365c0.54-7.385,1.659-14.702,2.53-22.051
				c-1.009,0.196-2.019,0.392-3.029,0.588c2.249,8.979,7.522,17.134,8.015,26.526c0.812-0.416,1.624-0.831,2.436-1.247
				c-3.308-0.489-6.215-1.666-9.571-1.025c-1.412,0.269-2.533,2.017-0.399,1.727c6.57-0.893,8.48-13.35,6.166-18.326
				c-0.464-0.998-2.827-0.39-3.028,0.588c-1.074,5.202-1.273,10.525-2.507,15.698c-0.055,0.229,0.09,0.486,0.314,0.563
				c1.819,0.625,4.008,1.457,5.828,0.325c2.13-1.324,0.553-4.633,0.068-6.42c-0.29-1.07-2.878-0.321-3.029,0.588
				c-0.311,1.872-0.516,3.744-0.689,5.633c-0.116,1.262,2.934,0.687,3.03-0.365c0.174-1.89,0.379-3.761,0.689-5.633
				c-1.01,0.196-2.02,0.392-3.029,0.588c0.292,1.076,0.583,2.149,0.837,3.235c0.043,0.271,0.086,0.542,0.129,0.812
				c-0.837-0.943-0.967-1.988-0.388-3.135c0.759-4.062,0.938-8.199,1.775-12.255c-1.009,0.196-2.019,0.392-3.029,0.588
				c1.091,2.345,0.959,15.285-2.74,15.788c-0.133,0.575-0.266,1.151-0.399,1.727c2.793-0.532,5.427,0.581,8.127,0.98
				c0.778,0.115,2.492-0.167,2.436-1.247c-0.494-9.392-5.767-17.547-8.015-26.526c-0.265-1.056-2.919-0.334-3.029,0.588
				c-0.872,7.349-1.991,14.666-2.53,22.051c-0.094,1.284,2.848,0.657,3.03-0.365c1.184-6.623,0.896-13.401,3.061-19.837
				c-1.009,0.196-2.019,0.392-3.029,0.588c0.25,8.748-0.885,17.476-3.795,25.746C62.599,70.566,65.64,70.174,66.004,69.138
				L66.004,69.138z"/>
		</g>
	</g>
	<g>
		<g>
			<path d="M73.176,67.32c0.312-0.055,0.012-0.025-0.076-0.047c-0.146-0.036-0.088-0.066-0.053,0.036
				c0.239,0.689,1.188,0.685,1.765,0.53c0.493-0.132,1.5-0.657,1.263-1.342c-0.367-1.058-1.556-1.377-2.578-1.198
				c-0.63,0.11-1.566,0.393-1.686,1.152C71.698,67.156,72.647,67.412,73.176,67.32L73.176,67.32z"/>
		</g>
	</g>
	<g>
		<g>
			<path d="M64.504,72.444c2.753,0.47,5.308,1.435,8.138,1.469c2.28,0.028,4.91-1.341,4.639-3.924
				c-0.225-2.139-3.81-2.406-5.338-2.453c-2.198-0.066-4.891,0.091-6.863,1.181c-1.018,0.562-1.193,1.703,0.132,1.94
				c2.417,0.433,6.445-0.756,8.379,0.967c0.17-0.575,0.339-1.149,0.508-1.724c-1.129,0.422-2.062,1.083-2.965,1.87
				c-1.306,1.14-1.757,0.932-3.205-0.128c-0.3,0.623-0.6,1.245-0.9,1.868c1.922-0.604,4.969-0.468,5.898-2.667
				c0.388-0.915-0.583-1.236-1.301-1.239c-1.394-0.006-2.666,0.351-3.767,1.22c-0.325,0.256-0.832,0.917-0.391,1.325
				c1.647,1.523,3.64,1.927,5.798,2.293c1.458,0.248,3.089-1.807,1.061-2.15c-1.422-0.242-2.979-0.439-4.083-1.461
				c-0.13,0.442-0.26,0.883-0.391,1.325c0.455-0.337,0.951-0.468,1.489-0.392c-0.434-0.413-0.868-0.826-1.302-1.239
				c-0.274,0.647-2.895,0.761-3.552,0.968c-0.727,0.228-1.873,1.155-0.9,1.868c1.6,1.172,3.426,1.995,5.389,1.192
				c1.688-0.69,2.729-2.281,4.448-2.923c0.767-0.287,1.161-1.142,0.508-1.724c-2.449-2.181-6.718-0.873-9.659-1.4
				c0.044,0.647,0.088,1.293,0.132,1.94c1.64-0.906,6.214-1.5,7.664-0.025c1.542,1.569-2.643,1.187-3.092,1.115
				c-1.83-0.296-3.586-0.932-5.412-1.243C64.107,70.045,62.477,72.099,64.504,72.444L64.504,72.444z"/>
		</g>
	</g>
	<g>
		<g>
			<path fill="#FFFFFF" d="M62.316,71.25c2.746,1.191,4.394,3.771,7.673,3.658c2.977-0.103,5.377-1.47,7.278-3.727
				c0.682-0.809-0.972-0.911-1.406-0.395c-2.046,2.429-4.985,3.915-8.096,2.318c-1.489-0.764-2.539-2.086-4.106-2.766
				C63.069,70.083,61.526,70.908,62.316,71.25L62.316,71.25z"/>
		</g>
	</g>
	<g>
		<g>
			<path fill="#FFFFFF" d="M77.596,69.976c-1.518-1.268-2.407-2.741-4.234-3.632c-1.378-0.672-3.209-1.155-4.758-1.062
				c-3.286,0.198-5.151,2.327-6.752,5.011c-0.458,0.768,1.284,0.684,1.62,0.119c1.686-2.826,3.403-4.542,7.081-3.668
				c2.6,0.619,3.593,2.385,5.461,3.947C76.543,71.134,78.152,70.441,77.596,69.976L77.596,69.976z"/>
		</g>
	</g>
	<g>
		<g>
			<path fill="#FFFFFF" d="M69.481,73.945c1.143,0.046,2.497-0.281,3.079-1.36c0.562-1.044,0.197-2.526-0.159-3.568
				c-0.317-0.927-0.86-2.06-1.818-2.457c-1.031-0.427-2.273,0.412-2.639,1.334c-0.508,1.28-1.05,6.533,0.937,6.638
				c3.543,0.187,4.722-6.217,1.91-7.77c-0.344-0.19-1.519,0.01-1.655,0.443c-0.673,2.143-0.972,4.5-0.608,6.727
				c0.072,0.443,1.468-0.113,1.637-0.287c0.889-0.919,1.146-2.556,1.368-3.755c0.203-1.095,0.517-2.737-0.478-3.532
				c-0.695-0.556-2.033,0.131-2.385,0.793c-0.444,0.833-0.5,2.15-0.447,3.079c0.019,0.329,1.744,0.031,1.716-0.46
				c-0.04-0.708,0.052-1.439,0.186-2.132c0.062-0.325,0.163-0.637,0.318-0.929c-0.334,0.08-0.668,0.161-1.003,0.241
				c0.134,0.09,0.244,0.206,0.33,0.346c0.101,0.156,0.132,0.362,0.17,0.54c0.224,1.046-0.057,2.235-0.289,3.254
				c-0.189,0.83-0.428,2.034-1.044,2.67c0.546-0.096,1.091-0.191,1.637-0.287c-0.356-2.185-0.072-4.462,0.587-6.562
				c-0.551,0.148-1.103,0.295-1.655,0.443c1.188,0.656,1.389,2.071,1.377,3.312c-0.006,0.657-0.149,1.302-0.356,1.922
				c-0.078,0.235-0.193,0.453-0.312,0.67c-0.117,0.18-0.251,0.346-0.401,0.498c-0.352,0.275-0.169,0.296,0.546,0.062
				c-1.099-0.153-0.72-4.284-0.657-5.011c0.03-0.348,0.109-0.685,0.204-1.02c0.05-0.176,0.123-0.342,0.201-0.507
				c0.31-0.655-0.696-0.069-0.6-0.042c0.631,0.178,1.057,1.181,1.297,1.707c0.344,0.754,0.547,1.576,0.618,2.4
				c0.037,0.425,0.001,0.847-0.115,1.257c-0.041,0.143-0.109,0.274-0.18,0.404c-0.185,0.345,0.015,0.228-0.208,0.218
				C70.213,73.21,68.619,73.91,69.481,73.945L69.481,73.945z"/>
		</g>
	</g>
	<g>
		<g>
			<path d="M71.394,77.332c1.457,6.752,4.43,13.457,6.66,20c0.242,0.71,2.761-0.036,2.541-0.682c-2.23-6.542-5.203-13.247-6.66-20
				C73.788,75.976,71.237,76.605,71.394,77.332L71.394,77.332z"/>
		</g>
	</g>
	<g>
		<g>
			<path d="M79.447,96.268c-5.595,0.024-11.185,0.309-16.78,0.333c-1.422,0.006-1.975,1.789-0.246,1.781
				c5.595-0.024,11.184-0.309,16.78-0.333C80.623,98.043,81.176,96.26,79.447,96.268L79.447,96.268z"/>
		</g>
	</g>
	<g>
		<g>
			<path d="M63.687,97.15c0.279-3.764,1.583-7.202,2.854-10.718c1.281-3.544,2.086-7.197,3.02-10.84
				c0.124-0.481-2.345-0.142-2.501,0.465c-0.935,3.647-1.774,7.281-3.019,10.841c-1.263,3.61-2.609,7.09-2.893,10.934
				C61.124,98.133,63.633,97.873,63.687,97.15L63.687,97.15z"/>
		</g>
	</g>
	<g>
		<g>
			<path d="M65.612,96.15c-0.365-3.025,1.563-6.064,2.824-8.685c1.674-3.478,1.917-7.216,3.174-10.815
				c-0.844,0.116-1.688,0.231-2.532,0.348c-1.667,5.934-7.329,10.796-6.343,17.476c0.527,3.566,10.058,2.124,12.012,2.022
				c3.752-0.193,4.601-1.303,2.71-4.811c-1.666-3.093-8.204-9.62-5.029-13.195c-0.815,0.113-1.63,0.228-2.445,0.342
				c1.152,4.269,3.192,8.534,2.813,13.037c-0.168,1.999,0.185,3.317,2.215,3.772c0.566,0.127,2.114-0.192,2.059-0.991
				c-0.15-2.159-1.699-3.889-3.007-5.503c-2.316-2.859-3.271-5.624-4.632-8.997c-0.31-0.77-2.408-0.204-2.536,0.515
				c-0.883,4.963-1.41,9.944-3.273,14.667c-0.364,0.924,2.13,0.166,2.441-0.176c2.232-2.452,4.024-5.107,5.639-8
				c-0.815,0.114-1.63,0.229-2.445,0.343c0.328,2.854-0.68,5.236-2.087,7.661c-0.583,1.004,1.586,0.553,1.95,0.326
				c1.928-1.193,3.821-2.299,5.506-3.826c-0.759,0.058-1.519,0.114-2.278,0.172c0.21,1.771-0.45,2.965-1.087,4.5
				c0.845-0.171,1.691-0.343,2.537-0.515c-0.467-2.269-0.386-4.529-0.363-6.834c0.007-0.697-2.495-0.239-2.537,0.515
				c-0.089,1.623-0.356,3.248-0.732,4.827c0.007-0.032-4.89,3.278-2.529,1.069c0.872-0.815,1.496-1.697,2.065-2.738
				c0.549-1.004-1.983-0.669-2.351,0.004c-0.845,1.546-1.981,2.647-3.287,3.829c-0.36,0.325-0.334,0.759,0.219,0.819
				c2.454,0.269,5.006-0.441,7.151-1.616c1.96-1.074,1.892-4.646,1.996-6.542c-0.845,0.171-1.69,0.343-2.536,0.515
				c-0.022,2.304-0.104,4.564,0.363,6.834c0.185,0.899,2.303,0.045,2.536-0.515c0.709-1.706,1.314-2.993,1.097-4.834
				c-0.095-0.796-1.987-0.092-2.278,0.172c-1.537,1.393-3.286,2.421-5.04,3.508c0.65,0.108,1.3,0.218,1.95,0.326
				c1.519-2.617,2.63-5.266,2.276-8.339c-0.094-0.816-2.199-0.099-2.445,0.343c-1.614,2.892-3.406,5.547-5.639,8
				c0.814-0.059,1.627-0.117,2.441-0.176c1.863-4.723,2.391-9.704,3.273-14.667c-0.845,0.171-1.691,0.343-2.536,0.515
				c0.952,2.359,1.485,4.892,2.959,6.991c1.649,2.347,4.466,4.468,4.678,7.509c0.687-0.331,1.373-0.661,2.059-0.991
				c-2.139-0.479-1.12-3.639-1.154-5.19c-0.082-3.689-1.959-7.477-2.91-11c-0.238-0.881-2.105-0.04-2.445,0.342
				c-4.021,4.531,4.791,12.416,5.932,16.801c-0.093-0.355,2.888-0.303-1.611-0.07c-1.677,0.087-3.377-0.075-5.057-0.064
				c-3.011,0.02-4.368-0.342-4.095-3.674c0.456-5.574,4.906-9.641,6.365-14.834c0.242-0.86-2.268-0.408-2.532,0.348
				c-1.258,3.604-1.539,7.321-3.174,10.816c-1.31,2.802-3.22,5.805-2.832,9.018C63.166,97.604,65.72,97.044,65.612,96.15
				L65.612,96.15z"/>
		</g>
	</g>
	<g>
		<g>
			<path fill="#FFFFFF" d="M70.6,81.44c1.466,0,1.937-1.898,0.215-1.898C69.349,79.542,68.878,81.44,70.6,81.44L70.6,81.44z"/>
		</g>
	</g>
	<g>
		<g>
			<path fill="#FFFFFF" d="M70.947,85.877c1.419,0,1.977-1.771,0.249-1.771C69.777,84.105,69.22,85.877,70.947,85.877L70.947,85.877
				z"/>
		</g>
	</g>
	<g>
		<g>
			<path fill="#FFFFFF" d="M70.575,90.035c0.938,0,2.71-1.422,0.993-1.422C70.631,88.613,68.858,90.035,70.575,90.035L70.575,90.035
				z"/>
		</g>
	</g>
	<g>
		<g>
			<path fill="#FFFFFF" d="M70.542,93.576c0.772,0,2.761-1.17,1.061-1.17C70.83,92.406,68.841,93.576,70.542,93.576L70.542,93.576z"
				/>
		</g>
	</g>
	<g>
		<g>
			<path fill="#FFFFFF" d="M70.43,96.676c1.122,0,2.636-1.703,0.918-1.703C70.227,94.973,68.712,96.676,70.43,96.676L70.43,96.676z"
				/>
		</g>
	</g>
	<g>
		<g>
			<path d="M73.438,98.314c0,2.277,0,4.555,0,6.833c0.847-0.166,1.693-0.331,2.541-0.497c-0.118-2.456,0.497-4.864,0.545-7.315
				c0.021-1.073-2.524-0.541-2.541,0.312c-0.051,2.577-0.668,5.099-0.545,7.685c0.039,0.816,2.541,0.308,2.541-0.497
				c0-2.277,0-4.555,0-6.833C75.979,96.924,73.438,97.467,73.438,98.314L73.438,98.314z"/>
		</g>
	</g>
	<g>
		<g>
			<path d="M66.148,98.093c-0.395,2.59-0.735,5.443,0.379,7.906c0.5,1.105,3.014,0.365,2.54-0.682
				c-1.059-2.341-0.723-4.964-0.348-7.428C68.913,96.62,66.319,96.969,66.148,98.093L66.148,98.093z"/>
		</g>
	</g>
	<g>
		<g>
			<path d="M67.354,87.608c0.119,0.632,0.143,1.182-0.239,1.727c-0.405,0.578,0.341,0.893,0.801,0.91
				c0.674,0.026,1.505-0.23,1.909-0.807c0.563-0.804,0.604-1.668,0.427-2.607c-0.119-0.63-1.256-0.485-1.654-0.379
				C68.122,86.58,67.233,86.97,67.354,87.608L67.354,87.608z"/>
		</g>
	</g>
</g>
</svg>
