<svg viewBox="0 0 83 123" xmlns="http://www.w3.org/2000/svg"><g fill="none"><g fill="currentColor"><path d="M56.886 46.476c11.862 0 21.471 9.378 21.468 20.951v32.736c0 11.57-9.606 20.951-21.465 20.951H23.343c-11.857 0-21.468-9.381-21.467-20.951V67.427c0-11.573 9.61-20.951 21.467-20.951h33.543ZM56.571 45.271c.398.019.254-.189.315-.226-.664.045-.298.28-.315.226ZM50.014 45.741l.117-.084-.967.207.85-.123ZM43.883 45.738c.578.353 2.222-.057 3.314.068l.18.081.491-.284c-1.327.044-3.051.233-3.985.135ZM40.614 44.974c.202.137-.708.118.762.043l-.137-.035-.625-.008ZM41.239 44.981c.645-.009-.422-.115 0 0ZM38.257 45.061l.85-.123c-.179-.081-.936-.099-.653-.158-.874.066-.694.147-.197.281ZM37.45 45.318l.441-.052c-.078-.034-.195-.046-.44.052ZM38.825 45.157l-.934.109c.122.057.135.172.427-.04-.074.106.11.005.507-.069ZM39.353 45.21c.478.077 1.095.125.241.248 1.627-.049 1.389-.297-.24-.248ZM43.57 46.103l.638.104.553-.119c-.277.058-1.23-.096-1.19.015ZM32.958 44.877c-.053.075.287.2.349.296l.629-.086c-.323-.051-.935-.098-.978-.21ZM33.307 45.174l-.939.129c.84.015.993-.046.939-.129ZM37.297 45.71l1.546-.271-1.842.275.296-.004ZM29.368 44.868l.532-.174-.948.263.416-.089ZM26.987 44.898c.395-.144-.542-.244-.125-.333-.646.026-1.199.15-1.696.261.53-.061 1.093-.045 1.821.072ZM24.332 44.989c.264-.034.537-.096.835-.162a5.045 5.045 0 0 0-.835.162ZM30.765 45.266c-.072-.045-.213-.164-.738-.214l.37.211.368.003ZM30.409 45.27l-.014-.007-.799-.012.813.019ZM30.859 45.267l-.094-.001c.037.021.058.027.094.001ZM34.834 45.519c-.552.118-1.704.245-.589.425.396-.144-.242-.247.59-.425ZM31.318 45.531l.998.048c-.019-.056-.2-.137.076-.196l-1.074.148ZM30.83 45.598l.488-.067-.37-.018-.118.085ZM26.04 45.187c-.43.092-.901.1-1.434.114.572.042 1.162.064 1.723.063.077-.066.324-.185-.289-.177ZM28.165 45.246l-.097.012c.059.017.107.023.097-.012ZM19.16 45.691l.097.024.012-.038-.108.014ZM26.425 45.404a2.38 2.38 0 0 0 .93-.076c-.32.021-.662.035-1.026.037-.036.03-.044.05.096.039ZM22.836 45.111l.775.093c-.207-.075-.69-.15-.775-.093ZM27.923 45.199l.064-.009c-.14-.045-.124-.023-.064.009ZM27.923 45.199c-.22.03-.395.083-.57.129.26-.017.504-.039.714-.07a.767.767 0 0 1-.144-.059Z"/><path d="M17.883 47.374c.018-.193 1.074-.706 2.085-.599.922-.286.235-.836-.71-1.06-.01.113-.017.113-.983.488.367-.041 2.276-.131 1.456.158-1.3.283-1.08.145-1.746.178.59.111-1.552.74-1.145 1.042-.013-.03 1.066-.415 1.066-.415.034.048-.343.235-.023.208ZM21.22 45.462l.424-.046c-.491-.023-.844-.057-1.507-.106-.7.201-.83.295-.869.366l1.047-.142.718-.096.329-.013-.142.037ZM23.552 45.333c-.317.208-1.336.362-.709.559 1.22-.063.843-.191 1.562-.294-1.923.053.552-.119-.837-.24.379-.037.718-.047 1.039-.057a20.657 20.657 0 0 1-.995-.097l.044.013h.01l-.002.003c.083.027.109.043.016.027a.145.145 0 0 1-.04.004c-.013.03-.049.056-.087.081-.562-.039-.086-.057.088-.081.005-.01.021-.021.023-.032l-.008-.002-.3.018-.699.073-1.012.108c.426.013.976-.034 1.907-.083ZM33.217 46.403c-.059-.019-.057-.034-.06-.05-.125.027-.173.044.06.05ZM32.425 46.274c.14-.03.257-.115.712-.093.396.064 0 .103.02.172.274-.057.96-.153.098-.257l-.135.029c-.776-.073-1.772-.339-1.636-.369.225.193.425.33.941.518ZM27.934 45.858l-1.605.104.817.185-.042-.111c.913.044.715-.093.83-.178ZM18.949 45.616l.181-.255s-.233.109-.457.236l-.442.274s.712-.275.718-.255ZM16.811 46.16l.022-.208-.268.129-.258.151a4.186 4.186 0 0 1 .504-.072ZM46.237 119.938l.472-.056a4.831 4.831 0 0 0-.472.056ZM42.825 119.926l-.083.097c.158-.054.223-.093.083-.097ZM.613 90.58C.425 91.251.135 92 .36 91.919l.22-.206a4.64 4.64 0 0 1 .032-1.133ZM15.103 119.457a1.316 1.316 0 0 1-.158-.136l-.503-.009c.202.042.42.108.66.145ZM15.888 118.791l.765.421a6.894 6.894 0 0 0-.765-.421ZM64.162 118.361l.396-.373c-.746.266-.377.252-.396.373ZM1.594 61.209c-.24.569-.4 1.035-.518 1.449.311-.693.644-1.21.518-1.449ZM44.894 122.218c.288-.039.412-.083.404-.131-.298.037-.466.078-.404.131ZM.773 64.406l.101-.314c.045-.446.046-.906.203-1.434a3.603 3.603 0 0 0-.304 1.748ZM75.6 59.985a10.358 10.358 0 0 1-.024-.142c-.033-.002-.012.058.025.142ZM62.792 46.325c.199.039.522.112.822.195-.14-.06-.39-.115-.822-.195ZM8.944 50.12c.365-.286.044-.062 0 0ZM11.269 49.512c-.07.069-.114.132-.095.178.001-.061.036-.12.095-.178ZM1.909 68.867v.038c.042-.129.034-.105 0-.038ZM9.569 49.784a7.375 7.375 0 0 0-.52.301c.088-.044.249-.136.52-.301ZM9.431 49.758l.343-.224c.024-.062-.032-.05-.343.224Z"/><path d="M8.454 50.547c.197-.18.387-.341.595-.462-.082.042-.12.055-.105.035-.113.078-.253.213-.49.427ZM77.687 94.66l.021-.094c-.092-.435-.076-.243-.021.094ZM2.98 101.729l-.012-.046-.006.062.018-.016ZM3.321 103.168c-.363-.578-.413-.943-.36-1.423l-.603.55.482.446.481.427Z"/><path d="m54.406 119.877-1.115-.192c1.346-.318 2.321-.208 1.273-.479-.158.672-4.334.068-4.49.74l-.734-.142c.211.007.245-.033.452-.026-1.43-.322-1.062.486-2.904.391-.64-.052-1.09-.149-.652-.229l-1.43.167c-.415-.014-.315-.13.101-.117l-2.182.054.017-.02c-.312.105-1.017.268-1.362.337-.555-.096.278-.071.136-.154l-1.207.162c-.493-.174.509-.343 1.344-.318-1.129-.671-1.003.17-3.437-.223l1.14-.085c-.734-.382-1.625-.243-2.916-.48.306.124 2.583.599 1.27.766-.367-.051-.855-.074-1.563.061-.005-.238-.697-.18-1.56-.166l.059-.317c-.934.092-.86.253-1.41.396-1.04-.031-1.256-.276-1.501-.483-1.667-.05 1.151.394-.822.453-1.388-.121-2.36.008-4.019.197-.97-.108.17-.193-.18-.284l-.859.253c-.211-.006-.142-.084-.108-.123-.725.099-.059.316-1.2.402-.15.169-.746.06-1.45-.087-.695-.172-1.503-.277-2.195-.181-.318-.139.183-.168.096-.306-1.857-.013-1.585-.012-3.157-.059l-.606-.258c-.295-.147-.58-.312-.58-.312.825.549-.409.406-1.551.245.285.224.534.42.709.533l-.876-.223-.852-.298c-.175-.14.04-.16.358-.157l-.327-.069c-.524-.377-.138-.397.34-.369l.49.447c.48-.014.94-.091.921-.29a2.884 2.884 0 0 1-.56-.108c.125-.012.209-.031.173-.077-.043-.049-.238-.041-.523-.094l-.2-.486-.145.088-.95-.569c-.457-.315-.894-.649-.894-.649a16.832 16.832 0 0 1-2.33-.852c-.425-.167-.832-.411-1.271-.704-.436-.297-.937-.609-1.389-1.078.63.291.406-.192.658-.378.1.377.503.673.973.998l.74.518c.259.176.539.342.789.549-.528-.427-.312-.451-.143-.392 0 0-.52-.268-.987-.612l-.969-.659c.207-.134-.212-.48-.538-.992-.033.334-.386.076-.834-.345-.43-.435-.883-1.077-1.243-1.404.106-.14.385-.061 1.045.869-.231-.614-.593-.843-.97-1.08-.37-.239-.705-.518-.903-1.126.153.237.21.379.342.429-.233-.241-.553-.715-.742-1.107-.167-.405-.241-.708-.092-.572l.126.248-.714-1.503a40.072 40.072 0 0 0-.705-1.741c-.365-1.15-.765-2.107-.963-2.217.053-.026.545.147.653.235 0 0-.481-.73-.975-1.524-.264-.393-.444-.808-.6-1.122l-.256-.529c.386.271 1.21-.867 1.498.641.038-.448.045-.953-.097-1.906-.06.314-.518.768-.57.352.412-1.168.22-.811.572-2.25-.079.466-.66-.052-.641-.789.086.116.574-.061.634.209l-.57-1.835c.102.458.483.081.644-.33-.112.191.01-1.586-.046-2.075l-.132.778c.086-2.071-.803-2.046-.772-4.101.118.248.725.614.796-.431-.292-.479-1.405-2.121-1.63-3.94l.168-.348-.19-1.396c.439.869 1.364 3.308 1.724 4.639.132-.775.197-.217.182-1.377.156-.41.237.633.247.975l.1-2.703c-.34.119-.34-2.067-.625-1.964l.353 2.936c-.34.119-.968-1.697-.908-3.613.135-.486.607.364.72.325-.117-.249-.224-1.818-.14-1.993l.182.812c.128-1.066-.452-1.741-.128-3.021.022-.442.439-1.321.237-1.396-.39.721-1.592.862-1.884.382.025-.155.372-2.323.563-2.827.306-.729.727 1.094.99.474-.094-.028-.209-.431-.246-.598.08-.464.288.192.246-.817-.345-.167.029-2.052-.292-.476-.098-.986.07-1.05.057-2.209-.224.369-.76-1.04-.86-2.029.088.058.203-.163.255-.271.004-1.012.067-1.79.164-2.541.046-.375.069-.748.129-1.138.077-.389.15-.8.224-1.261.099-.162.364-1.019.434-.617.008-.268-.044-.528.094-1.085.57-.99-.278 1.237.285.508-.166-.108.061-1.493.28-2.285-.179.069-.394.502-.502 1.038-.102.539-.166 1.156-.21 1.562-.21-.043-.332-.432-.36-1.074-.058-.649.091-1.519.367-2.505.534-1.531.539-.53.588-.814.355-.666.543-1.171.7-1.567.169-.389.258-.693.346-.983.088-.29.175-.565.343-.893.196-.309.478-.668.93-1.131.829-.637.45.294.743.235a7.569 7.569 0 0 1-1.004 1.235c-.295.338-.55.646-.781 1.021l.681-.853c-.143.401-.536 1.162-.852 1.521.345-.277.93-1.382 1.856-2.484.87-1.138 2.041-2.28 2.987-2.934.229-.35.735-.848.4-.726-.013-.016-.53.502-.53.502-.663.28.856-1.132.075-.603.698-.708 1.452-1.627 2.776-2.218l.385.126c-.068-.063-.89.316-1.181.598.444-.424 2.053-.761 2.472-1.343l-1 .241c.84-.568 1.858-1.447 3.137-1.749-.662-.083-.265.13-1.27.118.885.034-3.028 1.385-1.657 1.246-.53.002-.885.212-1.293.397-.395.208-.848.393-1.45.621.09.06.468-.102-.443.5a1.338 1.338 0 0 1-.14.212l-.063.037.056-.026c-.028.04-.03.044.021-.01.236-.118.437-.198.54-.203-.15.251-.565.625-.993.989-.404.392-.8.797-.974 1.026-.505.384.117-.259-.215-.108 0 0-.523.69-.504.706-.216-.1-1.43.984-.496-.21l-.937.991c-.652.5-1.324 1.394-1.673 1.978-.39.519-.644 1.502-.503.938l-.5.938-.412.977-.06-.008c-.515.917-.774 1.971-1.118 3.018-.242 1.079-.586 2.158-.927 3.312l-.09 1.119c-.005.415-.029.885-.091 1.468l-.21.224c.018.912-.212 2.568-.017 2.947-.53.917-.116 4.125-.21 5.618l.257.057c-.015 1.028.059 2.016.162 3.291l.228-.078c.186 1.101-.162 2.83-.139 4.571-.086-.118-.063-.561-.01-.872-.514 2.08.373 4.389 0 6.274.082.47.053.812-.003 1.141a.546.546 0 0 0-.012-.116l-.003.191c-.04.208-.08.427-.121.653.055-.196.101-.385.122-.549.004.363.032.913.09 1.452l-.244.229.006.125c-.09.528.116.425.3.142.04.272.087.521.147.714-.395.43.133 1.414-.288 2 .205.363.155 2.709.586 2.998-.056.018-.083.177-.086-.114-.05.6-.098 1.201.023 1.74l-.31.254.211.659.243.67c-.148.82-.238 1.183-.52.369.118.495.191.839.241 1.105l.167.63c.09.354.175.679.483 1.469l-.21-.042c.141.591.659 1.443.587 1.835.011.69.534 2.298 1.44 4.02.949 1.697 2.198 3.536 3.345 4.886-.016-.446.212-.104.501.324.306.413.716.885.918.77.057.235.379.624-.134.33l1.723 1.381c.24.19.473.365.722.518.265.132.544.241.865.321.107.224-.445-.029-.33.133.145.051.566.196.687.364.12.165-.291-.038-.575-.138.815.479 1.323.639 1.674.611.343-.013.508-.162.657-.311.748.57 1.197.742 1.923.706.254.229.724.54-.373.197.307.094 1.194.548 2.09.75.89.225 1.712.408 1.78.231.184.108.885.156 1.057.145 1.42.257 1.556.189 2.968.258l-.39-.07c.568-.342 1.155-.056 2.264-.101l-.033.039c2.54.275 1.097-.132 3.6.183l-.137-.237c.234-.511 2.219.301 3.67.105l-.523-.136c.793-.175 2.218.694 3.013.758.173.045-.274.071-.516.104 2.087.301.27-.311 1.825-.383.285.167-.37.426.678.457.521.136 3.034-.544 4.461-.223-.315-.129-.626-.258.094-.355 1.107-.046 2.993.489 3.993.081.142.035.192.069.2.102.846-.105 2.75-.175 3.258-.396.783.82 5.26-.398 5.24.357l2.604-.04-.069.077c1.69.02 2.336-.223 2.902-.437.4-.007.12.105.093.149 2.513-.203 2.8-.327 4.68-1.288l.287.158c.238-.181 1.154-.326 2.215-.782 1.089-.385 2.33-1.058 3.268-1.864-.003.037-.016.106-.154.25.514-.478 1.154-.893 1.77-1.359.587-.493 1.255-.925 1.777-1.427.523-.502 1.025-.96 1.34-1.414.305-.462.481-.871.448-1.201l.144-.244c.083-.148.207-.336.295-.547l.378-.82c-1.277 1.918-.156-.494-.783.227.424-.77 1.447-1.83.917-.866l-.131.125c.268.616 1.483-2.446 1.712-2.285.888-2.114 1.436-4.322 1.71-6.533l.136-1.661c.016-.531.032-1.06.05-1.586l.052-3.119-.37.474.022-1.437c.086-.377.29-.506.275.519.21-.539-.176-1.719-.257-1.747.15-2.007.433.783.442.167l-.027-.835-.044.188c-.15-.677-.312-.737-.294-1.97.075-.779.23-.4.243-.706.027.002.039-.102.011-.471l.032-1.81-.293.724c-.145-.802.015-1.703-.317-.868.512-1.225.184-6.751.342-7.503-.213-1.124-.21-2.233-.184-3.607-.061.342-.39.545-.35-.639.68.433.295-2.17.785-3.128-.324.855-.08-3.368-.54-2.025.055-.988.254-.06.413-.812-.147-1.189-.047-2.438-.087-3.889-.006-.356.004-.72-.016-1.084l-.126-1.102c-.051-.37-.085-.746-.163-1.116a29.394 29.394 0 0 0-.301-1.103c-.099-.022-.102.5-.395-.093 0 0 .015-.415.002-.831l-.07-.826c-.272-.551-.64-.352-.809-1.464 0 .169-.003.418-.206.07-1.032-2.787-2.972-5.276-5.293-7.274-2.333-2.014-5.014-3.565-7.843-4.904.738.442.203.269-.402.061.38.178-.075.202-.035.342 0 0-.142-.075-.368-.158l-.825-.324-.834-.325c-.227-.095-.386-.125-.386-.125-.266.125-.948.029-1.606-.064-.657-.106-1.302-.082-1.441.051l.812-.016c-.555.162-.188.371.263.632.452.288.988.602.876.825.297-.062.629-.026.983.055.35.107.718.282 1.106.446.79.296 1.59.735 2.578.763.345.226-.388.024-.223.2.525-.059 1.043.193 1.954.705l-.131-.006c1.308.654 2.184 1.242 3.005 1.949l.635.529.623.627.698.691.728.856.015-.333c.45.536.502.683.664.967.82.368-1.304-1.459-.518-1.179.07.254.316.603.641 1.004.287.43.653.912 1.012 1.388.647.997 1.246 1.99 1.104 2.402.464.949.11-.401.578.555l-.012.313.297.166c.245.657.17 1.058.065 1.122-.044-.163-.198-.432-.271-.595.073.45.305 1.027.53 1.537.179.522.337.979.35 1.133l-.165-.998c.455 1.359.802 2.931.875 4.515.025.395.05.79.073 1.182l.03 1.22c.027.806.072 1.585.15 2.316l.113-.221c.209 2.232-.125 1.789-.028 4.242l-.026-.09c.112.491.17 1.146.156 1.818-.132-.62-.258 1.164-.404.352.224 2.423.176 1.199.597 2.799l-.189.369c.17.544.26.59.31 1.814-.162-1.004-.287.782-.5-.343-.411 2.57.415 3.817-.187 4.997.52 1.179.29-2.225.401-1.564.17-.554.39.975.337 1.782-.012.819-.666 1.396-.657 3.462.003-.207-.037-.221-.034-.426-.133.773.18 1.515-.035 2.463.314.531-.019 1.232.383 1.384l-.093-1.895c.105 1.074.575 2.082.347 3.851-.08-.137-.189-.663-.247-1.024-.118.516.078.995-.043 1.532-.403-.153-.088-2.303-.394-3.453-.17.554.29 2.176-.145 1.598.553.831-.069 2.036.354 3.435l-.241-.093c.038.222.151.681.145 1.088l-.311-.738c.263 1.129-.213 2.21-.146 3.195.056-1.059.13-1.188.222-1.154.095.037.213.237.3-.243.188 2.729-.593 1.532-.96 4.429.06-.388.38-1.451.402-.814-.106.557-.396 1.256-.61 1.555-.446 1.897.314-.228.246.617-.43.575-.196.95-.401 1.814l-.232-.079c-.46 1.029-.49 1.179-.408 1.352.054.158.13.304-.43 1.181.02.006.092-.928.091-.928 0 0-.39.993-.418.98l-.127-.318c-.45 1.058-.616 1.397-1.391 2.229.299-.111.271.375-.352 1.191-.585.417.087-.431-.868.645.102-.346.218-.701.781-1.043-.023-.099.072-.345.05-.443a3.56 3.56 0 0 0-.426.433 7.935 7.935 0 0 0-.449.473l-.708.829c.14-.139.31-.302.417-.367l-.18.271c-.107.164-.25.384-.422.578l-.664.812c-.306.15-.157-.078-.016-.3-.298.294-.424.591-.925.96-.006-.261-.12-.351.457-.989.041.04-1.413 1.351-1.413 1.351-.144.03-.97.354-.797.161-.954.464-2.108 1.657-3.54 2.014-.058.061-.186.145-.467.274-.642.234-1.288.316-1.948.443-.653.162-1.343.259-2.124.506 0 0-.945-.21-.944-.236-1.255.139 1.288.376-.825.609-1.516.184-.557-.26-1.104-.346-.79.175-2.167.532-3.632.249.478-.071.86-.02 1.311-.046Zm-16.663.154c.323-.05.966-.205 1.202-.063-.366.273-.65.142-1.202.063Zm-24.606-2.024c.232.062.544.234.87.492-.271-.118-.589-.237-.87-.492Zm-7.63-64.175-.013.035c-.531.538-.339.348.013-.035Zm1.095-1.106c.081-.137.048-.151-.021-.125-.03.121-.262.377-.547.658.125-.041.294-.16.568-.533Zm72.732 37.326-.064.283c-.07-.64-.006-.46.064-.283Z"/><path d="M15.792 118.866a.217.217 0 0 1 .075.165c.13.004.149-.039-.075-.165ZM64.087 118.431l.046-.014a.111.111 0 0 0 .03-.056l-.076.07ZM2.874 74.688c-.035.3-.08.468-.126.579.06.016.11-.121.126-.579ZM12.975 47.452l-.446.245a3.872 3.872 0 0 0-.427.275c.412-.27.608-.273.847-.352-.047-.04-.26-.029.026-.168ZM21.6 46.583c.138-.036.296-.018.432-.054l-.044-.109c-.6.037-1.008.146-.388.163ZM14.166 47.771c.156.147.675-.186 1.318-.432l-.115.041c.097-.316-.59-.031-1.203.391ZM15.632 47.28c.196-.08.398-.158.596-.218.04-.134-.251.064-.596.218ZM7.902 51.243c.284-.182-.021-.328.178-.394.097-.433-1.445 1.703-.178.394ZM14.939 48.143l-.32-.125-.257.343.577-.218ZM10.267 50.607l.906-.575c-.036-.024.055-.13.193-.227-.557.358-1.16.764-1.099.802ZM11.366 49.805c.3-.172.579-.344.722-.476-.159.097-.502.31-.722.476ZM13.652 48.831l-.31.088c-.01-.017-.668.348-.668.347l.478-.239.5-.196ZM3.233 59.48l-.338 1.108c.042.137.202-.139.32-.55.038-.278.158-.694.018-.558ZM5.446 56.729c-.206.232-.265.221-.43.327l.256.183.174-.51ZM3.988 59.649c.041.141-.33 1.595.143.276-.063-.142.338-1.185-.143-.276ZM2.01 76.453l-.004-.29-.516.041.52.249ZM3.246 91.62c.124-1.354-.318-.321-.164-1.545-.122-.317-.126 1-.231.675.128.815.055 1.245.395.87Z"/><path d="M2.85 90.75a5.848 5.848 0 0 0-.078-.418c.032.236.057.348.079.418ZM59.478 45.417c.004-.025-.931-.178-.931-.179l.593.2c.001-.009.338-.021.338-.021ZM57.66 45.674l-.21-.332-.564.264c.21-.003.617-.012.773.068ZM35.267 119.384l-.068.077c.137.084.348.09.766.104l-.698-.181ZM47.36 119.624l-.207-.006.389.29-.182-.284ZM57.453 119.225c-.361.015-.833.088-1.261.069.924-.038 1.36.278 1.261-.069Z"/></g><g fill="currentColor"><path d="M54.077 52.802c9.872-.002 17.872 7.806 17.87 17.439v27.25c0 9.633-8 17.441-17.869 17.441H26.156c-9.87 0-17.873-7.809-17.873-17.441v-27.25c0-9.634 8.001-17.439 17.871-17.439h27.923ZM53.817 51.799c.33.015.21-.158.261-.188-.553.037-.249.233-.261.188ZM48.357 52.19l.098-.07-.806.173.708-.103ZM43.254 52.188c.482.294 1.85-.047 2.759.057l.15.067.41-.236c-1.106.036-2.541.194-3.319.112ZM40.533 51.551c.169.115-.59.099.635.036l-.115-.029-.52-.007ZM41.052 51.558c.538-.008-.351-.096 0 0ZM38.57 51.624l.708-.102c-.15-.067-.78-.083-.544-.132-.727.055-.578.123-.164.234ZM37.9 51.838l.366-.043c-.064-.028-.162-.038-.367.043ZM39.043 51.704l-.777.091c.102.048.113.143.357-.033-.064.087.09.004.42-.058ZM39.483 51.749c.398.064.911.104.201.206 1.354-.041 1.155-.247-.2-.206ZM42.993 52.492l.532.086.459-.099c-.23.049-1.023-.08-.991.013ZM34.16 51.472c-.045.062.238.167.29.247l.524-.072c-.27-.043-.779-.083-.815-.175Z"/><path d="m34.45 51.718-.782.107c.7.013.827-.038.782-.107ZM37.771 52.165l1.287-.226-1.534.229.247-.003ZM31.17 51.463l.445-.144-.79.219.345-.075ZM29.19 51.489c.327-.12-.452-.203-.104-.277-.54.021-1 .125-1.412.217.44-.052.909-.038 1.515.06ZM26.98 51.564c.218-.028.446-.08.694-.135a4.281 4.281 0 0 0-.695.135ZM32.334 51.795c-.06-.038-.177-.137-.616-.179l.308.176.308.003Z"/><path d="m32.038 51.798-.011-.006-.665-.01.676.016ZM32.412 51.795h-.078c.03.017.048.023.078 0ZM35.72 52.005c-.46.099-1.417.204-.49.354.33-.12-.2-.205.49-.354ZM32.794 52.016l.831.04c-.015-.046-.167-.114.063-.163l-.894.123ZM32.388 52.071l.406-.055-.307-.016-.099.071ZM28.401 51.729c-.358.077-.75.083-1.194.095.476.035.967.053 1.434.053.065-.055.27-.154-.24-.148ZM30.169 51.778l-.08.01c.05.015.09.02.08-.01ZM22.673 52.148l.081.021.01-.032-.09.011ZM28.721 51.91c.357.034.57-.009.774-.063-.267.018-.55.029-.854.031-.03.024-.036.04.08.032ZM25.734 51.666l.645.077c-.173-.062-.575-.125-.645-.077ZM29.968 51.739l.054-.008c-.117-.038-.103-.019-.054.008ZM29.968 51.739c-.183.025-.328.069-.473.107.217-.014.42-.033.595-.059a.6.6 0 0 1-.122-.048ZM21.61 53.549c.015-.161.894-.588 1.735-.498.768-.238.195-.696-.592-.882-.009.094-.014.094-.818.405.305-.034 1.894-.108 1.212.132-1.083.236-.901.121-1.453.147.49.093-1.292.617-.954.867-.01-.025.887-.345.888-.345.03.042-.284.197-.018.174ZM24.389 51.958l.352-.039c-.408-.019-.702-.047-1.254-.088-.583.167-.692.245-.723.305l.87-.119.598-.08.275-.01-.118.031ZM26.33 51.851c-.264.173-1.112.302-.59.465 1.015-.052.701-.159 1.3-.245-1.602.044.46-.099-.698-.2.315-.03.597-.04.865-.047a15.863 15.863 0 0 1-.828-.081l.037.011h.007l-.001.002c.068.022.09.036.013.023a.146.146 0 0 1-.033.003c-.01.025-.04.046-.073.067-.467-.033-.07-.047.073-.067.004-.008.018-.017.02-.026l-.006-.002-.252.015-.58.061-.843.09c.356.011.813-.029 1.588-.069ZM34.375 52.741c-.049-.016-.047-.028-.05-.041-.104.022-.144.037.05.041ZM33.715 52.634c.117-.025.214-.096.593-.078.329.053-.001.085.016.144.229-.047.8-.127.082-.214l-.112.024c-.645-.061-1.475-.283-1.361-.307.187.161.353.275.782.431ZM29.977 52.288l-1.336.087.68.154-.034-.093c.759.037.595-.077.69-.148ZM22.498 52.086l.15-.212s-.192.091-.38.196l-.367.228s.593-.229.597-.212ZM20.718 52.539l.019-.173-.223.107-.215.125a3.378 3.378 0 0 1 .42-.059ZM45.21 113.954l.392-.046a3.68 3.68 0 0 0-.392.046ZM42.37 113.943l-.069.08c.131-.044.186-.077.069-.08ZM7.231 89.514c-.156.558-.397 1.182-.21 1.114l.183-.172a3.936 3.936 0 0 1 .027-.942ZM19.294 113.552a1.044 1.044 0 0 1-.131-.113l-.42-.007c.168.034.35.089.55.12ZM19.947 112.998l.637.35a5.764 5.764 0 0 0-.637-.35ZM60.132 112.641l.329-.31c-.621.221-.314.21-.329.31ZM8.049 65.063c-.2.474-.333.862-.431 1.206.259-.576.535-1.007.431-1.206ZM44.092 115.851c.24-.032.344-.068.336-.108-.247.029-.388.064-.336.108ZM7.364 67.725l.086-.262c.037-.371.037-.754.169-1.194a2.99 2.99 0 0 0-.255 1.456ZM69.656 64.048l-.021-.118c-.027-.002-.01.048.021.118ZM58.995 52.676c.165.032.434.093.683.163-.116-.051-.324-.096-.683-.163ZM14.168 55.834c.306-.238.037-.052 0 0ZM16.104 55.328c-.057.058-.095.11-.079.148.002-.051.03-.1.079-.148ZM8.31 71.438v.032c.035-.107.028-.088 0-.032ZM14.689 55.554a6.076 6.076 0 0 0-.433.25c.074-.036.208-.112.433-.25ZM14.574 55.533l.285-.186c.02-.053-.027-.042-.285.186Z"/><path d="M13.762 56.189c.165-.15.321-.284.495-.385-.068.035-.1.046-.088.029-.095.066-.21.178-.407.356ZM71.392 92.913l.019-.078c-.077-.362-.065-.202-.019.078ZM9.2 98.794l-.01-.038c0 .016-.003.036-.004.051l.015-.013Z"/><path d="M9.486 99.992c-.303-.481-.344-.786-.3-1.186l-.503.458.803.728Z"/><path d="m52.01 113.902-.928-.16c1.12-.265 1.932-.173 1.06-.399-.132.56-3.607.058-3.737.616l-.611-.117c.176.005.204-.027.376-.022-1.189-.268-.884.405-2.418.325-.532-.043-.906-.124-.54-.19l-1.192.139c-.346-.011-.262-.108.084-.098l-1.816.045.014-.017c-.259.088-.846.224-1.133.281-.462-.08.232-.06.114-.129l-1.005.135c-.41-.145.423-.285 1.117-.265-.938-.559-.835.141-2.86-.186l.948-.07c-.61-.317-1.352-.203-2.426-.4.255.104 2.15.498 1.057.638a3.858 3.858 0 0 0-1.302.051c-.004-.199-.579-.15-1.3-.14l.05-.263c-.777.075-.716.21-1.174.328-.866-.025-1.047-.229-1.25-.401-1.388-.042.959.327-.684.377-1.155-.102-1.964.007-3.346.164-.807-.091.142-.161-.15-.236l-.714.21c-.177-.005-.12-.069-.09-.103-.604.082-.049.264-1 .335-.124.141-.622.05-1.207-.072-.578-.144-1.25-.23-1.827-.15-.264-.115.152-.141.08-.255-1.545-.011-1.32-.01-2.627-.049l-.504-.215-.484-.261c.688.457-.34.338-1.29.204.237.187.445.35.59.444l-.728-.186-.71-.248c-.145-.117.033-.134.299-.131l-.272-.058c-.437-.313-.115-.331.283-.308l.408.372c.4-.011.782-.075.767-.241a2.344 2.344 0 0 1-.467-.09c.104-.01.173-.026.145-.064-.036-.04-.2-.034-.435-.078l-.168-.405-.12.073-.792-.474-.744-.541c-1.277-.402-2.52-.75-4.153-2.192.524.242.337-.16.547-.314.083.313.42.56.81.831.384.279.84.562 1.272.888-.44-.355-.259-.376-.118-.326-.03.048-1.629-1.06-1.629-1.059.172-.111-.175-.4-.448-.826-.026.278-.321.063-.694-.287-.359-.361-.735-.896-1.035-1.169.087-.116.32-.05.87.724-.38-1.006-1.248-.79-1.56-1.836.127.197.174.314.285.356a4.114 4.114 0 0 1-.618-.922c-.138-.337-.2-.589-.077-.477l.106.207-.594-1.251a34.46 34.46 0 0 0-.588-1.45c-.304-.957-.637-1.754-.802-1.846.044-.021.454.123.543.197l-.811-1.27c-.22-.327-.37-.672-.5-.934l-.213-.441c.321.227 1.008-.722 1.246.534.033-.374.037-.794-.08-1.588-.049.262-.43.64-.474.293.343-.972.184-.675.477-1.872-.066.388-.55-.044-.534-.657.071.097.477-.051.527.174l-.474-1.527c.085.381.403.067.537-.275-.093.159.008-1.319-.039-1.728l-.11.648c.072-1.725-.667-1.703-.642-3.414.098.206.603.512.663-.358-.243-.398-1.17-1.765-1.357-3.279l.138-.29-.157-1.162c.366.724 1.135 2.754 1.435 3.861.11-.646.164-.18.15-1.146.131-.341.199.526.206.811l.085-2.249c-.284.099-.285-1.722-.522-1.635l.294 2.443c-.282.099-.805-1.413-.755-3.008.113-.405.505.303.6.271-.098-.208-.187-1.514-.118-1.659l.151.677c.107-.889-.376-1.45-.105-2.516.018-.369.366-1.1.198-1.163-.324.601-1.326.719-1.57.318.022-.13.31-1.934.47-2.354.254-.606.605.91.823.395-.078-.023-.173-.358-.204-.497.066-.387.24.16.205-.681-.288-.139.024-1.708-.243-.396-.083-.821.06-.874.046-1.839-.186.308-.633-.865-.715-1.689.073.049.168-.136.212-.226.003-.842.056-1.49.136-2.114.04-.313.058-.623.108-.948l.188-1.049c.082-.135.303-.849.36-.514.007-.223-.037-.44.078-.903.475-.824-.231 1.03.237.423-.138-.09.051-1.243.235-1.902-.15.058-.328.418-.42.864-.084.449-.138.962-.174 1.3-.316-.054-.496-1.342.006-2.979.445-1.274.45-.441.491-.678.296-.554.451-.975.583-1.304.142-.324.214-.577.288-.818.074-.241.147-.47.286-.743.163-.257.398-.556.774-.941.69-.53.376.245.619.196a6.352 6.352 0 0 1-.837 1.028 6.363 6.363 0 0 0-.65.85l.567-.709c-.12.333-.446.967-.71 1.267.287-.23.775-1.151 1.547-2.068.724-.947 1.7-1.898 2.487-2.442.19-.291.611-.705.334-.604-.012-.013-.443.418-.443.418-.551.232.713-.942.063-.502.581-.59 1.21-1.354 2.311-1.846l.32.106c-.057-.053-.741.263-.983.497.37-.353 1.71-.633 2.059-1.117l-.833.2c.7-.473 1.548-1.204 2.612-1.455-.552-.069-.22.108-1.058.098.738.028-2.52 1.152-1.38 1.037-.858.062-1.253.525-2.283.847.075.05.39-.085-.368.416a1.125 1.125 0 0 1-.117.176l-.053.031.046-.021c-.023.033-.025.037.018-.009.196-.098.363-.165.45-.169-.124.209-.471.52-.827.824-.337.326-.667.663-.811.854-.42.32.097-.216-.18-.09 0 0-.435.574-.419.587-.179-.083-1.19.819-.413-.175l-.778.824c-.543.416-1.103 1.16-1.393 1.646-.325.432-.536 1.251-.419.781l-.416.781-.344.812-.05-.006c-.429.763-.645 1.64-.93 2.512-.204.898-.489 1.796-.774 2.757l-.075.932c-.005.346-.025.737-.076 1.223l-.174.186c.014.76-.176 2.139-.015 2.453-.441.764-.096 3.435-.174 4.677l.214.048c-.012.856.048 1.678.134 2.739l.19-.065c.156.917-.134 2.356-.115 3.806-.072-.098-.053-.467-.009-.726-.427 1.731.31 3.652 0 5.224.069.391.045.675-.002.948a.463.463 0 0 0-.01-.097l-.002.16-.102.544c.046-.164.084-.32.102-.458.004.303.027.761.075 1.21l-.204.19.006.104c-.075.439.096.354.249.117.034.227.074.435.123.595-.328.357.11 1.178-.239 1.665.171.302.128 2.255.488 2.495-.047.015-.069.147-.072-.095-.041.499-.082 1 .02 1.448l-.259.212.176.548c.102.279.202.559.202.559-.123.683-.197.984-.432.307.181.825.253 1.148.34 1.445.074.295.145.564.402 1.223l-.174-.036c.117.492.549 1.202.488 1.528.01.575.445 1.912 1.2 3.346.79 1.413 1.828 2.944 2.784 4.066-.013-.37.177-.087.417.271.255.345.596.737.764.641.048.196.315.52-.11.274l1.433 1.149c.2.159.394.305.601.432.22.109.453.201.72.268.089.186-.37-.024-.274.11.12.043.47.164.572.303.1.138-.242-.031-.479-.114 1.357.809 1.707.475 1.941.251.622.475.996.618 1.6.588.213.19.602.449-.31.164.256.078.994.456 1.74.625.739.187 1.425.34 1.482.192.151.091.736.13.879.12 1.18.215 1.294.158 2.47.216l-.324-.06c.472-.284.962-.045 1.884-.083l-.027.032c2.113.229.913-.109 2.997.152l-.113-.198c.193-.425 1.846.251 3.054.089l-.435-.113c.66-.146 1.845.578 2.508.631.145.037-.227.06-.429.087 1.736.251.224-.259 1.52-.319.236.14-.309.355.563.382.434.112 2.525-.454 3.714-.186-.263-.108-.52-.216.079-.296.92-.039 2.49.406 3.323.067.116.029.16.058.166.084.705-.087 2.289-.146 2.711-.329.653.683 4.379-.332 4.363.298l2.167-.034-.058.064c1.408.017 1.945-.186 2.416-.363.332-.006.1.088.076.125 2.093-.169 2.331-.272 3.896-1.072l.24.132c.401-.219 3-.794 4.565-2.202-.003.03-.014.088-.13.208.429-.397.962-.744 1.474-1.132.49-.41 1.045-.77 1.48-1.188.436-.418.852-.799 1.115-1.177.254-.385.401-.726.373-1 0 0 .204-.317.364-.659l.316-.683c-1.064 1.597-.13-.411-.652.188.353-.64 1.205-1.522.763-.721l-.109.104c.224.513 1.236-2.036 1.426-1.902a20.634 20.634 0 0 0 1.426-5.438c.037-.463.073-.924.111-1.383.015-.442.028-.883.041-1.32.016-.875.03-1.74.044-2.596l-.308.394.017-1.195c.072-.314.242-.422.23.432.175-.449-.147-1.432-.214-1.455.125-1.67.36.652.368.14l-.023-.695-.036.157c-.127-.563-.26-.614-.245-1.641.063-.648.191-.332.202-.587.022.002.032-.085.01-.393l.026-1.506-.244.603c-.12-.668.014-1.418-.263-.723.425-1.02.152-5.62.284-6.246-.178-.936-.174-1.858-.153-3.003-.05.284-.324.454-.291-.531.567.359.246-1.807.653-2.604-.27.712-.066-2.804-.45-1.686.047-.823.212-.05.345-.676-.122-.99-.038-2.03-.071-3.237-.006-.297.004-.599-.014-.902l-.105-.917c-.042-.308-.071-.622-.137-.93l-.25-.918c-.08-.018-.084.417-.328-.077 0 0 .012-.345.002-.692-.028-.344-.059-.688-.059-.688-.226-.459-.533-.292-.673-1.219 0 .141-.002.349-.171.059-.859-2.319-2.475-4.392-4.407-6.055-1.942-1.677-4.172-2.968-6.529-4.083.615.368.17.224-.334.051.317.147-.062.168-.029.285 0 0-.117-.063-.306-.132l-.686-.27a286.5 286.5 0 0 1-.695-.27c-.19-.08-.322-.104-.322-.104-.221.104-.789.024-1.337-.054-.546-.088-1.084-.067-1.201.043l.676-.013c-.46.135-.156.309.22.526.376.239.822.501.729.687.247-.052.524-.022.819.046.29.089.596.235.919.371.659.247 1.324.612 2.147.635.287.188-.323.021-.187.167.438-.049.868.161 1.626.586l-.107-.004c1.088.545 1.817 1.034 2.5 1.623.36.273.694.589 1.048.962l.58.576.605.712.013-.277c.374.446.418.568.552.805.683.306-1.085-1.214-.43-.981.058.211.263.502.534.835.239.358.543.76.842 1.156.538.831 1.038 1.657.918 2 .388.79.093-.334.483.462l-.01.26.247.138c.203.546.141.88.055.934-.037-.135-.166-.359-.226-.495.061.375.254.855.441 1.279.149.435.28.815.291.943l-.138-.831c.379 1.132.668 2.44.728 3.758.108 1.282.064 2.73.21 3.928l.095-.185c.175 1.859-.104 1.489-.023 3.531l-.021-.074c.094.408.141.954.13 1.514-.11-.517-.214.969-.336.293.187 2.017.147.998.497 2.329l-.156.308c.141.453.216.491.257 1.511-.135-.836-.239.65-.416-.285-.342 2.139.345 3.178-.155 4.159.434.981.24-1.852.333-1.302.142-.462.323.811.28 1.482-.01.683-.554 1.162-.546 2.882.002-.171-.03-.183-.029-.354-.11.644.15 1.261-.028 2.05.26.442-.016 1.025.318 1.152l-.077-1.577c.089.895.479 1.732.29 3.205-.068-.113-.156-.552-.207-.853-.098.43.066.828-.034 1.275-.335-.128-.073-1.917-.328-2.875-.142.462.242 1.812-.12 1.331.46.691-.059 1.694.294 2.858l-.2-.077c.03.185.125.566.12.906l-.26-.615c.22.939-.178 1.84-.12 2.659.08-1.778.273-.384.435-1.163.156 2.272-.495 1.275-.8 3.688.05-.323.317-1.208.334-.679-.09.464-.33 1.045-.508 1.294-.371 1.58.262-.188.205.514-.358.479-.163.791-.334 1.511l-.193-.065c-.864 1.671.199.63-.699 2.107.019.005.077-.771.077-.771 0-.001-.326.826-.35.815l-.105-.265c-.375.88-.513 1.163-1.159 1.854.248-.093.226.312-.293.991-.488.348.072-.357-.722.537.085-.288.181-.584.65-.868-.02-.082.06-.287.04-.369-.447.423-1.046 1.113-1.317 1.443.116-.115.258-.251.347-.305l-.15.225c-.089.138-.209.319-.352.481-.277.338-.552.677-.552.677-.255.125-.133-.065-.014-.25-.248.244-.353.491-.77.799-.005-.217-.102-.292.38-.823.035.033-1.175 1.123-1.175 1.123-.12.025-.809.296-.663.135-.795.386-1.755 1.379-2.948 1.676-.048.051-.154.12-.389.229-.534.195-1.072.264-1.62.369-.545.135-1.12.215-1.77.421 0 0-.788-.175-.785-.197-1.046.115 1.07.313-.689.508-1.26.153-.462-.216-.918-.288-.659.146-1.805.443-3.023.207.397-.054.714-.011 1.09-.033Zm-13.87.129c.269-.042.804-.171 1-.054-.305.229-.542.12-1 .054Zm-20.484-1.686c.194.052.452.195.726.41-.227-.099-.492-.197-.726-.41Zm-6.35-53.422-.01.029c-.442.448-.282.29.01-.029Zm.913-.921c.067-.114.041-.126-.018-.104-.024.1-.218.313-.455.548.104-.034.245-.133.473-.444Zm60.544 31.074-.053.236c-.06-.533-.006-.382.053-.236Z"/><path d="M19.866 113.061a.183.183 0 0 1 .063.137c.109.003.124-.033-.063-.137ZM60.07 112.699l.037-.012a.087.087 0 0 0 .024-.047l-.062.059ZM9.114 76.284c-.03.249-.067.39-.106.482.05.013.092-.101.106-.482ZM17.524 53.613l-.37.204c-.186.102-.356.229-.356.229.342-.224.507-.227.705-.293-.04-.033-.216-.024.021-.14ZM24.704 52.891c.115-.03.245-.015.36-.045l-.037-.09c-.499.03-.84.121-.323.135ZM18.516 53.88c.13.122.562-.155 1.098-.359l-.096.034c.08-.264-.493-.027-1.002.325ZM19.737 53.471c.164-.067.33-.131.496-.182.033-.112-.21.054-.496.182ZM13.302 56.768c.235-.151-.018-.273.147-.327.081-.361-1.203 1.417-.147.327ZM19.16 54.189l-.267-.104-.214.285.48-.181ZM15.27 56.24l.754-.479c-.03-.021.045-.108.161-.189-.463.298-.965.636-.915.668ZM16.185 55.572c.249-.143.482-.286.6-.396a8.85 8.85 0 0 0-.6.396ZM18.088 54.761l-.258.073c-.008-.014-.556.289-.556.289l.398-.199.416-.163ZM9.413 63.625l-.282.922c.035.114.168-.116.265-.458.034-.232.134-.577.017-.464ZM11.255 61.335c-.17.193-.22.184-.357.272l.212.152.145-.424ZM10.041 63.766c.034.117-.275 1.328.119.23-.052-.12.283-.988-.119-.23ZM8.394 77.753l-.003-.241-.43.034.433.207ZM9.423 90.379c.104-1.127-.265-.268-.136-1.286-.102-.265-.106.832-.193.562.107.679.046 1.035.33.724ZM9.094 89.654a5.452 5.452 0 0 0-.065-.348c.026.198.047.291.065.348ZM56.236 51.921c.003-.021-.776-.148-.776-.149l.494.167c0-.009.282-.018.282-.018ZM54.722 52.135l-.176-.276-.469.22c.175-.004.514-.011.645.056ZM36.077 113.492l-.056.064c.115.069.289.075.637.086l-.58-.15ZM46.145 113.692l-.173-.004.325.241-.152-.237ZM54.547 113.359c-.3.013-.694.073-1.05.059.77-.033 1.131.23 1.05-.059Z"/></g><g fill="#090909"><path d="M62.198 64.341c.11.06.07-.624.088-.746-.186.151-.083.924-.088.746ZM60.363 65.892l.032-.279-.271.684.239-.405ZM58.64 65.88c.165 1.165.625-.189.932.225l.05.266.139-.937c-.373.148-.858.771-1.121.446ZM57.704 63.364c.06.453-.198.391.218.141-.022-.049-.028-.078-.04-.115a.33.33 0 0 1-.178-.026Z"/><path d="M57.882 63.391c.183-.034-.122-.381 0 0ZM57.031 63.656l.241-.407c-.054-.267-.273-.326-.193-.521-.249.224-.193.489-.048.928ZM56.807 64.508l.125-.172c-.023-.113-.057-.151-.125.172Z"/><path d="m57.196 63.972-.264.364c.036.188.043.565.12-.132-.018.345.033.013.144-.232ZM57.349 64.148c.138.252.316.41.074.815.46-.163.391-.982-.074-.815ZM58.554 67.085l.18.341.155-.391c-.078.194-.346-.314-.335.05ZM55.494 63.071c-.011.248.096.659.118.976l.177-.288c-.095-.168-.275-.321-.295-.688Z"/><path d="m55.612 64.046-.264.43c.244.046.285-.157.264-.43ZM56.776 65.801l.433-.898-.517.91.084-.012ZM54.445 63.06l.143-.578-.258.874.115-.296ZM53.744 63.181c.103-.478-.187-.799-.073-1.095-.19.09-.34.503-.473.874.148-.21.319-.162.546.221ZM52.968 63.505c.073-.117.149-.325.23-.545-.08.113-.158.274-.23.545ZM54.885 64.362c-.024-.149-.073-.541-.231-.704l.123.695.108.009Z"/><path d="m54.781 64.375-.004-.022a47.603 47.603 0 0 0-.234-.034l.238.056ZM54.911 64.364l-.026-.002c.01.068.017.091.026.002ZM56.07 65.176c-.155.393-.475.816-.15 1.405.106-.479-.081-.814.15-1.405ZM55.06 65.233l.29.154c-.008-.184-.066-.451.01-.646l-.3.492Z"/><path d="m54.927 65.457.134-.224-.107-.057-.027.281ZM53.498 64.139c-.115.308-.25.335-.406.392.176.128.348.2.512.192.014-.22.072-.615-.106-.584ZM54.125 64.314l-.026.041c.018.058.032.077.026-.041ZM51.538 64.602l.033.125-.002-.121-.031-.004ZM53.635 64.852c.13.131.197-.042.263-.258a.542.542 0 0 1-.294.129c-.009.099-.008.164.031.129ZM52.545 63.85c.073.143.154.262.238.373-.074-.218-.222-.556-.238-.373ZM54.05 64.163c.007-.011.012-.024.019-.032-.046-.148-.04-.075-.019.032ZM54.05 64.163c-.062.102-.106.276-.152.43a.753.753 0 0 0 .2-.239 1.454 1.454 0 0 1-.048-.191ZM51.378 69.098c-.027-.646.254-1.263.57-.589.239-.501-.05-2.613-.376-3.782.009.282.022.542-.241.941.127.346.69.783.484 1.382-.354.356-.321-.208-.53-.537.209.794-.393 1.2-.22 2.375l.29-.437c.017.184-.077.485.023.647ZM52.133 64.762l.114-.086c-.142-.105-.252-.359-.463-.856-.188.329-.214.57-.215.786l.6.058-.036.098Z"/><path d="M52.785 64.649c-.064.707-.33 1.018-.121 1.77.34-.064.214-.597.408-.911-.553.199.146-.399-.278-.779a.618.618 0 0 1 .298-.199 1.72 1.72 0 0 1-.308-.308l.015.043.003-.002v.011c.028.086.038.14.009.09-.001.009-.009.012-.012.015.001.098-.006.184-.014.266-.17-.138-.034-.181.014-.266l.003-.105-.003-.008-.551.41c.125.093.274.066.537-.027ZM55.653 68.098c-.018-.062-.018-.111-.02-.163-.032.086-.046.146.02.163ZM55.424 67.677c.037-.099.065-.38.194-.31.115.209.006.337.016.567.073-.188.263-.509.014-.846l-.036.096c-.223-.237-.524-1.109-.488-1.207.077.632.144 1.083.3 1.7ZM54.118 66.334l-.448.358.252.602-.023-.365c.264.135.194-.312.219-.595ZM51.461 64.256l.017-.745-.212 1.064.195-.319ZM50.839 64.386l-.024-.646-.138.4.162.246ZM43.712 91.687l.207.1a.535.535 0 0 0-.207-.1ZM43.597 90.741l-.325.032c.184.013.317.009.325-.032ZM35.2 72.842c-.668.006-1.686-.02-.977.206l.708.175c-.05-.221.08-.328.27-.381ZM38.474 83.865l.213-.081-.702-.045.49.126ZM41.47 83.627l-.43.288c.155-.072.298-.166.43-.288ZM45.285 96.729l.753.056c-.036-.242-.39-.086-.753-.056ZM44.125 65.719c-.28-.202-.481-.26-.634-.247.377.306.742.831.634.247ZM36.065 92.585a.84.84 0 0 0 .452.034.661.661 0 0 0-.452-.034ZM42.902 65.666c.06.055.107.077.165.122.106-.16.226-.3.423-.316-.277-.23-.56-.334-.588.194ZM45.828 115.94c-.034.013-.05.029-.089.041.097.008.104-.011.09-.041ZM38.115 120.789c-.038-.056-.03-.138-.032-.216-.054.032-.056.096.032.216ZM48.221 64.33c.132-.063.01-.08 0 0ZM49.218 67.029c-.02.083-.027.186-.012.349a1.43 1.43 0 0 1 .012-.349ZM43.318 70.271l-.011.003c.095.108.077.087.01-.003ZM48.47 64.624a.735.735 0 0 0-.204-.187c.037.05.1.112.204.187ZM48.4 64.295c.052.026.091.039.13.053.002-.119-.022-.191-.13-.053Z"/><path d="M48.031 64.391c.078-.021.157.003.235.045-.033-.044-.05-.083-.045-.107-.04.017-.096.038-.19.062ZM43.715 105.739a1.014 1.014 0 0 1-.065.031c.307.105.256.053.065-.031ZM41.552 77.912l-.033-.016-.026.011.06.005Z"/><path d="M42.048 78.313c-.879-.239-.758-.322-.555-.406l-2.088-.145 1.32.287 1.323.264Z"/><path d="m44.291 93.905.593-.407c1.122.209.8.538 1.659.107-2.25.301-.43-1.171-2.676-.858l.438-.278c-.013.062.122.051.108.111 1.007-.567-1.668-.032-1.432-.589.142-.204.447-.381.732-.305l-.619-.301c.024-.122.417-.159.395-.038l-.284-.567.067-.007a10.425 10.425 0 0 1-1.193-.179c.292-.206.251.034.523-.052l-.603-.235c.555-.234 1.167-.059 1.127.184 2.175-.692-.615-.176.566-1.067l.342.263c1.23-.423.725-.588 1.449-1.083-.398.159-1.859 1.061-2.483.799.15-.13.205-.277-.28-.391.794-.143.564-.298.474-.525l1.055-.173c-.352-.202-.883-.085-1.385-.149.05-.303.853-.511 1.527-.704.08-.488-1.247.555-1.546.051.332-.447-.151-.655-.857-.96.317-.313.65-.075.934-.219l-.877-.065c.01-.058.272-.086.403-.101-.359-.126-1.054.173-1.394-.071-1.174.113 1.583-.886.204-1.028.287-.135.654-.059 1.059-.149-.938-.353-.69-.316-1.92-.562l.644-.44c-.758.359-1.75.159-2.566-.05-.373.142-.697.266-.848.342l-.632-.425c.169-.081.538-.071.99-.043l-.264-.06c.374-.22.997-.194 1.603-.143l-.638.247c.656.041 1.39.059 2.007-.042a.618.618 0 0 1-.308-.114c.178.008.337.008.442-.019.11-.029-.13-.048-.408-.09l1.173-.24-.472.029.68-.657c-1.245-.291-3.036-.526-3.566-1.224.884.131 1.429-.038 2.464-.08-1.082.244.494.485.296.833.1-.188.597-.185.77-.154l-1.03-.531c.846-.035.626-.164.966-.335-1.664.2-1.15-.403-1.653-.637.563-.024 1.134.021 1.004.315 1.255-.347-1.97-.38-.902-.73.015.074-.071.114.215.142-.501-.171-.109-.596.382-.486l.012.072c.205-.472.063-1.401-1.326-1.616a65.86 65.86 0 0 1 1.982.271s-1.167-.292-2.327-.66c-1.161-.361-2.312-.798-2.312-.798 1.2.244 4.106.405 4.747.864.184-.081.393-.17.015-.437-.184.029-1.778-.11-1.867-.231 1.395-.046.758-.081 1.955-.164-.276.047-2.127-.454-2.028-.637.274.091 1.843.408 2.027.51l-.865-.408c-.426-.21-.847-.442-.847-.442.295.195 1.534.422 2.066.492-.361-.062.113-.295-.03-.434l-.46.015c.398-.283-2.332-1.287-2.02-1.793.32.229 2.122 1.064 2.429.994-.414-.239-1.41-.822-2.317-1.512-.918-.687-1.724-1.484-1.839-1.958l.53.191s-.06-.188-.122-.375l-.111-.386c.49.553 1.254 1.417 2.05 2.174a27.042 27.042 0 0 0 2.109 1.799c.449.076.592.263.631.071.472.198.641.462.649.512-.005-.022.455-.131.455-.114-.953-.575-.786-.858-1.523-1.396-.033.015.683 1.062.694 1.027-.486-.276-1.13-.73-1.578-1.19-.45-.454-.704-.929-.463-1.042.418.193 1.51 1.28 1.821 1.487-.282-.254-.363-.699-.141-.546l.367.49c.39.163-.888-1.212.04-.631.117-.011 1.104.907.682.417-.904-.896-3.634-3.693-4.138-4.525.112.007 1.428.424 1.892.853.726.69 1.194 2.058 1.833 2.639a3.241 3.241 0 0 1-.38-.711c.23.151.512.773.605.56-.605-.941.422-.147-.447-.836.02-.385.325.066.518-.104-.454-.579-.981-2.254-.83-2.687.112.262.336.563.438.701.572-.147 1.038.208 1.52.056.14.239.47.476.53.961 0-.207-.058-.586.08-.659.563.83-.267.245.297 1.278-.19-.621.08-.967.191-1.404-.341-.951-.567-.049-.63.405-.452-1.301-.501-2.82-.043-3.586.401-.457.43.81.465.598.915.039.251-2.521 1.223-1.695.454.816.323 1.717.504 2.33-.303.381-.669-.438-.92-.356l.395.344c-.06.311-.25.575-.439.354.393.713 1.439-.127 2.19.515.069-.305.229-.63.087-.969l-.19.146c-.291-.677.263-1.018-.05-1.312.217-.527.46-1.349.919-.994l.182.989c-.038-.291-.327-.57-.408-.251.127-.466.754 1.288.808-.034l-.354-.664c.237-.525.517-1.62.916-1.335-.248-.974-.074.119-.44-1.01.358 1.412-.972.027-.453 1.498-.41-1.31-.524-.527-1.03-1.616.053.326.208.611-.137.489a2.145 2.145 0 0 1-.035.297l-.025-.022.023.037c-.008.05-.008.061.009.013.095.133.178.298.225.478-.064.771-.562.808-.672 1.217-.209-.126.024-.387-.13-.72l-.166.62c-.133-.721-.705-1.122-.314-1.619l-.422.034c-.314-.367-.692-.473-.851-.121-.24-.114-.343.898-.287.301l-.565.582-.049-.177c-.722.083-.994 1.503-2.203.52-.167.243-.322.56-.79.519l-.33-.553c-.203.305-1.224-.149-1.058.513-.567-.672-1.024-.562-1.41-.217-.389.33-.676.819-1.042.918l.491.676c-.387.232-.587.674-.74 1.297l.54.508c.056.37-.24.45-.601.552-.354.103-.795.212-.996.515-.198-.205-.018-.308.2-.301-.957-.187-.991.422-.927.977.043.565.26 1.101-.469 1.16.158.284.015.359-.216.401.006-.016 0-.036-.016-.058a.172.172 0 0 0-.042.065c-.148.022-.318.042-.464.081.197-.003.363-.012.451-.043-.04.136-.036.37.063.628l-.783-.204c.003.021-.003.033.002.055-.358.098.296.284.902.395.086.141.201.278.36.406-1.3-.26.255.602-1.128.404.608.315.21 1.088 1.6 1.47-.182-.033-.278-.001-.27-.096-.198.153-.396.321-.037.563l-1.023-.098.635.331.641.312c-.646.15-1.02.225-1.767-.149 1.122.787.387.581 1.52 1.212l-.656-.084c-.005.194.875.538.32.608-1.294.352-.258 1.979-1.347 3.033 1.933-.301-.844.527.667.48-.456.088-.706.253-1.117.11.478.5-.663.862.64 1.105-.454.104-.684-.047-.95.031.103.033.417.129.148.21-.266.082-.392-.038-.601-.104.135.54 1.553.437 2.881.326-.598.328-.499.456.398.528-.42.142-.85.351-1.052.054-.038.183-.472 1.18.587 1.044-.259.094-.042.258.087.286-.007.406-.085.451.081.819l.153-.135c1.298-.061.341.268.55.549l-.13.014c-.787.864.493.231-.424 1.101l.78-.184c1.707-.253-.888.778-.167 1.045l.424-.223c.62.107-2.195 1.011-2.368 1.258-.14.072-.251-.029-.372-.074-.898.73 1.046-.114 1.364.255-.543.175-1.436.155-1.488.449-.426.216 1.96.484.961 1.049.414-.157.828-.314 1.188-.178.209.27-1.477 1.069-.08 1.106a1.15 1.15 0 0 1-.328.109c.387.166.703.634 1.461.65-2.699.645 1.562 1.194-.961 1.583l.249.671-.26.021c-.095.466.537.532 1.169.6-.155.128-.404.087-.537.098-.412.721-.303.764 1.034 1.135l-.813.169c.497.085-1.16 1.104-.115 1.61a1.225 1.225 0 0 1-.379-.023c1.059.599-2.038 1.963.973 1.879l.788.391c.17-.64 1.31-.051 1.783-.358.2.227-.84.728-1.025.445l.146-.063c-1.575.06-.477.823-1.544.915.185 1.193-.514 2.437-.534 3.549l1.212-.216-.046.397c-.278.122-.946.201-.912-.079-.683.192.606.426.873.418-.462.577-1.436-.121-1.455.049l.104.22.14-.061c.51.151 1.039.136.999.476-.232.226-.746.151-.79.237-.086.004-.125.034-.027.129l-.075.493.953-.245c.489.194-.022.468 1.057.185-1.66.417-.491 1.872-1.034 2.096.707.286.697.593.617.969.2-.097 1.285-.174 1.156.157-2.242-.085-.965.611-2.573.88 1.066-.237.275.909 1.788.546-.178.271-.838.016-1.362.219.891.646-.564 1.393-.315 2.171.293.021.749-.098 1.178.086l-1.487.364c.137.157 1.69.207.657.448.25-.029.624-.074.714.034-.755.741-.479 1.536-.399 2.336.052.791-.055 1.595-1.475 2.217.589-.146.63-.003.635.159.146-.09.722.079 1.12.103l-1.168.526c1.085.248 0 .701 1.043.902l-.167-.23c1.208.438 2.793-.049 4.378.178-1.374-.483 2.18-.636.22-1.395.337-.086.502.154.878.128-.668-.207-.793-.384-.454-.662l.165.051c-.087-.877.663-1.188 1.164-2.142l-.793.021c.114-.202.364-.23.567-.316-1.187-.314-.094.584-1.405.279 1.62-.176.09-1.46 1.926-1.56.023-.325-.92.053-.895-.27l.498-.064-.634-.108c.115-.205.739-.289 1.158-.282-.052.05.11.151.145.209.596-.257-.165-.79.03-.878l-.32.304c-.415-.897.27-1.974-.767-2.824l-.373.063c-.699-.642.405-.518.076-1.224l.089.024c-.373-.138-.564-.322-.524-.516.44.172.847-.352 1.333-.126-.75-.688-.586-.339-1.98-.762l.618-.123c-.563-.14-.858-.144-1.023-.486.535.27.942-.257 1.648.043 1.337-.796-1.427-1.039.54-1.466-1.734-.258-.914.681-1.292.508-.55.181-1.299-.222-1.139-.456.024-.232 2.168-.503 2.1-1.1-.005.06.125.057.12.116.424-.249-.617-.402.075-.719-1.045-.088.038-.359-1.285-.316l.339.522c-.364-.289-1.927-.471-1.208-1.022.269.021.628.146.83.235.38-.175-.276-.266.114-.447 1.325-.051.328.639 1.356.905.547-.197-.996-.565.446-.494-1.834-.115.193-.608-1.22-.909l.792-.034c-.129-.055-.506-.159-.499-.276l1.042.133c-.897-.259.704-.692.198-.969.091.655-.937.227-1.487.551-1.138-.711 2.021-.637 1.55-1.514.124.113-.428.504-.813.345.146-.186.424-.441.83-.587-.227-.586-.804.169-1.316-.04.942-.296-.42-.256-.755-.484l.803-.082c.444-.733-1.69-.009-1.132-.681l1.139.141-.32-.289.918-.031c-.712-.276-.548-.401-.328-.772-.557.144-1.455.119-1.515-.175.448-.258.776.025.604-.383.514.035 1.157.068.445.338.264-.011.513.038.773.028.524-.286.05-.57.024-.723a.287.287 0 0 1-.165.188l-1.193-.481c.287-.133.54-.086.787-.039-.104-.114-.483-.154-.576-.328.656-.034 1.326-.129 1.668.095l-.802-.499c.278-.074.735-.4.985-.355.336-.378-1.37-.637-.925-1.135a.642.642 0 0 1-.363-.113c.092-.424.838-.9-.118-1.253l1.118-.44c-.325-.335-1.404.58-1.944.025-.443-.383.964-.312 1.262-.515-.622-.132-1.875-.327-.998-.876.235.1.08.232.187.343Zm-1.305-4.491c.183.059.73.145.273.291-.928.059-.507-.095-.273-.291Zm-3.041-6.372c.272.035.15.144-.142.286-.074-.072-.053-.166.142-.286Zm6.838-17.853a.753.753 0 0 1-.004.04c-.284-.265-.18-.159.004-.04Zm.529.263a.554.554 0 0 0-.03-.329c0 .202-.103.232-.232.196.068.198.151.328.262.133Zm-8.936 41.904.206-.088c.243.161.03.124-.206.088Z"/><path d="M41.123 83.653c-.131.039-.28.064-.43.089a.655.655 0 0 0 .43-.089ZM45.148 96.719c-.006.006-.003.01-.007.016.048.001.097-.002.145-.006l-.138-.01ZM43.742 73.61a1.612 1.612 0 0 1-.327-.264c.115.157.235.272.327.264ZM49.615 63.82l-.277.231c.14-.052.207.115.292.232-.025-.182-.108-.442-.015-.463ZM52.409 68.506c.034-.098.082-.014.116-.113l-.029-.365c-.168.032-.267.33-.087.478ZM50.13 66.4c.083.658.235.418.421.278-.012.003-.021.01-.035.003-.018-.929-.205-.604-.386-.281ZM50.594 66.651c.059-.037.117-.057.178-.029-.006-.371-.077-.073-.178.029ZM47.84 64.924c.124.156-.059-.846.037-.586-.009-.855-.526 1.11-.036.586ZM50.481 68.559l-.14-.809-.047.666.187.143ZM48.929 68.114l.33.188a.396.396 0 0 1 .05-.287c-.19-.004-.417-.14-.38.099Z"/><path d="M49.308 68.016c.1.005.19-.026.23-.163a.382.382 0 0 0-.23.163ZM50.096 68.84l-.105-.162-.218-.04.323.202ZM45.637 68.547l-.266.311c.045.278.18.421.268.283.023-.208.119-.345-.002-.594ZM47.108 70.51c-.116-.149-.16-.326-.266-.58l.21.992.056-.412ZM46.308 70.934c.039.281-.19.884.14.732-.047-.275.18-.576-.14-.732ZM41.71 71.637l.053-.058-1.067-1.295 1.014 1.353ZM43.128 76.311c.452-.041-.953-.437-.41-.436-.348-.213-.443.004-.744-.182.337.303.088.278 1.154.618ZM41.973 75.693a2.748 2.748 0 0 0-.209-.175c.081.086.149.136.21.175ZM37.12 121.525l-.377.185.583-.076-.207-.109ZM38.326 122.128l-1.082-.086.96.268c-.043-.06-.125-.173.122-.182ZM45.01 88.353l-.26.027c-.271.088-.28.149-.303.271l.563-.298ZM44.81 91.825l.013-.061-.95.265.938-.204ZM46.514 94.452c.021-.122-.218-.225-.196-.348.216.227-1.01.559.196.348Z"/></g><g fill="#090909"><path d="M61.46 84.7c.042.051-.2-.591-.24-.708.027.149.297.876.24.708ZM61.325 86.335l-.045-.275.027.692.018-.417ZM60.58 86.443c.243 1.146.257-.225.45.163l.068.258-.105-.933c-.122.17-.242.822-.413.512ZM59.887 83.987c.072.448-.039.396.104.133a3.553 3.553 0 0 1-.03-.112c-.013.008-.035.009-.074-.021ZM59.962 84.008c.069-.039-.09-.374 0 0ZM59.646 84.299l.06-.412c-.045-.265-.134-.317-.12-.514-.077.23-.04.492.06.926ZM59.619 85.153l.042-.175c-.02-.111-.037-.148-.042.175Z"/><path d="m59.742 84.608-.081.37c.03.187.066.563.042-.134.02.344.014.012.039-.236ZM59.82 84.779c.081.246.176.397.11.809.189-.179.066-.99-.11-.809ZM60.7 87.643l.136.327.022-.396c-.01.196-.213-.292-.158.069ZM58.959 83.739c.007.248.072.658.1.974l.063-.287c-.052-.168-.138-.321-.163-.687ZM59.058 84.713l-.1.432c.113.043.123-.159.1-.432ZM59.705 86.443l.125-.907-.164.922.039-.015ZM58.508 83.729l.046-.576-.09.869.044-.293ZM58.203 83.838c.038-.477-.089-.802-.044-1.096-.075.088-.141.496-.198.864.065-.206.139-.153.242.232ZM57.858 84.142c.033-.114.067-.318.103-.535a2.91 2.91 0 0 0-.103.535ZM58.742 85.032c-.017-.149-.05-.539-.126-.703l.077.695.05.008ZM58.695 85.046l-.002-.021a.593.593 0 0 1-.108-.036c.014.006.047.024.11.057ZM58.755 85.034l-.013-.002c.008.069.012.091.013.002ZM59.328 85.838c-.044.396-.187.818.009 1.404.025-.479-.082-.811-.01-1.404ZM58.855 85.902l.145.152c-.013-.184-.05-.45-.023-.646l-.122.494ZM58.799 86.127l.056-.225-.052-.056-.004.281ZM58.101 84.791c-.052.305-.117.331-.19.38.08.137.164.21.242.207.006-.22.03-.612-.052-.587ZM58.391 84.977l-.012.04c.01.058.017.078.012-.04ZM57.182 85.171l.012.127.003-.12-.015-.007ZM58.17 85.507c.062.133.094-.039.12-.255-.041.071-.087.118-.136.126-.003.099-.003.164.017.129ZM57.665 84.471c.031.146.066.269.105.382-.032-.221-.096-.564-.105-.382ZM58.354 84.824l.008-.031c-.023-.148-.018-.075-.008.031Z"/><path d="M58.354 84.824c-.025.102-.045.274-.063.428a.892.892 0 0 0 .089-.235l-.026-.193ZM56.927 89.646c.018-.646.19-1.243.337-.55.147-.484.044-2.61-.07-3.799-.005.282-.004.543-.147.924.046.354.315.826.192 1.41-.193.333-.158-.229-.249-.57.076.807-.255 1.17-.226 2.354l.18-.415c.001.185-.064.479-.017.646ZM57.458 85.364l.057-.08c-.065-.112-.113-.371-.198-.877a2.892 2.892 0 0 0-.12.771l.28.09-.02.096ZM57.767 85.278c-.034.704-.171 1.005-.079 1.765.173-.051.114-.589.211-.896-.27.178.07-.393-.128-.788.05-.121.097-.158.14-.188a1.824 1.824 0 0 1-.141-.318l.007.043.001-.002v.011c.014.088.018.142.003.091 0 .009-.003.012-.005.014a42.5 42.5 0 0 1-.009.266c-.078-.144-.014-.183.01-.266l.001-.104v-.009l-.263.389c.058.096.128.074.252-.008ZM59.275 88.76a1.13 1.13 0 0 1-.018-.163c-.014.087-.018.146.018.163ZM59.133 88.341c.016-.099.018-.38.089-.311.07.207.02.336.035.566.03-.188.112-.511-.033-.846l-.015.097c-.128-.235-.313-1.104-.296-1.202.062.631.112 1.081.22 1.696ZM58.422 86.996l-.223.352.135.605-.017-.365c.139.139.097-.311.105-.592ZM57.157 84.821l.032-.742-.132 1.048.1-.306ZM56.865 84.909l.018-.645-.081.388.063.257ZM38.601 91.621l-.086.177a.679.679 0 0 0 .086-.177ZM39.11 91.706l.04-.315c-.04.172-.061.3-.04.315ZM49.368 84.579c-.053-.609-.089-1.551-.138-.825l-.027.707c.083-.12.13-.037.165.118ZM43.68 88.331c.004.069.008.144.01.217l.135-.668-.144.451ZM43.334 91.241l-.095-.467c.016.162.046.318.095.467ZM35.773 92.167l-.13.714c.127.005.095-.361.13-.714ZM53.78 85.068c-.07-.28-.133-.4-.192-.438.082.412.133 1.025.193.438ZM39.435 84.151a1.286 1.286 0 0 0-.098.424c.056-.117.093-.25.098-.424Z"/><path d="m53.338 84.619.037.169c.07-.114.14-.206.214-.157-.06-.306-.137-.497-.25-.012ZM26.726 91.674l-.032-.079c.02.093.028.096.032.079ZM21.294 86.747c-.003-.066.039-.118.073-.175-.05-.015-.082.029-.073.175ZM55.684 84.577c.063-.044.012-.077 0 0ZM55.917 87.384a2.947 2.947 0 0 1 0 0ZM52.408 88.979l-.006-.003c.01.139.008.113.006.003ZM55.769 84.901a.963.963 0 0 0-.074-.212c.011.055.034.124.074.212ZM55.767 84.566c.02.032.037.051.053.07.01-.117.005-.192-.053-.07ZM55.595 84.613c.037-.01.068.024.1.076a.32.32 0 0 1-.011-.112.285.285 0 0 1-.09.036ZM31.277 89.493a2.396 2.396 0 0 0-.014-.067c-.068.293-.039.246.014.067ZM46.983 91.758a.626.626 0 0 0 .011-.033l-.008-.025-.003.058ZM46.692 92.263c.183-.869.232-.756.293-.563l.103-2.04-.396 2.603Z"/><path d="m37.363 91.73.116.646c-.282 1.028-.396.658-.311 1.562.195-2.208.657-.179.86-2.383l.071.473c-.03-.023-.045.106-.075.082.126 1.074.29-1.585.54-1.249.082.177.123.503.035.76l.26-.528c.059.048.012.43-.047.383l.342-.149-.008.064c.077-.343.229-.869.3-1.093.057.323-.062.23-.064.508l.228-.521c.025.579-.174 1.121-.293 1.029-.021 2.218.2-.543.453.774l-.195.267c0 1.262.173.818.297 1.615-.01-.411-.213-2 .032-2.533.04.171.106.257.253-.179-.069.785.052.601.186.567l-.102 1.039c.167-.288.204-.818.329-1.279.147.116.107.924.083 1.605.235.187-.057-1.306.258-1.477.172.416.358.005.666-.596.114.371-.084.633-.059.936l.206-.818c.03.023-.003.277-.021.405.14-.312.105-1.038.303-1.306.152-1.141.2 1.705.534.424.025.3-.085.635-.107 1.038.372-.827.31-.598.658-1.724l.143.7c-.078-.794.2-1.7.441-2.443l-.05-.876.322-.533c.017.173-.044.527-.128.958l.072-.245c.061.393-.045.988-.168 1.562l-.038-.649c-.125.625-.253 1.318-.296 1.929a.782.782 0 0 1 .113-.273 2.87 2.87 0 0 0-.06.427c-.001.11.049-.117.118-.378l-.048 1.163.058-.459.286.757c.363-1.144.743-2.841 1.187-3.283-.178.841-.15 1.386-.249 2.392-.01-1.075-.354.426-.54.19.098.121.028.6-.015.765l.461-.937c-.085.822.022.624.087.973.078-1.634.378-1.059.576-1.545-.04.548-.129 1.103-.301.954.09 1.243.44-1.888.543-.829-.046.01-.064-.077-.107.199.15-.477.372-.069.268.401L45.72 91c.281.219.913.092 1.082-1.287-.022.178-.199 1.661-.234 1.94l.952-4.605c-.153 1.184-.224 4.026-.534 4.676.057.176.127.381.317-.025-.034-.174.03-1.728.106-1.83.065 1.337.064.718.191 1.863-.05-.261.195-2.116.305-2.047-.043.277-.151 1.839-.21 2.029l.447-1.804c-.1.323-.149 1.549-.128 2.07.001-.36.248.054.34-.121l-.086-.434c.303.303.541-2.545.854-2.423-.07.374-.292 2.316-.147 2.56.155-.931.706-4.479 1.044-5.178l.012.539.264-.594c-.244 1.4-.866 4.336-1.173 5.474.088.434-.019.634.17.6.023.507-.163.754-.22.779l.404.357c.069-1.096.417-1.072.473-1.984l-.557 1.098c.07-1.093.52-3.082.804-2.867.042.441-.21 1.942-.234 2.308.069-.374.344-.697.351-.429l-.174.575c.139.424.386-1.429.51-.371.065.075.107 1.424.166.777-.022-1.257.244-5.119.388-6.052.017.086.271 1.219.306 1.841.045.986-.339 2.321-.302 3.169.026-.299.116-.663.15-.779.056.26-.096.923.074.799.105-1.107.32.115.142-.933.178-.307.15.239.337.202-.01-.721.328-2.43.5-2.736a6.88 6.88 0 0 0-.01.82c.31.118.448.633.745.659.012.271.137.604.049 1.078.054-.194.115-.568.208-.591.126.97-.214.139-.143 1.3.049-.645.29-.878.442-1.274.012-.999-.291-.207-.447.189.08-1.375.386-2.803.719-3.423.256-.329.059.894.11.7.444.26.493-2.385.819-1.377.112.882-.064 1.744-.056 2.377-.214.325-.281-.569-.416-.539l.155.424c-.076.288-.219.504-.28.247.093.794.77.184 1.101.921.073-.291.193-.593.15-.946l-.115.119c-.079-.71.24-.972.11-1.306.164-.494.346-1.271.54-.866l.015 1.001c.002-.292-.12-.599-.187-.296.096-.441.29 1.363.41.054l-.13-.695c.158-.499.35-1.56.52-1.241-.066-.989-.042.112-.149-1.045.085 1.438-.445-.067-.3 1.446-.102-1.345-.213-.574-.35-1.722-.005.329.041.632-.101.466l-.041.29-.01-.025.007.039c-.007.05-.008.06.003.014.03.146.055.319.063.504-.096.756-.336.726-.432 1.113-.085-.159.051-.377.015-.73l-.144.582c.013-.733-.193-1.225.032-1.646l-.187-.039c-.094-.415-.236-.583-.345-.28-.081-.162-.261.801-.157.231l-.318.44.006-.184c-.286-.105-.675 1.182-.937-.157-.11.179-.228.398-.382.182l.006-.635c-.141.214-.341-.655-.44-.001-.025-1.711-.594-.41-.8-.729l-.068.825c-.152-.058-.32.166-.538.483l-.043.73c-.215.587-.395-.551-.665-.496.04-.277.101-.199.136-.027-.187-1.67-.77 1.147-.961-.075-.095.26-.14.165-.175-.022.007-.001.015-.014.022-.037a.032.032 0 0 0-.029-.011l-.067-.396c.015.18.031.328.052.397-.057.011-.15.095-.248.271l.03-.786c-.008.01-.013.008-.02.021-.058-.295-.098.366-.104.958a2.866 2.866 0 0 0-.15.464c.041-1.27-.255.408-.23-.947-.112.652-.46.459-.627 1.838.014-.18-.004-.268.042-.275-.078-.165-.157-.33-.276.053l.049-.999-.323 1.321c-.069-.617-.088-.974.104-1.729-.403 1.152-.28.423-.638 1.568l.07-.642c-.092.017-.315.866-.32.329-.09-1.24-.982-.256-1.395-1.438-.076 1.902-.162-.87-.32.596.012-.45-.037-.71.084-1.092-.306.417-.332-.745-.63.476.011-.452.118-.651.116-.92-.03.096-.121.383-.123.112-.002-.269.073-.372.134-.563-.278.051-.436 1.429-.576 2.723-.08-.625-.157-.545-.335.296-.01-.428-.047-.879.136-1.016-.089-.07-.521-.673-.628.364-.005-.266-.125-.088-.16.029-.208-.081-.218-.176-.436-.096l.042.175c-.2 1.245-.2.264-.383.399l.018-.128c-.304-.938-.207.419-.494-.646l-.05.781c-.189 1.673-.248-1.019-.529-.396l.04.452c-.172.563-.132-2.309-.237-2.528-.013-.148.064-.231.11-.336-.232-1.016-.132 1.018-.393 1.235.006-.555.182-1.396.03-1.513-.042-.452-.624 1.75-.75.675.01.429.022.856-.117 1.166-.182.139-.322-1.643-.591-.316a1.93 1.93 0 0 1-.002-.335c-.159.335-.471.54-.61 1.26.1-2.704-.913 1.248-.712-1.236l-.413.104.03-.253c-.245-.184-.382.406-.516.997-.046-.174.015-.403.03-.533-.341-.526-.388-.425-.789.794l.023-.809c-.116.464-.461-1.303-.897-.382.01-.092.027-.248.064-.359-.47.921-.888-2.297-1.2.637l-.314.711c.343.246-.116 1.273.005 1.77-.145.166-.314-.903-.136-1.047l.02.148c.138-1.531-.415-.563-.36-1.606-.71.046-1.378-.826-2.066-.9l.06 1.194-.234-.071c-.059-.279-.073-.935.096-.883-.08-.678-.29.562-.296.822-.328-.485.141-1.392.041-1.42l-.145.084.03.14c-.118.487-.129 1.004-.332.944-.128-.238-.066-.735-.118-.782 0-.084-.017-.124-.078-.034l-.306-.101.13.941c-.13.466-.283-.046-.136 1.02-.217-1.647-1.128-.569-1.27-1.073-.162.695-.344.692-.58.621.07.193.164 1.247-.035 1.13-.07-2.187-.424-.922-.72-2.478.24 1.024-.58.312-.198 1.764-.186-.159-.09-.812-.277-1.312-.317.883-1.018-.438-1.566-.049.047.283.22.697.186 1.14l-.288-.676-.304-.672c-.092.162.268 1.635-.176.717.088.228.216.571.164.679-.694-.564-1.362-.058-1.865.341-.53.404-.998.713-2.27.146.467.316.422.451.354.567.138.043.453.573.714.874l-.492-.238-.498-.225c.713.922-.168.491.615 1.33l-.113-.267c.441.555.962 1.021 1.503 1.51.505.449.95.863 1.448 1.419-.434-.535-.08-.274.206-.028.307.242.535.473.017-.381.208.221.272.425.497.694-.37-.56-.41-.73-.168-.551l.084.145c.11-.321.584.187.941.513l-.318-.708c.09.078.19.301.277.475-.373-1.114-.15-.017-.607-1.229.364.711.42.688.54.687.116-.001.243.022.507.882.1-.014-.261-.858-.152-.874l.147.463-.122-.612c.098.08.272.664.363 1.063-.029-.044-.024.121-.029.16.203.539.21-.239.28-.065l-.162-.271c.23-.508.757.061 1.038-.95l-.067-.36c.243-.7.278.375.592.041l-.007.088c.042-.367.124-.557.222-.522-.062.431.213.821.127 1.299.297-.739.131-.576.3-1.94l.08.602c.056-.552.053-.839.233-1.001-.132.523.145.918.004 1.608.398 1.312.523-1.351.73.583.15-1.677-.342-.925-.25-1.285-.096-.546.122-1.253.25-1.086.127.036.23 2.137.53 2.106-.03-.008-.032.118-.061.111.111.427.222-.578.358.116.084-1.013.18.059.214-1.232l-.285.298c.158-.339.33-1.848.593-1.11-.025.26-.11.602-.167.792.072.382.153-.251.228.142-.043 1.293-.35.275-.526 1.26.073.546.328-.932.228.467.146-1.778.292.229.523-1.127l-.03.773c.035-.121.11-.485.171-.464l-.132 1.001c.187-.852.301.757.47.295-.333.016-.048-.935-.175-1.503.45-1.024.18 2.029.652 1.675-.066.106-.22-.474-.109-.828.084.162.19.463.228.871.312-.15-.017-.798.133-1.269.067.946.167-.379.318-.674l-.032.786c.333.521.168-1.635.464-1.011l-.189 1.084.18-.274-.077.894c.213-.656.262-.481.427-.222-.012-.556.098-1.425.26-1.441.084.473-.101.744.13.644-.078.488-.167 1.104-.225.374l-.1.743c.086.543.282.138.363.135-.028-.031-.063-.075-.076-.188l.388-1.071c.034.299-.022.533-.075.763.07-.081.138-.439.24-.501-.064.637-.099 1.297-.252 1.589l.351-.69c.003.279.11.771.056 1.005.144.385.5-1.212.696-.702a.94.94 0 0 1 .107-.329c.205.158.34.955.659.098l.06 1.154c.22-.246-.089-1.455.278-1.863.265-.348.014.982.074 1.307.16-.567.459-1.726.603-.778-.088.202-.13.028-.206.108Zm2.54-.307c-.064.16-.204.66-.2.194.135-.893.14-.46.2-.194Zm4.01-1.553c-.061.257-.106.123-.142-.18.053-.059.101-.025.141.18Zm11.05-4.677-.007.038c-.091-.309-.06-.187.007-.038Zm.204.35a1.18 1.18 0 0 0 .023-.328c-.023.198-.072.21-.125.152.007.207.03.35.102.176Zm-24.59-1.352.048.206c-.106.227-.077.022-.047-.206Z"/><path d="M43.375 90.904c0-.134.008-.28.02-.428a1.03 1.03 0 0 0-.02.428ZM35.797 92.035c-.002-.006-.005-.004-.007-.009l-.017.141.024-.132ZM51.277 92.017a1.585 1.585 0 0 1-.064-.411c-.015.191-.005.355.064.411ZM56.34 84.238l-.139.201c.066-.037.086.136.116.261.002-.183-.018-.45.024-.462ZM57.516 89.117c.021-.097.045-.01.066-.108l-.009-.365c-.089.023-.152.318-.057.473ZM56.42 86.854c0 .662.093.438.192.317-.006.002-.011.008-.017 0 .04-.925-.066-.62-.175-.317ZM56.636 87.15c.03-.031.063-.048.092-.016.015-.37-.037-.077-.092.016ZM55.457 85.114c.041.172.058-.845.074-.575.08-.841-.34 1.009-.074.575ZM56.465 89.036l-.024-.817-.068.658.092.159ZM55.674 88.42l.155.23a.648.648 0 0 1 .05-.278c-.098-.029-.202-.194-.205.048ZM55.88 88.372c.052.018.102.001.134-.132-.028.008-.09.033-.135.132ZM56.236 89.279l-.045-.172-.115-.062.16.234ZM53.937 88.194l-.19.226c-.033.278.006.452.078.345.053-.194.124-.298.112-.571ZM54.371 90.455c-.042-.172-.036-.354-.052-.624l-.052 1.012.104-.388ZM53.83 90.668c-.033.28-.307.792-.072.74.033-.277.227-.501.071-.74ZM51.199 89.226l.046-.01.114-1.658-.16 1.668ZM48.491 93.008c.182.415.138-1.018.29-.506.082-.388-.125-.417-.045-.751-.164.402-.212.163-.245 1.257Z"/><path d="M48.736 91.751a2.76 2.76 0 0 0 .087-.247c-.045.1-.07.179-.087.247ZM20.316 86.589l-.344-.121.469.339-.125-.218ZM21.126 87.82l-.835-.783.72.824c-.028-.068-.078-.201.115-.041ZM40.087 93.579l.033-.253c.004-.276-.026-.3-.085-.348l.052.601ZM38.347 92.641l.029.024.021-.959-.05.935ZM36.746 93.744c.059.045.146-.163.204-.118-.145.163-.13-1.073-.204.118Z"/></g><g fill="#090909"><path d="M65.606 63.252c.032.06.02-.624.024-.746-.05.152-.022.924-.024.746ZM65.09 64.805l.01-.28-.076.684.065-.404ZM64.608 64.792c.046 1.165.175-.188.261.227l.014.265.04-.937c-.106.148-.241.77-.315.445ZM64.35 62.273c.017.453-.056.39.061.142L64.4 62.3c-.01.006-.025.006-.05-.027ZM64.4 62.3c.05-.033-.034-.381 0 0ZM64.165 62.56l.067-.405c-.015-.268-.074-.328-.053-.522-.067.221-.053.487-.014.927ZM64.102 63.41l.034-.171c-.006-.113-.015-.152-.034.171ZM64.21 62.876l-.074.362c.01.188.012.565.034-.131-.006.346.008.014.04-.231ZM64.251 63.054c.038.253.086.413.02.816.128-.16.108-.979-.02-.816ZM64.583 65.996l.05.341.043-.391c-.02.195-.096-.315-.093.05ZM63.748 61.957l.027.978.05-.285c-.026-.17-.074-.326-.077-.693Z"/><path d="m63.775 62.934-.073.425c.066.051.078-.152.073-.425ZM64.09 64.703l.121-.894-.145.905.023-.011ZM63.466 61.925l.041-.573-.075.867.034-.294ZM63.278 62.026c.03-.475-.042-.804-.01-1.096-.05.084-.095.493-.134.859.042-.205.086-.152.144.237ZM63.069 62.324c.021-.114.043-.318.065-.535-.021.11-.044.268-.065.535ZM63.575 63.237c-.005-.15-.016-.542-.058-.708l.028.697.03.011Z"/><path d="M63.547 63.249v-.022a.316.316 0 0 1-.063-.039l.063.061ZM63.583 63.24l-.008-.003c.003.068.005.091.008.003ZM63.896 64.072c-.044.389-.135.808-.047 1.402.031-.477-.019-.816.047-1.402ZM63.619 64.111l.078.159c-.001-.184-.016-.452.006-.646l-.084.487ZM63.581 64.333l.038-.222-.029-.059-.009.281ZM63.204 62.976c-.034.304-.07.329-.113.378.045.137.091.211.137.209.005-.219.024-.611-.024-.587ZM63.371 63.17l-.008.04c.005.059.009.078.008-.04ZM62.677 63.349l.007.126.001-.12-.008-.006Z"/><path d="M63.234 63.693c.034.134.054-.036.072-.251-.024.07-.052.115-.08.121-.003.099-.004.165.008.13ZM62.954 62.649c.021.145.041.268.06.383-.018-.22-.054-.564-.06-.383ZM63.352 63.017a.627.627 0 0 0 .005-.031c-.012-.15-.01-.077-.005.031ZM63.352 63.017c-.018.101-.031.272-.046.426.022-.055.04-.13.057-.233l-.011-.193ZM62.552 67.824c.006-.646.096-1.243.172-.55.075-.485.026-2.61-.04-3.799-.002.282-.002.542-.08.924.027.353.173.825.107 1.41-.103.333-.085-.229-.134-.57.042.806-.131 1.172-.109 2.355l.09-.416c.002.184-.03.478-.006.646ZM62.832 63.542l.032-.081c-.037-.112-.064-.371-.11-.876a4.907 4.907 0 0 0-.069.771l.158.09-.011.096ZM63.007 63.459c-.024.704-.101 1.002-.055 1.763.094-.048.065-.587.122-.892-.15.174.044-.392-.066-.79a.4.4 0 0 1 .082-.186 2.652 2.652 0 0 1-.078-.321l.003.044.001-.002v.011c.007.087.009.141.001.09 0 .009-.002.012-.003.014l-.007.266c-.044-.145-.007-.183.007-.266l.002-.104v-.009l-.151.385c.032.097.072.078.142-.003ZM63.768 66.986l-.005-.164c-.009.086-.013.145.005.164ZM63.706 66.561c.011-.098.02-.379.056-.307.031.211 0 .337.002.568.022-.187.075-.504.008-.846l-.01.096c-.062-.241-.141-1.118-.13-1.215.018.633.033 1.083.074 1.704ZM63.353 65.189l-.126.345.063.608-.004-.365c.073.143.057-.307.067-.588ZM62.663 63l.017-.743-.072 1.048.055-.305ZM62.499 63.088l.006-.646-.043.39.037.256ZM53.242 71.1l-.037.183c.016-.056.029-.118.037-.183ZM53.51 71.144l.008-.318c-.014.175-.019.304-.008.318ZM58.47 63.161c-.053-.603-.114-1.539-.107-.812l.018.708c.036-.127.064-.048.09.104ZM55.71 67.387l.017.216c.013-.242.024-.467.037-.677-.018.144-.034.299-.054.461ZM55.673 70.316l-.071-.457c.015.161.039.312.07.457ZM51.775 71.85l-.043.721c.068-.005.037-.368.043-.721ZM60.82 63.349c-.048-.276-.084-.393-.116-.427.055.406.1 1.016.116.427ZM53.347 63.588a2.409 2.409 0 0 0-.031.43c.023-.121.036-.256.031-.43ZM60.567 62.924c.012.07.017.107.025.167.034-.119.068-.214.11-.169-.041-.303-.088-.489-.135.002ZM46.456 71.264l-.012-.085c0 .095.004.1.012.085ZM44.906 64.121c.015-.044.04-.045.064-.054-.012-.049-.031-.044-.064.054ZM61.84 62.779c.034-.046.004-.078 0 0ZM62.008 65.579c-.007.08-.013.181-.013.344l.013-.344ZM60.222 67.33l-.003-.003c.01.139.007.112.003.003ZM61.891 63.101a1.338 1.338 0 0 0-.045-.21c.007.055.022.124.045.21ZM61.885 62.767l.03.068c.004-.118 0-.192-.03-.068ZM61.79 62.818c.021-.011.039.022.057.073a.638.638 0 0 1-.008-.112.167.167 0 0 1-.048.039ZM49.306 69.369l-.008-.067c-.035.294-.019.247.008.067ZM57.565 70.512l.004-.034-.005-.025.001.059ZM57.44 71.039c.053-.881.083-.772.124-.587l-.042-2.041-.082 2.628Z"/><path d="m52.598 71.304.089.636c-.107 1.046-.183.686-.1 1.58.011-2.216.34-.227.353-2.44l.058.466c-.017-.021-.02.109-.036.087.113 1.061.084-1.603.23-1.287.05.17.085.492.051.755l.113-.548c.031.043.023.428-.009.385l.172-.177-.001.065.106-1.113c.044.317-.021.234-.011.511l.095-.536c.04.574-.04 1.131-.105 1.049.088 2.212.078-.558.27.734l-.09.281c.058 1.257.128.802.23 1.585-.024-.409-.203-1.975-.1-2.526.029.167.067.247.123-.199 0 .788.054.594.122.55l-.004 1.043c.073-.301.067-.832.11-1.302.082.103.099.911.118 1.592.132.166-.09-1.296.064-1.492.109.398.186-.027.317-.652.076.359-.014.639.015.938l.067-.833c.017.021.01.275.009.405.057-.323.004-1.043.094-1.327.024-1.149.184 1.681.295.375.027.296-.013.64-.005 1.043.152-.855.131-.622.256-1.774l.107.685c-.078-.783.021-1.711.108-2.473-.028-.378-.055-.708-.066-.867l.14-.56c.018.171.003.53-.02.966l.024-.25c.05.386.024.988-.011 1.571l-.051-.644a31.406 31.406 0 0 0-.06 1.946c.01-.12.026-.224.045-.281-.009.172-.014.325-.01.43.004.11.02-.121.042-.387l.032 1.163.007-.463.184.729c.13-1.171.244-2.895.451-3.375-.05.853-.01 1.394-.014 2.404-.056-1.07-.16.454-.268.237.056.112.044.594.03.762l.194-.976c-.004.826.041.619.091.961-.038-1.634.144-1.088.222-1.589.005.549-.014 1.108-.11.977.106 1.229.137-1.919.24-.874-.023.014-.035-.071-.045.208.055-.487.187-.102.155.377l-.022.011c.154.193.47.012.493-1.376l-.029 1.954.276-4.669c-.024 1.192.068 4.03-.06 4.704.037.169.082.368.16-.053-.025-.17-.063-1.724-.029-1.832.095 1.327.066.709.183 1.841-.038-.256.004-2.125.063-2.065-.009.28.005 1.846-.017 2.04l.148-1.835c-.036.331-.006 1.555.027 2.073-.016-.358.128.034.167-.147l-.063-.426c.167.277.165-2.58.33-2.483-.02.379-.05 2.332.035 2.563.038-.94.172-4.521.318-5.244l.028.537.112-.611a190.25 190.25 0 0 1-.374 5.547c.063.425.018.633.111.585.033.503-.051.764-.079.793l.218.325c-.009-1.098.167-1.101.158-2.014l-.235 1.137c-.01-1.095.137-3.113.29-2.92.04.437-.028 1.952-.025 2.318.02-.378.147-.721.16-.453l-.065.586c.086.413.14-1.454.244-.407.035.07.107 1.413.112.764-.059-1.252-.069-5.124-.03-6.063.012.084.188 1.197.228 1.815.059.981-.089 2.338-.038 3.181.002-.299.035-.669.048-.787.038.256-.016.928.065.792.014-1.111.165.095.038-.939.08-.318.085.229.179.18-.029-.719.084-2.445.164-2.763-.006.283.013.651.021.819.163.1.25.605.403.614.014.27.088.596.057 1.074.022-.196.042-.573.088-.601.092.962-.104.149-.035 1.305.007-.646.121-.892.189-1.295-.02-.998-.154-.191-.221.212 0-1.377.115-2.819.275-3.455.126-.342.056.89.077.694.237.24.202-2.404.4-1.411.078.877.003 1.746.021 2.378-.103.333-.157-.557-.228-.521l.086.415c-.033.292-.103.513-.14.259.066.788.402.151.585.878.031-.294.089-.598.062-.951l-.058.123c-.054-.708.108-.979.036-1.308.076-.498.165-1.279.274-.879l.02 1c-.001-.292-.07-.596-.102-.292.046-.443.168 1.354.218.044l-.076-.693c.078-.503.175-1.565.272-1.249-.044-.988-.022.113-.092-1.043.06 1.438-.247-.061-.152 1.451-.07-1.342-.122-.569-.214-1.713.002.33.032.631-.049.468l-.018.291a.539.539 0 0 1-.006-.025l.005.039c-.004.049-.005.06.002.014.019.144.034.318.04.502-.04.757-.17.734-.213 1.125-.049-.157.02-.378-.006-.73l-.065.586c-.006-.733-.128-1.217-.015-1.646l-.103-.033c-.06-.411-.144-.575-.194-.266-.048-.159-.122.811-.08.237l-.16.454-.004-.185c-.158-.093-.326 1.213-.507-.109-.054.185-.109.411-.198.203l-.017-.634c-.069.221-.206-.634-.235.026-.074-1.706-.333-.372-.453-.675l-.005.828c-.083-.047-.162.188-.265.52l.006.731c-.088.601-.229-.521-.368-.445.01-.28.045-.207.07-.038-.167-1.652-.355 1.202-.506-.001-.037.266-.065.175-.092-.009.003-.001.007-.015.01-.039-.005-.008-.01-.01-.017-.008l-.052-.39c.016.178.03.324.044.392-.029.015-.074.106-.117.29l-.018-.786c-.004.01-.007.009-.012.022-.042-.29-.033.372-.01.963a6.07 6.07 0 0 0-.06.474c-.033-1.268-.113.427-.16-.926-.029.66-.218.497-.24 1.884-.003-.181-.016-.267.008-.278-.048-.158-.097-.316-.14.075l-.022-.999-.106 1.343a7.7 7.7 0 0 1-.027-1.731c-.153 1.182-.125.445-.256 1.617l.007-.646c-.047.024-.122.89-.15.356-.105-1.228-.518-.169-.787-1.311.052 1.902-.125-.852-.137.622-.016-.449-.053-.704-.01-1.095-.137.442-.206-.713-.301.53-.016-.452.03-.66.016-.926-.011.097-.044.391-.058.123-.015-.268.02-.377.042-.574-.14.076-.155 1.462-.165 2.763-.07-.616-.107-.529-.157.324-.025-.425-.067-.871.022-1.023-.05-.062-.3-.624-.306.419-.015-.265-.067-.077-.08.043-.11-.062-.12-.156-.23-.057l.03.17c-.042 1.258-.089.28-.176.432l.002-.129c-.2-.907-.086.435-.283-.601l.012.782c-.02 1.684-.175-.993-.29-.349l.042.447c-.063.576-.174-2.289-.237-2.499-.014-.147.022-.235.041-.344-.164-.993-.021 1.025-.144 1.264-.022-.553.028-1.406-.054-1.509-.04-.448-.238 1.795-.351.734.024.426.049.852-.007 1.172-.088.152-.236-1.611-.315-.268a3.162 3.162 0 0 1-.016-.334c-.067.347-.217.576-.256 1.304-.063-2.703-.414 1.314-.413-1.178l-.204.133.005-.254c-.131-.165-.177.433-.224 1.031-.03-.169-.008-.402-.006-.533-.191-.503-.21-.397-.37.845l-.017-.809c-.043.47-.277-1.269-.464-.325.002-.092.006-.249.021-.362-.21.949-.505-2.244-.582.702l-.14.726c.18.229-.026 1.278.048 1.767-.07.173-.184-.888-.096-1.04l.013.147c.032-1.535-.224-.544-.22-1.589-.354.076-.7-.774-1.031-.84l.038 1.193-.116-.068c-.03-.278-.041-.934.042-.884-.044-.676-.14.566-.141.826-.162-.483.063-1.392.013-1.42l-.067.089.016.139c-.055.488-.06 1.005-.16.946-.062-.239-.03-.736-.056-.782 0-.084-.009-.125-.037-.034l-.147-.102.058.942c-.064.464-.137-.049-.07 1.018-.099-1.646-.543-.591-.605-1.102-.09.687-.18.675-.29.592.027.196.044 1.255-.052 1.125.035-2.186-.175-.949-.252-2.521.069 1.043-.272.257-.163 1.738-.08-.177-.005-.818-.066-1.333-.19.847-.417-.551-.652-.265-.004.287.035.726-.016 1.153l-.124-1.435c-.046.141-.042 1.656-.127.661.012.241.03.605 0 .697-.46-1.398-.94 1.146-1.407-1.482.064.556.022.611-.026.632.03.133-.001.709.005 1.098l-.195-1.08c-.036 1.079-.209.073-.23 1.105l.062-.186c-.082 1.218.115 2.708.104 4.27.092-1.385.242 2.051.394.068.033.319-.028.504-.011.866.039-.67.085-.81.17-.509l-.01.165c.241-.163.345.497.616.938l-.02-.773c.058.104.07.346.097.54.067-1.172-.163-.066-.102-1.358.077 1.572.41.023.462 1.811.09.01-.027-.895.064-.884l.023.483.022-.623c.059.103.088.707.09 1.116-.015-.048-.04.115-.056.15.076.569.215-.194.24-.009l-.086-.298c.244-.453.542.183.779-.801l-.019-.365c.18-.675.145.401.343.089l-.007.087c.04-.363.092-.547.147-.505-.05.427.093.83.028 1.302.194-.724.097-.568.225-1.924l.03.604c.044-.547.048-.835.146-.992-.08.52.064.922-.026 1.608.207 1.323.308-1.336.404.6.095-1.675-.18-.93-.126-1.289-.046-.547.077-1.251.143-1.083.066.037.113 2.143.279 2.11-.017-.008-.019.118-.034.111.062.427.122-.578.198.115.043-1.012.1.059.111-1.232l-.152.299c.087-.338.168-1.85.311-1.116-.011.26-.054.603-.083.794.042.381.08-.253.123.139-.012 1.293-.185.281-.278 1.267.046.546.177-.937.13.464.066-1.78.163.225.277-1.135l-.008.774c.018-.122.055-.487.088-.468l-.06 1.004c.092-.856.176.749.264.283-.183.023-.04-.934-.119-1.498.227-1.036.13 2.025.383 1.654-.033.108-.128-.466-.074-.824.049.159.111.456.142.862.168-.16-.026-.796.045-1.271.059.943.083-.384.156-.687v.787c.193.506.051-1.64.224-1.029l-.072 1.091.09-.282-.02.896c.099-.664.128-.492.225-.241-.023-.555.012-1.429.097-1.453.058.468-.033.748.087.636-.027.492-.056 1.11-.109.386l-.031.747c.062.538.155.123.2.115a.396.396 0 0 1-.048-.184l.175-1.091c.026.296.006.533-.017.766.035-.085.06-.446.11-.515-.012.64-.01 1.3-.082 1.602l.166-.71c.011.278.085.764.063 1 .093.376.227-1.241.348-.745.007-.124.02-.243.045-.335.115.146.216.93.352.053l.077 1.147c.107-.261-.104-1.445.073-1.878.125-.365.046.979.09 1.298.064-.578.171-1.755.286-.821-.041.218-.072.048-.108.134Zm1.312-.509c-.025.165-.076.675-.095.211.03-.902.052-.471.095-.211Zm1.994-1.895c-.02.26-.048.131-.08-.167.023-.064.05-.035.08.167Zm5.554-5.48-.002.038c-.058-.307-.038-.186.002-.038Zm.118.342c.012-.11.011-.219.006-.329-.008.199-.035.213-.065.157.009.206.024.348.059.172Zm-12.64.31.02.205c-.05.227-.036.022-.02-.205Z"/><path d="M55.678 69.977c-.003-.133-.008-.279-.01-.428-.01.133-.012.285.01.428ZM51.783 71.717c-.001-.007-.002-.004-.004-.009l-.004.142.008-.133ZM59.752 70.435a2.998 2.998 0 0 1-.047-.406c0 .193.01.355.047.406ZM62.199 62.424l-.075.205c.036-.039.05.133.068.258-.002-.184-.016-.45.007-.463ZM62.854 67.295c.01-.097.023-.011.033-.108l-.003-.366c-.046.024-.079.319-.03.474ZM62.27 65.04c.006.662.053.437.106.314-.003.002-.006.008-.01 0 .015-.926-.041-.62-.097-.314ZM62.387 65.332c.018-.031.033-.049.05-.017.006-.371-.021-.077-.05.017ZM61.724 63.323c.025.17.017-.846.03-.577.029-.843-.166 1.02-.03.577ZM62.313 67.221l-.02-.818-.03.659.05.159ZM61.894 66.621l.084.227c0-.137.01-.218.023-.279-.051-.028-.109-.191-.107.052ZM62.002 66.568c.027.016.053-.002.068-.136-.015.009-.046.037-.068.136ZM62.196 67.466l-.025-.17-.06-.061.085.231ZM60.988 66.463l-.093.234c-.009.28.017.451.05.34.022-.195.057-.303.043-.574ZM61.266 68.701c-.024-.169-.026-.352-.04-.621l-.004 1.014.044-.393ZM60.997 68.938c-.01.281-.133.807-.018.743.012-.279.103-.512.018-.743ZM59.61 67.656l.023-.012-.003-1.662-.02 1.674ZM58.386 71.632c.109.398.026-1.025.125-.528.024-.393-.081-.405-.055-.745-.066.413-.1.18-.07 1.273ZM58.457 70.358l.033-.252c-.02.104-.027.183-.033.252ZM44.649 63.229l-.07-.347.045.558.025-.211ZM44.515 64.461l-.018-1.059-.042.958c.017-.046.048-.138.06.101ZM54.106 72.929l.005-.255c-.011-.276-.027-.297-.06-.34l.055.595ZM53.154 72.136l.016.021-.032-.957.016.936ZM52.355 73.357c.032.039.07-.174.104-.134-.072.173-.114-1.06-.104.134Z"/></g><path d="M15.114 59.838c.138-.188.632-.813-.043.031.278-.347.57-.682.865-1.016a26.435 26.435 0 0 1 2.227-2.229c.04-.037 1.068-.842.385-.342a8.869 8.869 0 0 1 1.22-.733c-.508.194-.55.225-.128.093a2.153 2.153 0 0 1-1.175-.021A2.473 2.473 0 0 1 17 54.533c-.167-.489-.161-.48.02.026.376 1.038.056-.635.03.35-.032-.296.04-.564.218-.805-.243.384-.21.382.097-.004a5.42 5.42 0 0 1-.484.492c.385-.26.377-.255-.024.015-.423.285-.891.502-1.355.713.772-.351-.426.101-.491.121a14.12 14.12 0 0 1-1.518.353c-.231.021-.463.034-.695.041-.303.013-1.683-.149-.389.051l3.068 3.933-.039-.393-1.225 2.884c.638-.719.977-1.34 1.323-2.222.817-2.079-.884-4.471-2.919-5.018-2.359-.633-4.326.775-5.142 2.849l-.1.256 1.075-1.8c-.906 1.022-1.47 2.053-1.332 3.443.163 1.668 1.137 3.634 3.067 3.933 6.801 1.055 17.831-3.275 14.754-11.748-1.602-4.41-6.061-5.428-9.995-3.17-2.83 1.625-5.161 4.309-7.048 6.888-1.326 1.813-.332 4.534 1.5 5.581 2.101 1.2 4.397.342 5.718-1.464Z" fill="#090909"/><path d="M41.304 47.557c-.054-12.876-1.026-25.733-.556-38.611l-4.713 1.411c5.62 3.694 7.93 10.031 11.013 15.626.563 1.022 3.987-.346 4.6-.864 5.34-4.502 7.475-11.304 11.905-16.529L58.75 9.667c1.012 6.451 1.328 12.934 3.902 19.035.475 1.126 4.265-.486 4.803-1.077 4.124-4.531 8.57-8.949 13.94-12.069l-4.256.638c1.097 6.109-.893 12.876-2.536 18.709-1.733 6.149-3.922 12.993-8.01 18.083-.194.242 3.9.187 4.762-.888 4.118-5.125 6.187-11.921 8.01-18.083 1.744-5.898 3.726-12.922 2.619-19.088-.174-.959-3.83.389-4.257.638-5.806 3.372-10.575 8.047-15.035 12.948l4.803-1.077c-2.575-6.102-2.888-12.584-3.902-19.035-.169-1.076-4.358.551-4.803 1.077-4.288 5.055-6.342 11.754-11.5 16.102l4.601-.864c-3.148-5.717-5.544-12.148-11.276-15.915-.799-.525-4.673.308-4.713 1.411-.47 12.878.501 25.735.557 38.611.004.61 4.85-.031 4.845-1.266Z" fill="currentColor"/></g></svg>