<svg xmlns="http://www.w3.org/2000/svg" viewBox="184.53 81.76 821.49 159.54"><path fill="none" stroke="currentColor" stroke-width="7.087" stroke-miterlimit="10" d="M193.862 156.95c0 18.831-6.15 36.885-5.772 54.89 10.201 2.884 17.677 16.862 29.065 15.487 9.033-1.091 8.847-7.611 13.954-14.087 1.817-2.306 1.678-4.759 4.041-6.818 1.499-1.308 5.591.986 6.792-.159 14.05-13.391 10.526-43.637 10.526-62.204M272.392 226.104c0-25.323 7.151-45.787 8.359-70.148 9.138-.428 18.721-.514 27.861.032 4.331 14.042 15.579 10.231 15.261 27.893-9.92.145-35.646-8.894-42.392-1.256-2.015-1.233-2.438-1.121-5.217-2.232 1.37.126 2.812.082 4.155.178.144 4.696-3.649 18.262-5.505 19.567-.428-.643-.453-1.297-.073-1.963 26.895-1.488 52.118-8.66 48.946 26.587-14.26 3.303-31.855 10.216-46.503 4.657-.93-12.604-2.548-24.497-2.548-37.304M339.202 155.777c.57 16.27-7.415 30.245-5.86 46.625 1.167 12.306 12.029 26.613 26.959 22.53 10.747-2.938 27.875-21.683 31.704-33.954 4.187-13.426 2.288-31.354 2.288-45.748M464.62 219.073c2.533-6.347 2.019-13.89 4.693-20.888 2.412-6.317 6.797-12.273 7.965-18.966 1.605-9.186.233-19.914.233-29.302M486.89 227.277c0-12.379-1.879-26.464 2.608-37.386 4.178-10.169 10.135-16.62 10.228-27.925 3.371 11.274 11.149 19.997 14.707 31.575 2.304 7.496 3.895 14.75 6.442 21.656-2.734-16.79 11.361-18.479 20.87-25.663 7.841-5.922 12.872-17.102 21.092-21.915 1.94 25.279-11.767 46.541-16.021 70.029 6.257.585 12.215-1.625 18.605-.994M591.207 224.933c0-19.252-1.119-38.46 2.514-57.256 8.295-2.736 19.833-16.352 24.469-23.814 3.045 11.93 5.799 27.056 11.612 38.793-13.44 6.068-35.431 4.771-51.488 4.771M633.404 229.622c2.511-5.324-.358-13.652 1.089-20.188 1.896-8.568 4.649-15.424 5.948-25.39 1.089-8.37 2.005-16.755 4.396-24.486 1.657-5.357 5.239-7.973 4.976-14.328"/><path fill="none" stroke="currentColor" stroke-width="7.087" stroke-miterlimit="10" d="M646.296 148.746c7.791 2.756 29.712-3.265 32.821 4.687M631.06 181.564c8.093.006 14.102 6.632 21.075 9.15 6.841 2.47 14.75 1.39 21.121 4.916M634.576 231.967c9.122 2.881 35.948 5.421 44.541-2.345M692.978 221.416c5.694-13.138 5.329-24.44 8.21-38.415 2.064-10.023 9.17-18.009 8.377-29.387 13.822-.744 35.8 1.376 32.632 20.917-1.487 9.182-10.44 7.272-13.843 13.139-4.871 8.407 3.358 13.226 4.476 22.03 1.055 8.291-2.279 15.325-1.171 23.438M818.395 219.073c0-18.488-.041-36.975 0-55.462.026-11.6.552-16.863-11.722-19.553"/><path fill="none" stroke="currentColor" stroke-width="7.087" stroke-miterlimit="10" d="M805.501 155.777c9.246 0 19.594 1.005 27.743-1.496 5.853-1.796 10.752-5.496 16.797-6.708M890.276 156.066c-12.404.181-16.445-9.382-24.276-.376-6.953 7.998-4.479 24.484-5.41 34.141-1.969 20.403 12.937 39.104 36.33 32.817 4.685-1.258 7.572-4.761 11.821-6.767 4.233-1.999 11.306-3.402 14.873-6.841 6.734-6.489 4.313-15.267-.618-22.698-9.165-13.812-18.33-29.438-33.744-30.366M973.112 231.967c-5.297-6.801-6.114-19.448-15.033-23.646-1.124-18.964-.443-23.24-20.13-23.24M690.633 179.22c13.464 0 19.303.061 30.158 7.071 9.387 6.063 16.189 7.025 26.104 10.512M801.983 221.416c-5.246-1.873-9.25-18.666-12.038-24.637-5.557-11.901-12.355-22.462-18.436-33.968"/><path fill="none" stroke="currentColor" stroke-width="7.087" stroke-miterlimit="10" d="M757.443 229.622c6.332-22.812 14.066-44.68 14.066-69.155"/><path fill="none" stroke="currentColor" stroke-width="7.087" stroke-miterlimit="10" d="M756.271 200.317c11.014.741 32.617-2.382 41.024-9.374M933.262 228.449c0-17.75-.129-26.977 5.859-42.334 4.458-11.431 3.518-22.99 3.518-35.025"/><path fill="none" stroke="currentColor" stroke-width="7.087" stroke-miterlimit="10" d="M934.434 156.95c17.676.527 70.048-18.878 67.982 16.466-1.092 18.695-33.385 12.553-49.229 14.01"/><path fill="currentColor" d="M892.752 197.25c.001-5.311.056-10.605.591-15.894l-8.198 1.676c-.001 6.524-.044 13.037-.591 19.543l8.198-1.676c-1.094-5.639-.656-11.321-.609-17.025.018-2.199-8.19-.766-8.215 2.201-.046 5.704-.483 11.386.609 17.025.48 2.475 8.013.536 8.198-1.676.575-6.854.622-13.72.624-20.594 0-2.245-7.961-.666-8.198 1.676-.57 5.636-.622 11.284-.624 16.944 0 2.217 8.214.762 8.215-2.2zM873.323 150.521c1.256-21.602-.212-45.399 8.867-65.574l-7.667 1.414c5.35 9.68 9.36 19.984 13.054 30.388.985 2.775 6.079 1.706 7.485-.109 6.092-7.855 8.972-17.38 13.277-26.22l-7.992.788c2.215 10.022.101 20.193-.031 30.31-.05 3.86 6.871 2.406 8.023-.083 2.074-4.478 4.263-8.89 6.702-13.182 2.552-4.49 5.835-10.511 10.611-12.986l-5.846-1.02c3.742 25.182-6.596 51.88-14.626 75.31-1.161 3.389 7.188 2.386 8.277-.792 8.234-24.024 18.398-50.909 14.563-76.719-.345-2.316-4.539-1.697-5.846-1.02-10.921 5.66-16.693 19.175-21.606 29.783l8.023-.083c.138-10.591 2.287-21.224-.031-31.719-.721-3.26-6.978-1.296-7.992.788-4.008 8.228-6.596 17.553-12.264 24.862l7.485-.109c-3.856-10.861-8.122-21.538-13.704-31.64-1.34-2.423-6.772-.573-7.667 1.414-9.35 20.775-8.081 44.745-9.375 66.992-.226 3.932 8.088 2.517 8.28-.793z"/></svg>